<svg width="778" height="9" viewBox="0 0 778 9" fill="none" xmlns="http://www.w3.org/2000/svg">
<path d="M1 4.5C7.63248 9.16667 14.265 9.16667 20.8974 4.5C27.5299 -0.166667 34.1624 -0.166667 40.7949 4.5C47.4274 9.16667 54.0598 9.16667 60.6923 4.5C67.3248 -0.166667 73.9573 -0.166667 80.5897 4.5C87.2222 9.16667 93.8547 9.16667 100.487 4.5C107.12 -0.166667 113.752 -0.166667 120.385 4.5C127.017 9.16667 133.65 9.16667 140.282 4.5C146.915 -0.166667 153.547 -0.166667 160.18 4.5C166.812 9.16667 173.444 9.16667 180.077 4.5C186.709 -0.166667 193.342 -0.166667 199.974 4.5C206.607 9.16667 213.239 9.16667 219.872 4.5C226.504 -0.166667 233.137 -0.166667 239.769 4.5C246.402 9.16667 253.034 9.16667 259.667 4.5C266.299 -0.166667 272.932 -0.166667 279.564 4.5C286.197 9.16667 292.829 9.16667 299.462 4.5C306.094 -0.166667 312.727 -0.166667 319.359 4.5C325.991 9.16667 332.624 9.16667 339.256 4.5C345.889 -0.166667 352.521 -0.166667 359.154 4.5C365.786 9.16667 372.419 9.16667 379.051 4.5C385.684 -0.166667 392.316 -0.166667 398.949 4.5C405.581 9.16667 412.214 9.16667 418.846 4.5C425.479 -0.166667 432.111 -0.166667 438.744 4.5C445.376 9.16667 452.009 9.16667 458.641 4.5C465.274 -0.166667 471.906 -0.166667 478.538 4.5C485.171 9.16667 491.803 9.16667 498.436 4.5C505.068 -0.166667 511.701 -0.166667 518.333 4.5C524.966 9.16667 531.598 9.16667 538.231 4.5C544.863 -0.166667 551.496 -0.166667 558.128 4.5C564.761 9.16667 571.393 9.16667 578.026 4.5C584.658 -0.166667 591.291 -0.166667 597.923 4.5C604.556 9.16667 611.188 9.16667 617.821 4.5C624.453 -0.166667 631.085 -0.166667 637.718 4.5C644.35 9.16667 650.983 9.16667 657.615 4.5C664.248 -0.166667 670.88 -0.166667 677.513 4.5C684.145 9.16667 690.778 9.16667 697.41 4.5C704.043 -0.166667 710.675 -0.166667 717.308 4.5C723.94 9.16667 730.573 9.16667 737.205 4.5C743.838 -0.166667 750.47 -0.166667 757.103 4.5C763.735 9.16667 770.368 9.16667 777 4.5" stroke="#C9BFB6" stroke-width="2" stroke-linecap="round"/>
</svg>
