<svg width="1440" height="111" viewBox="0 0 1440 111" fill="none" xmlns="http://www.w3.org/2000/svg">
<path fill-rule="evenodd" clip-rule="evenodd" d="M847.099 110.743C847.099 110.529 846.888 110.5 846.096 110.6C844.6 110.789 841.31 110.736 840.724 110.512C840.442 110.405 839.218 110.287 838.004 110.252C836.791 110.216 835.505 110.115 835.148 110.027C834.73 109.924 834.264 109.927 833.842 110.036C833.36 110.16 833.019 110.134 832.547 109.937C832.194 109.791 831.789 109.671 831.647 109.671C831.504 109.671 830.914 109.51 830.337 109.314C829.597 109.062 829.009 108.989 828.346 109.065C827.486 109.165 826.993 109.503 827.709 109.503C828.259 109.503 828.025 110 827.435 110.083C826.085 110.274 823.566 110.103 822.934 109.778C822.395 109.501 822.101 109.474 821.11 109.611C820.26 109.728 819.672 109.713 819.017 109.559C818.431 109.422 818.059 109.407 817.977 109.516C817.899 109.622 817.546 109.596 817.06 109.45C816.604 109.312 815.536 109.226 814.532 109.245C813.522 109.264 812.989 109.221 813.26 109.142C813.587 109.046 813.598 109.004 813.299 109.003C813.062 109.001 812.611 109.119 812.296 109.263C811.775 109.503 811.723 109.503 811.723 109.263C811.723 109.119 811.559 109 811.358 109C811.022 109 810.845 109.238 810.95 109.545C811.023 109.758 810.661 109.686 809.899 109.335C809.498 109.151 808.924 109 808.623 109C808.319 109 808.076 109.149 808.076 109.335C808.076 109.571 808.321 109.672 808.896 109.673C809.56 109.676 809.612 109.707 809.17 109.839C808.343 110.084 807.346 110.038 807.346 109.755C807.346 109.6 807.005 109.503 806.464 109.503C805.979 109.503 805.364 109.478 805.097 109.447C804.83 109.416 804.734 109.422 804.885 109.461C805.378 109.588 805.171 109.798 804.469 109.882C804.09 109.928 803.562 109.903 803.296 109.827C802.972 109.736 802.617 109.826 802.225 110.101L801.638 110.512L801.151 110.094C800.769 109.765 800.556 109.716 800.164 109.865C799.779 110.012 799.545 109.983 799.141 109.738C798.852 109.562 798.611 109.337 798.605 109.237C798.599 109.136 798.183 108.968 797.682 108.863C797.18 108.758 796.77 108.553 796.77 108.407C796.77 108.242 796.943 108.188 797.226 108.262C797.477 108.329 797.552 108.318 797.394 108.238C797.236 108.158 796.679 108.067 796.156 108.034C795.633 108.002 794.579 107.829 793.814 107.649C792.364 107.309 789.255 107.191 789.658 107.491C789.782 107.583 789.71 107.659 789.498 107.659C789.285 107.659 789.111 107.583 789.111 107.491C789.111 107.151 787.988 107.336 787.586 107.742C787.132 108.201 786.58 108.272 785.902 107.96C785.562 107.804 785.464 107.821 785.464 108.036C785.464 108.373 784.708 109.168 784.387 109.168C784.26 109.168 783.999 108.922 783.807 108.623C783.514 108.165 783.284 108.078 782.364 108.078C781.165 108.078 779.629 107.689 779.629 107.385C779.629 107.279 779.365 107.203 779.041 107.216C778.718 107.229 778.267 107.099 778.038 106.928C777.81 106.757 776.876 106.241 775.963 105.781C774.492 105.04 774.248 104.975 773.821 105.212C773.086 105.619 772.591 105.534 772.857 105.045C773.087 104.624 773.071 104.619 772.269 104.877C771.26 105.202 770.838 105.217 771.087 104.918C771.22 104.759 770.977 104.703 770.255 104.726C768.702 104.776 766.079 105.182 765.897 105.402C765.806 105.51 765.33 105.561 764.823 105.516C764.21 105.463 763.742 105.539 763.394 105.751C763.094 105.933 762.871 105.977 762.865 105.856C762.858 105.74 762.677 105.646 762.462 105.646C762.247 105.646 761.815 105.528 761.501 105.384C761.098 105.198 760.817 105.174 760.542 105.3C759.861 105.613 759.062 105.495 757.514 104.85C756.684 104.504 755.699 104.195 755.326 104.164C754.953 104.133 754.114 103.957 753.462 103.773C752.81 103.589 752.277 103.511 752.277 103.598C752.277 103.686 751.784 103.731 751.183 103.699C750.581 103.667 750.089 103.706 750.089 103.786C750.089 103.866 749.309 103.985 748.356 104.05C747.403 104.115 746.44 104.238 746.214 104.323C745.74 104.503 744.531 104.337 744.808 104.131C744.911 104.055 744.825 103.944 744.618 103.885C744.411 103.827 744.336 103.708 744.451 103.622C744.567 103.536 744.396 103.466 744.071 103.466C743.746 103.466 743.582 103.542 743.706 103.634C743.83 103.726 743.786 103.802 743.607 103.802C743.428 103.802 743.069 103.985 742.809 104.209C742.46 104.508 742.179 104.578 741.744 104.474C740.57 104.193 738.591 103.891 738.189 103.933C737.962 103.956 737.682 103.808 737.566 103.604C737.36 103.242 737.338 103.24 736.61 103.543C735.885 103.845 735.865 103.845 735.865 103.542C735.865 103.301 735.768 103.276 735.428 103.433C734.771 103.734 734.329 103.675 734.575 103.318C734.837 102.938 733.972 102.733 733.307 103.018C732.945 103.173 732.89 103.135 733.046 102.837C733.199 102.546 733.085 102.46 732.549 102.46C732.166 102.46 731.854 102.403 731.854 102.333C731.854 102.194 729.279 101.789 728.395 101.789C728.091 101.789 727.842 101.709 727.842 101.612C727.842 101.514 727.678 101.481 727.477 101.538C727.277 101.595 727.112 101.797 727.112 101.987C727.112 102.267 727.013 102.296 726.595 102.136C726.187 101.98 726.003 101.999 725.728 102.225C725.407 102.489 725.313 102.484 724.536 102.15C723.535 101.722 723.334 101.71 722.736 102.041C722.486 102.179 722.056 102.292 721.78 102.292C721.503 102.292 721.277 102.359 721.277 102.44C721.277 102.522 720.99 102.635 720.639 102.692C720.288 102.748 719.443 102.983 718.762 103.214C717.361 103.688 715.596 103.794 715.939 103.382C716.054 103.244 716.007 103.131 715.834 103.131C715.662 103.131 715.423 103.247 715.305 103.388C715.115 103.617 714.986 103.614 714.161 103.365C713.65 103.211 713.118 103.138 712.98 103.201C712.841 103.265 712.946 103.379 713.212 103.454C713.519 103.542 713.56 103.631 713.324 103.698C713.119 103.756 712.896 103.737 712.829 103.655C712.76 103.572 712.308 103.58 711.795 103.673C710.562 103.897 707.814 103.928 707.661 103.719C707.586 103.616 707.313 103.635 706.966 103.767C706.538 103.929 706.36 103.934 706.251 103.784C706.142 103.634 705.919 103.632 705.328 103.778C704.241 104.045 703.284 104.023 703.524 103.735C703.65 103.585 703.411 103.474 702.858 103.425C701.829 103.335 701.47 103.426 700.896 103.927C700.658 104.135 700.296 104.305 700.09 104.305C699.885 104.305 699.808 104.237 699.919 104.155C700.03 104.072 699.889 103.964 699.606 103.914C699.323 103.864 699.016 103.913 698.924 104.023C698.681 104.314 695.415 104.246 694.062 103.921C693.436 103.77 692.811 103.699 692.675 103.761C692.538 103.824 692.299 103.781 692.142 103.664C691.927 103.504 691.61 103.497 690.822 103.634C690.253 103.734 689.316 103.768 688.741 103.71C688.158 103.651 687.479 103.687 687.207 103.79C686.832 103.934 686.676 103.898 686.527 103.637C686.421 103.451 686.483 103.298 686.665 103.298C687.103 103.298 687.092 102.507 686.652 102.382C686.463 102.329 685.355 102.356 684.19 102.442C682.237 102.587 682.023 102.572 681.445 102.236C681.1 102.037 680.906 101.741 681.014 101.58C681.201 101.299 680.821 101.218 679.432 101.241C679.183 101.245 679.059 101.19 679.154 101.118C679.25 101.047 679.084 100.896 678.786 100.782C678.358 100.618 678.243 100.618 678.243 100.781C678.243 100.903 677.999 100.944 677.64 100.88C676.811 100.734 674.596 101.093 674.596 101.373C674.596 101.499 674.447 101.644 674.264 101.696C673.755 101.841 672.772 101.614 672.772 101.352C672.772 101.224 672.567 101.113 672.316 101.106C671.321 101.079 670.074 100.937 669.701 100.809C669.484 100.734 667.995 100.533 666.39 100.361C663.547 100.056 662.028 99.7022 662.394 99.43C662.493 99.3559 661.792 99.2487 660.835 99.1917C658.167 99.0324 657.409 98.9405 657.6 98.7988C657.86 98.6051 655.155 98.6063 654.644 98.8001C654.029 99.0341 653.292 98.8048 653.784 98.5325C654.047 98.3868 654.014 98.232 653.675 98.0187C653.111 97.6639 652.274 97.8151 652.605 98.212C652.759 98.3955 652.666 98.456 652.316 98.4025C652.033 98.3591 651.742 98.1792 651.669 98.0023C651.499 97.5934 650.885 97.4115 650.07 97.5282C649.718 97.5785 649.431 97.5463 649.431 97.4569C649.431 97.306 648.776 97.1547 645.969 96.657C645.297 96.538 644.876 96.343 644.875 96.1499C644.873 95.9113 644.603 95.8362 643.745 95.8362C643.124 95.8362 642.352 95.7354 642.028 95.6121C641.705 95.4889 641.286 95.4319 641.098 95.4854C640.909 95.5389 640.661 95.4699 640.546 95.3321C640.314 95.0537 639.22 94.9853 639.22 95.2493C639.22 95.6532 637.242 95.1324 635.391 94.2409C632.179 92.6948 630.913 92.4039 629.072 92.7892C628.437 92.9224 628.026 92.9088 627.431 92.7352C626.995 92.6079 625.751 92.4475 624.668 92.3784C623.585 92.3093 622.577 92.1622 622.428 92.0515C622.264 91.9293 621.792 91.8922 621.229 91.9571C620.718 92.0162 620.198 91.9886 620.074 91.8961C619.949 91.8035 619.34 91.7277 618.719 91.7277L617.591 91.7277L618.376 91.4146C618.808 91.2424 619.161 90.9723 619.161 90.8143C619.161 90.5827 618.932 90.5457 617.976 90.6225C617.324 90.6748 616.995 90.6746 617.244 90.6223C617.911 90.4818 617.075 89.8293 616.384 89.9512C616.073 90.0062 615.766 89.9245 615.645 89.7545C615.283 89.2435 614.437 88.452 614.429 88.6155C614.424 88.7024 614.189 88.6278 613.906 88.4497C613.622 88.2717 613.468 88.0687 613.563 87.9984C613.657 87.9281 613.478 87.8708 613.165 87.8708C612.853 87.8708 612.597 87.9555 612.597 88.0589C612.597 88.1921 612.442 88.1882 612.069 88.0457C611.738 87.9194 611.328 87.8991 610.969 87.9914C609.977 88.2468 608.035 88.0449 607.654 87.6468C607.31 87.2872 606.428 87.2084 605.282 87.4345C604.946 87.5007 604.368 87.4088 603.871 87.2106C603.407 87.0258 602.719 86.8296 602.342 86.7746C601.8 86.6954 601.733 86.6087 602.021 86.3614C602.221 86.1892 602.385 86.0056 602.385 85.9534C602.385 85.7854 601.085 85.8524 600.674 86.0418C600.173 86.2718 599.473 86.1077 597.081 85.1988C596.094 84.8237 595.077 84.5169 594.82 84.5169C594.562 84.5169 594.051 84.4304 593.682 84.3248C592.967 84.1192 590.921 84.2636 591.236 84.4973C591.338 84.5735 591.008 84.722 590.504 84.8279C589.257 85.0889 589.169 85.0749 589.454 84.6618C589.678 84.3374 589.603 84.3147 588.658 84.4227C588.084 84.4881 587.568 84.601 587.511 84.6732C587.453 84.7455 587.178 84.9476 586.898 85.122C586.401 85.4325 586.385 85.4324 586.117 85.1139C585.946 84.9119 586.005 84.7636 586.273 84.7227C586.768 84.6467 586.863 84.1816 586.383 84.1816C586.207 84.1816 585.859 84.2948 585.609 84.4331C585.359 84.5714 584.798 84.6846 584.361 84.6846C583.924 84.6846 583.389 84.7665 583.171 84.8666C582.954 84.9665 582.39 85.0232 581.919 84.9924C581.158 84.9424 581.125 84.9095 581.622 84.697C581.951 84.5564 582.122 84.2713 582.037 84.0043C581.957 83.7546 582.073 83.4991 582.295 83.4362C582.861 83.2752 581.855 82.84 580.917 82.84C580.428 82.84 580.201 82.7366 580.235 82.5291C580.269 82.3172 580.495 82.2434 580.942 82.2972C581.369 82.3487 581.597 82.2836 581.597 82.1102C581.597 81.9524 581.392 81.8807 581.091 81.9336C580.798 81.9855 580.253 81.8079 579.79 81.5092C579.353 81.2267 579.108 80.9954 579.246 80.9954C579.904 80.9954 578.505 80.5012 577.584 80.4083C576.799 80.329 576.479 80.1772 576.298 79.7986C576.166 79.5214 575.961 79.3389 575.843 79.3933C575.725 79.4476 575.245 79.1087 574.776 78.6403C574.093 77.9567 573.79 77.8082 573.241 77.8886C571.782 78.1014 570.342 78.1119 570.175 77.911C570.08 77.7979 569.351 77.6154 568.555 77.5057C567.76 77.3961 566.646 77.139 566.08 76.9346C565.515 76.7302 564.754 76.5418 564.39 76.5163C564.026 76.4907 562.987 76.1245 562.082 75.7024C560.936 75.1681 560.189 74.9498 559.62 74.9835C559.171 75.0101 558.639 74.9877 558.439 74.9333C558.238 74.8792 557.448 74.7418 556.681 74.6283C555.718 74.4854 555.351 74.3476 555.49 74.1807C555.601 74.0481 555.434 73.8943 555.12 73.8388C554.736 73.7711 554.682 73.7 554.956 73.6221C555.629 73.4308 554.96 72.9462 554.023 72.9462C553.544 72.9462 553.192 72.8882 553.242 72.8172C553.292 72.7463 552.959 72.5031 552.501 72.2769C551.792 71.9264 551.564 71.8959 550.956 72.0707C549.89 72.377 549.617 72.3255 549.376 71.7723C549.245 71.4713 548.929 71.2693 548.588 71.2693C548.138 71.2693 548.099 71.2013 548.398 70.9441C548.65 70.7278 548.654 70.5841 548.411 70.515C548.209 70.4578 548.045 70.4823 548.045 70.5695C548.045 70.6568 547.553 70.7613 546.952 70.8019C545.954 70.8693 545.906 70.8514 546.405 70.5981C547.126 70.2317 547.1 70.1414 546.12 69.6059L545.289 69.152L544.57 69.5382C543.885 69.9057 543.043 70.09 543.458 69.7813C543.566 69.7008 542.673 69.4704 541.473 69.2692C540.274 69.0681 539.292 68.8431 539.292 68.7693C539.292 68.6955 538.215 68.4197 536.899 68.156C535.022 67.7802 534.543 67.6126 534.677 67.3778C534.815 67.134 534.684 67.0972 533.969 67.1797C533.438 67.2411 533.092 67.2077 533.092 67.0951C533.092 66.9929 533.298 66.9069 533.548 66.9039C534.174 66.8967 532.778 66.412 531.531 66.2038C530.973 66.1107 530.272 65.8162 529.972 65.5496C529.672 65.2828 529.205 65.0646 528.933 65.0646C528.662 65.0646 528.251 64.8545 528.019 64.598C527.52 64.0441 524.995 63.2807 523.922 63.3594C523.451 63.3941 523.258 63.3465 523.409 63.2336C523.543 63.134 523.468 63.0523 523.241 63.0523C523.014 63.0523 522.582 62.9391 522.281 62.8008C521.795 62.5773 521.812 62.5493 522.434 62.5493C523.214 62.5493 524.477 61.9977 524.097 61.823C523.64 61.6125 522.629 61.7103 521.787 62.0462C520.719 62.4716 520.345 62.4716 520.587 62.0462C520.83 61.6191 520.554 61.6238 519.244 62.0693C518.281 62.3967 518.138 62.4049 517.61 62.1622C517.292 62.016 517.055 61.8359 517.082 61.7618C517.224 61.3769 516.993 61.1812 516.498 61.2684C516.198 61.3214 515.951 61.2917 515.951 61.2025C515.951 60.9654 515.129 61.0035 513.835 61.3003C512.801 61.5374 512.619 61.5357 511.776 61.2818C511.21 61.1111 510.603 61.0518 510.21 61.1286C509.653 61.2376 509.683 61.2677 510.444 61.3601L511.319 61.4665L510.353 61.6689C509.78 61.7889 509.387 61.8045 509.387 61.7073C509.387 61.6169 509.13 61.5431 508.815 61.5431C508.41 61.5431 508.311 61.4457 508.474 61.2087C508.652 60.9522 508.572 60.8978 508.134 60.9751C507.82 61.0306 507.563 61.1527 507.563 61.2466C507.563 61.3511 507.103 61.3727 506.378 61.3023C504.076 61.0789 499.175 61.0165 499.175 61.2107C499.175 61.3122 499.004 61.3466 498.794 61.287C498.585 61.2275 498.144 61.2797 497.815 61.4029C497.296 61.5969 497.247 61.5877 497.454 61.3335C497.609 61.1438 497.518 61.04 497.197 61.04C496.924 61.04 496.606 60.9268 496.49 60.7885C496.375 60.6501 495.93 60.5369 495.501 60.5369C494.97 60.5369 494.785 60.6144 494.924 60.7799C495.126 61.0221 494.382 60.9808 493.522 60.702C492.983 60.5269 490.787 61.0006 490.787 61.2921C490.787 61.6239 490.427 61.6098 489.864 61.256C489.478 61.0132 489.317 61.0035 488.821 61.1926C488.286 61.3965 488.076 61.3316 488.191 60.9981C488.215 60.9288 488.111 60.8668 487.961 60.8603C487.81 60.8536 487.113 60.8292 486.411 60.8061C483.752 60.7189 478.653 59.9136 477.976 59.4739C477.849 59.3921 477.01 59.5236 476.111 59.7661C474.647 60.1603 474.425 60.1793 474.002 59.945C473.742 59.8011 473.289 59.7258 472.994 59.7778C472.699 59.8298 471.916 59.782 471.253 59.6718C470.351 59.5219 469.922 59.5194 469.548 59.6619C469.172 59.8051 468.813 59.7959 468.093 59.6244C467.539 59.4922 466.013 59.397 464.465 59.3978C462.996 59.3988 461.528 59.3493 461.203 59.288C460.794 59.2105 460.552 59.2834 460.414 59.5261C460.305 59.7184 459.996 59.8548 459.728 59.8291C459.418 59.7993 459.272 59.9192 459.327 60.1596C459.375 60.3672 459.293 60.5371 459.145 60.5371C458.997 60.5373 458.389 60.73 457.794 60.9654C457.122 61.2307 456.43 61.3628 455.97 61.313C455.562 61.2688 454.312 61.1821 453.192 61.1205C451.582 61.0318 451.035 61.0642 450.575 61.2753C450.256 61.422 449.734 61.496 449.414 61.4396C449.095 61.3833 448.371 61.4252 447.806 61.5329C446.511 61.7795 443.301 61.9021 443.581 61.6942C443.811 61.5228 443.366 61.305 441.634 60.7415C440.568 60.3947 440.455 60.387 440.416 60.6577C440.392 60.8219 440.392 61.0127 440.416 61.0819C440.439 61.151 440.212 61.2077 439.912 61.2077C439.611 61.2077 439.365 61.3506 439.365 61.5252C439.365 61.8979 438.649 62.0603 437.576 61.9313C436.658 61.8208 436.536 61.5441 437.45 61.6449C437.801 61.6835 438.328 61.6434 438.621 61.5555C439.079 61.4182 439.062 61.3496 438.502 61.065C437.876 60.7471 437.877 60.731 438.517 60.655C439.132 60.5817 439.134 60.5743 438.536 60.5564C438.175 60.5455 437.707 60.7216 437.475 60.9562C436.968 61.4676 436.125 61.4911 435.035 61.0239C434.428 60.7642 433.751 60.6743 432.433 60.679C431.156 60.6835 430.129 60.5539 428.805 60.2212C427.79 59.9658 427.07 59.706 427.205 59.6438C427.34 59.5816 427.269 59.5308 427.047 59.5308C426.825 59.5308 426.541 59.6066 426.417 59.6991C426.293 59.7917 425.75 59.8207 425.21 59.7637C423.842 59.6192 420.514 58.8736 420.024 58.6023C419.801 58.4784 419.367 58.4212 419.06 58.4752C418.754 58.5293 418.389 58.4889 418.25 58.3855C418.074 58.2545 417.613 58.2453 416.737 58.3548C415.298 58.5345 414.164 58.4931 414.214 58.2625C414.233 58.1762 414.524 58.1301 414.863 58.1604C415.358 58.2047 415.337 58.1671 414.751 57.9655C414.352 57.8282 413.89 57.7546 413.724 57.8017C413.558 57.849 413.334 57.7343 413.228 57.547C413.02 57.1823 412.026 56.9183 411.677 57.1355C411.285 57.379 410.181 57.3686 409.973 57.1197C409.86 56.9839 409.142 56.8242 408.379 56.7649C407.615 56.7055 406.65 56.5113 406.234 56.3332C405.333 55.9472 404.353 55.9095 404.353 56.2608C404.353 56.3991 404.111 56.5123 403.813 56.5123C403.314 56.5123 403.118 56.3015 402.803 55.4223C402.719 55.1891 402.437 55.099 401.877 55.1269C401.424 55.1493 401.071 55.0739 401.071 54.9545C401.071 54.8377 400.743 54.613 400.342 54.4551C399.941 54.2971 399.612 54.2426 399.612 54.334C399.612 54.5787 398.887 54.5364 398.862 54.2904C398.839 54.0555 395.471 52.8231 394.852 52.8231C394.633 52.8231 394.208 52.7099 393.907 52.5716C393.015 52.1612 392.067 52.2796 391.224 52.9069C390.79 53.2297 390.356 53.4939 390.259 53.4939C389.675 53.4939 388.69 53.113 388.889 52.9645C389.042 52.8506 388.861 52.8259 388.383 52.8959C387.974 52.9556 387.533 52.9257 387.403 52.8295C387.246 52.7122 386.947 52.7091 386.497 52.8196C385.998 52.9423 385.773 52.921 385.619 52.7362C385.505 52.5996 385.161 52.4877 384.853 52.4877C384.546 52.4877 384.336 52.3933 384.386 52.2781C384.444 52.1459 384.141 52.0859 383.569 52.1156C383.042 52.1429 382.472 52.0443 382.212 51.881C381.844 51.6496 381.665 51.6373 381.206 51.8126C380.899 51.9298 380.648 51.9655 380.648 51.8921C380.648 51.8186 380.271 51.9214 379.809 52.1206C379.019 52.4622 378.923 52.4672 378.118 52.2078C377.439 51.9892 377.125 51.9731 376.581 52.1292C376.048 52.2823 375.72 52.2737 375.082 52.0904C374.633 51.9612 373.234 51.8159 371.973 51.7678C370.712 51.7195 369.297 51.5644 368.829 51.4232C368.36 51.282 367.646 51.2062 367.242 51.2547C366.837 51.3033 366.397 51.261 366.262 51.1608C365.849 50.8539 364.966 50.9582 364.966 51.3139C364.966 51.6643 364.683 51.7175 363.721 51.5478C363.405 51.4921 363.237 51.3789 363.348 51.2963C363.459 51.2137 363.294 51.1462 362.981 51.1462C362.669 51.1462 362.413 51.2594 362.413 51.3977C362.413 51.7014 361.449 51.7349 361.209 51.4396C361.089 51.2927 360.879 51.3253 360.506 51.548C360.12 51.7787 359.688 51.8409 358.933 51.7745C358.36 51.7242 357.541 51.7443 357.112 51.8191C356.075 52.0004 354.053 52.941 354.343 53.1072C354.469 53.1796 354.162 53.0885 353.66 52.9051C353.159 52.7216 352.635 52.4988 352.496 52.4101C352.245 52.2487 350.59 52.566 349.101 53.0607C348.458 53.2747 348.217 53.2681 347.056 53.0055C345.084 52.5591 343.236 52.6458 342.219 53.2326C341.496 53.6496 341.35 53.6758 341.142 53.4259C340.814 53.0327 340.166 53.2512 340.166 53.7553C340.166 54.17 339.26 54.3394 338.995 53.9741C338.919 53.8695 338.631 54.0989 338.354 54.4841C338.05 54.9083 337.675 55.1532 337.403 55.1052C337.156 55.0618 336.584 55.2486 336.131 55.5204C335.571 55.8563 335.098 55.9841 334.655 55.9194C333.383 55.7337 331.163 56.1575 330.083 56.7917C328.548 57.6935 325.165 59.2633 324.119 59.5591C323.618 59.701 322.438 59.8697 321.496 59.9342C320.149 60.0266 319.534 60.1829 318.604 60.6701C317.815 61.0831 317.083 61.2964 316.4 61.3123C315.837 61.3252 315.46 61.2743 315.561 61.199C315.662 61.1237 314.308 61.0596 312.551 61.0566C310.688 61.0534 309.305 60.979 309.232 60.8778C309.162 60.7826 308.946 60.7046 308.75 60.7046C308.554 60.7046 308.481 60.7688 308.586 60.8473C308.842 61.0378 307.115 62.1012 306.479 62.1441C305.641 62.2006 304.061 62.7419 304.061 62.9727C304.061 63.3121 301.191 64.8969 300.576 64.8969C300.274 64.8969 299.93 64.7816 299.812 64.6404C299.682 64.4837 299.343 64.4212 298.943 64.4795C298.582 64.5322 298.186 64.5 298.062 64.4079C297.732 64.1623 296.692 64.3974 296.917 64.667C297.136 64.9298 296.199 64.9848 295.855 64.7292C295.731 64.637 295.434 64.5641 295.196 64.5671C294.957 64.5703 295.157 64.7242 295.64 64.9092C296.556 65.2598 296.394 65.4902 295.159 65.5934C294.776 65.6254 294.201 65.8942 293.882 66.1908C293.258 66.7717 292.464 67.01 291.946 66.7719C291.396 66.5188 289.86 66.7405 290.108 67.0374C290.278 67.2414 290.144 67.2766 289.495 67.1987C289.039 67.1438 288.273 67.1675 287.793 67.2515C287.242 67.3477 286.92 67.3437 286.92 67.2404C286.92 67.1505 286.679 67.0769 286.384 67.0769C286.09 67.0769 285.196 66.9206 284.399 66.7295C282.411 66.2531 280.939 66.3433 280.787 66.9512C280.663 67.4492 280.471 67.4972 279.626 67.2421C279.14 67.0952 279.14 67.0586 279.626 66.9118C280.378 66.6849 279.451 66.683 278.53 66.9097C278.074 67.0221 277.772 67.0221 277.621 66.9097C277.497 66.8172 277.26 66.7415 277.096 66.7415C276.682 66.7415 275.983 67.5954 276.081 67.9811C276.125 68.1557 275.915 68.3358 275.614 68.3814C275.314 68.427 275.183 68.4074 275.323 68.3376C275.465 68.2679 275.348 68.1042 275.064 67.9737C274.363 67.6514 273.194 67.9872 272.934 68.5857C272.823 68.8422 272.353 69.1073 271.808 69.2215C271.294 69.3294 270.873 69.4999 270.873 69.6007C270.873 69.792 270.157 70.1781 269.692 70.2378C269.544 70.2567 269.167 70.3172 268.855 70.3722C268.544 70.4272 268.193 70.4281 268.076 70.3743C267.662 70.1838 265.731 70.7885 265.374 71.2208C265.098 71.554 264.909 71.6125 264.587 71.4643C263.998 71.1933 263.46 71.2201 263.701 71.5085C263.981 71.8442 263.102 72.1565 262.568 71.9112C262.264 71.7713 261.92 71.7941 261.241 71.9989C260.736 72.151 260.168 72.2754 259.978 72.2754C259.788 72.2754 258.966 72.4763 258.15 72.7219C257.334 72.9674 256.224 73.1901 255.682 73.2166C254.67 73.2663 253.342 73.8021 252.895 74.3412C252.718 74.5548 252.423 74.6142 251.911 74.5396C251.34 74.4562 251.18 74.5089 251.18 74.7795C251.18 74.9702 250.966 75.1262 250.706 75.1262C250.445 75.1262 250.031 75.3819 249.785 75.6946C249.532 76.0169 249.016 76.3017 248.595 76.3523C248.187 76.4015 247.882 76.5418 247.918 76.6642C248.084 77.2267 247.852 77.6415 247.372 77.6415C246.623 77.6415 246.408 77.8679 246.232 78.8405C246.065 79.7675 244.872 80.4923 243.515 80.4923C243.131 80.4923 242.653 80.6338 242.451 80.8067C242.025 81.1735 240.7 81.3799 240.504 81.1101C240.43 81.0085 240.059 81.1673 239.679 81.4634C239.298 81.7594 238.806 82.0015 238.584 82.0015C238.361 82.0015 237.805 82.3465 237.347 82.7682C236.889 83.19 236.244 83.581 235.915 83.6374C235.124 83.7725 232.595 84.7319 232.586 84.8999C232.583 84.9722 232.108 85.2434 231.531 85.5028C230.702 85.8756 230.238 85.9577 229.315 85.8955C227.559 85.777 225.295 86.3278 225.29 86.8748C225.288 87.1111 224.916 87.4862 224.465 87.7083C223.457 88.2048 222.733 88.8241 222.733 89.1912C222.733 89.3429 222.364 89.573 221.912 89.7026C221.106 89.9341 220.639 89.9216 220.818 89.6735C220.868 89.6044 220.592 89.5477 220.204 89.5477C219.706 89.5477 219.465 89.683 219.384 90.0088C219.292 90.3744 219.098 90.4618 218.448 90.4301C217.996 90.4081 217.627 90.4735 217.627 90.5753C217.627 90.6781 217.302 90.7215 216.898 90.6729C216.497 90.6248 216.168 90.6536 216.168 90.7373C216.168 90.8208 215.917 90.8892 215.61 90.8892C215.303 90.8892 214.957 91.0024 214.842 91.1408C214.726 91.2791 214.416 91.3923 214.152 91.3923C213.888 91.3923 213.086 91.7072 212.37 92.0921C211.652 92.4776 210.697 92.8071 210.244 92.8257C209.792 92.8443 208.881 92.9624 208.22 93.0878C207.183 93.2849 206.972 93.282 206.682 93.0669C206.408 92.8631 206.151 92.9248 205.277 93.4046C204.689 93.7274 204.304 94.067 204.423 94.1592C204.541 94.2515 204.375 94.229 204.053 94.1091C203.656 93.961 203.393 93.9483 203.23 94.069C203.07 94.1886 202.745 94.1671 202.238 94.0039C201.58 93.7921 201.381 93.7921 200.675 94.0049C199.776 94.2758 198.231 94.2348 198.013 93.9342C197.936 93.8274 197.68 93.74 197.445 93.74C196.896 93.74 196.044 94.9591 196.502 95.0892C196.691 95.1429 196.604 95.3284 196.304 95.5107C195.972 95.7126 195.764 95.7525 195.757 95.616C195.75 95.4949 195.458 95.4092 195.107 95.4256C193.724 95.4904 193.47 95.4213 193.682 95.0396C193.886 94.6734 193.873 94.6744 193.206 95.0768C192.829 95.3049 192.626 95.569 192.756 95.6638C192.993 95.8373 192.973 96.051 192.621 97.0519C192.43 97.5966 191.369 97.8453 191.369 97.3454C191.369 97.207 191.123 97.0938 190.822 97.0938C190.521 97.0938 190.275 96.9833 190.275 96.8482C190.275 96.7132 189.953 96.5233 189.559 96.4264C189.126 96.3199 188.912 96.1353 189.017 95.9594C189.113 95.7994 188.959 95.8948 188.675 96.1714C188.387 96.4517 188.282 96.7856 188.438 96.926C188.592 97.0645 188.644 97.2719 188.554 97.3873C188.357 97.6397 188.492 97.6452 189.704 97.4334C190.637 97.2702 191.036 97.4643 190.236 97.6918C189.955 97.7718 189.982 97.8501 190.327 97.9507C190.712 98.0629 190.681 98.0955 190.184 98.0975C189.806 98.099 189.545 98.2276 189.545 98.4127C189.545 98.5848 189.242 98.9054 188.87 99.1254C188.499 99.3454 188.262 99.6127 188.343 99.7196C188.581 100.034 187.712 100.169 187.242 99.8896C186.3 99.3303 184.818 99.499 182.358 100.446C182.116 100.539 181.518 100.615 181.029 100.615C180.335 100.615 180.132 100.524 180.102 100.196C180.081 99.9656 180.046 99.5856 180.025 99.3515C179.995 99.0089 179.89 98.9636 179.482 99.1191C179.204 99.225 179.042 99.3599 179.121 99.4187C179.496 99.6983 177.611 100.42 176.301 100.498C175.535 100.544 174.685 100.721 174.411 100.892C174.011 101.141 173.821 101.161 173.45 100.993C173.119 100.842 173.108 100.783 173.414 100.783C173.648 100.783 173.753 100.678 173.646 100.55C173.53 100.411 173.131 100.349 172.654 100.397C172.01 100.461 171.962 100.442 172.404 100.297C172.705 100.198 173.248 100.116 173.611 100.115C173.974 100.113 174.17 100.037 174.046 99.9446C173.722 99.7038 172.406 99.7373 172.399 99.9865C172.395 100.116 172.291 100.132 172.126 100.028C171.978 99.9362 171.529 99.8608 171.128 99.8608C170.727 99.8608 170.434 99.7737 170.478 99.6672C170.588 99.3991 169.605 99.0526 169.123 99.1897C168.906 99.2515 168.836 99.4581 168.967 99.6486C169.155 99.9213 169.08 99.9731 168.617 99.8914C168.293 99.8343 168.028 99.8606 168.028 99.9498C168.028 100.039 168.192 100.112 168.393 100.112C168.895 100.112 168.832 100.305 168.201 100.688C167.882 100.882 167.13 101.031 166.326 101.06C165.588 101.087 164.89 101.168 164.774 101.239C164.658 101.311 163.784 101.367 162.831 101.363C161.879 101.359 161.099 101.408 161.099 101.471C161.099 101.534 160.682 101.633 160.172 101.692C159.663 101.751 159.339 101.869 159.453 101.953C159.567 102.038 159.303 102.196 158.867 102.303C158.24 102.457 158.016 102.45 157.795 102.269C157.3 101.864 155.993 101.23 155.993 101.395C155.993 101.483 156.178 101.639 156.404 101.743C156.645 101.854 156.712 102.121 156.566 102.388C156.369 102.75 156.228 102.8 155.882 102.631C155.543 102.466 155.548 102.401 155.904 102.341C156.411 102.256 156.163 101.957 155.585 101.957C155.385 101.957 155.333 102.04 155.47 102.143C155.638 102.267 155.466 102.291 154.945 102.215C154.47 102.146 154.17 102.175 154.17 102.289C154.17 102.414 153.969 102.425 153.573 102.323C153.203 102.228 152.496 102.238 151.708 102.349C150.691 102.493 150.357 102.48 150.025 102.284C149.582 102.023 147.605 102.039 147.605 102.303C147.605 102.39 147.349 102.46 147.036 102.46C146.724 102.46 146.555 102.395 146.661 102.316C146.767 102.238 146.442 102.209 145.94 102.253C145.373 102.303 144.754 102.221 144.31 102.035C143.916 101.871 143.593 101.801 143.593 101.879C143.593 101.957 143.388 101.903 143.137 101.759C142.887 101.615 141.943 101.414 141.04 101.312C139.685 101.16 139.329 101.17 138.994 101.374C138.772 101.51 138.197 101.62 137.718 101.618L136.846 101.614L137.758 101.269L138.67 100.924L137.64 101.028C136.13 101.179 134.162 100.813 134.385 100.422C134.51 100.202 134.364 100.113 133.88 100.115C133.404 100.117 133.336 100.157 133.655 100.25C134.019 100.357 134.018 100.442 133.648 100.675C133.228 100.939 133.129 100.91 132.598 100.372C132.276 100.045 132.166 99.7769 132.354 99.7769C132.541 99.7769 132.585 99.6949 132.45 99.5946C132.316 99.4943 131.923 99.4462 131.578 99.4878C131.211 99.5319 130.95 99.4682 130.95 99.3347C130.95 99.2089 131.128 99.1036 131.346 99.1006C131.563 99.0974 131.339 98.9413 130.848 98.7535C129.955 98.4119 130.06 98.2714 131.376 98.0418C131.576 98.0069 131.608 97.9135 131.447 97.8344C131.286 97.7552 131.02 97.7904 130.855 97.9125C130.627 98.0822 130.379 98.0909 129.805 97.9496C128.871 97.7198 128.529 97.7138 128.823 97.9323C128.947 98.0245 128.865 98.1 128.641 98.1C128.416 98.1 128.33 98.1721 128.448 98.2603C128.567 98.3485 128.946 98.3792 129.29 98.3284C129.809 98.2519 129.825 98.2658 129.382 98.4099C129.088 98.5056 128.678 98.5214 128.471 98.4451C128.263 98.3688 127.56 98.2539 126.908 98.1899C126.038 98.1043 125.669 98.1374 125.521 98.3141C125.322 98.5534 123.96 98.5759 123.175 98.3529C122.954 98.2901 122.537 98.3292 122.247 98.4397C121.957 98.5502 121.463 98.5952 121.149 98.5397C120.806 98.4791 120.213 98.6059 119.669 98.8563C119.169 99.086 118.641 99.2738 118.494 99.2738C118.347 99.2738 117.926 99.435 117.559 99.632C117.031 99.9154 116.829 99.9431 116.589 99.7643C116.353 99.5893 116.072 99.6441 115.337 100.008C114.769 100.29 114.169 100.44 113.837 100.381C113.524 100.326 113.382 100.355 113.508 100.45C113.631 100.541 113.489 100.615 113.193 100.615C112.897 100.615 112.581 100.71 112.492 100.825C112.279 101.099 111.881 100.922 111.692 100.47C111.604 100.263 111.728 100.112 111.987 100.112C112.232 100.112 112.663 99.9654 112.944 99.786C113.226 99.6064 113.616 99.5049 113.811 99.5602C114.015 99.6184 114.047 99.5732 113.886 99.4528C113.732 99.3382 113.292 99.2824 112.909 99.3283C112.407 99.3887 112.24 99.334 112.312 99.1335C112.379 98.9446 112.163 98.8581 111.643 98.8653C111.097 98.873 110.921 98.7944 111.034 98.595C111.23 98.2504 110.507 98.1055 109.176 98.2226C108.47 98.2846 108.237 98.3854 108.387 98.5643C108.553 98.7629 108.49 98.7768 108.101 98.6282C107.402 98.3616 107.109 98.5635 107.502 99.0396C107.926 99.5515 107.578 99.5411 106.244 99.0017C105.471 98.6894 105.307 98.537 105.642 98.4419C105.894 98.3701 106.042 98.1694 105.969 97.996C105.801 97.5927 103.539 97.4944 103.22 97.8766C103.072 98.0542 102.934 98.0711 102.749 97.9343C102.606 97.8276 102.059 97.7188 101.534 97.6923C101.009 97.6657 100.656 97.701 100.749 97.7708C100.843 97.8406 100.687 98.1506 100.402 98.46C99.9792 98.9187 99.8381 98.9681 99.6353 98.7288C99.4985 98.5673 99.0758 98.4354 98.6962 98.4354C97.8661 98.4354 97.8045 98.2179 98.5529 97.9323C99.295 97.6491 99.2403 97.4723 98.3705 97.3454C97.9693 97.2868 97.6353 97.1119 97.6283 96.9568C97.6189 96.7546 97.4722 96.7935 97.1108 97.0938C96.8333 97.3244 96.4697 97.4941 96.303 97.4711C96.1364 97.4482 96 97.5173 96 97.6249C96 97.9601 95.156 97.9685 94.7702 97.637C94.4627 97.3729 94.0437 97.3284 92.2122 97.3655C90.4285 97.4015 90.059 97.3648 90.2235 97.1679C90.3344 97.035 90.8588 96.9174 91.3891 96.9067C92.0703 96.8929 92.1549 96.8638 91.6783 96.8072C91.1662 96.7467 91.0411 96.61 91.1593 96.2398C91.245 95.9716 91.1713 95.7523 90.9959 95.7523C90.4142 95.7523 88.8978 96.6297 89.1476 96.8215C89.3289 96.9607 89.2556 96.961 88.8672 96.8222C88.578 96.719 87.726 96.5835 86.9736 96.5212C86.2216 96.4588 85.606 96.331 85.606 96.2373C85.606 96.1433 85.319 96.0883 84.9678 96.1148C84.617 96.1415 84.1432 96.1093 83.9156 96.0436C83.6881 95.9778 82.9875 96.0063 82.3591 96.1071C81.7307 96.2079 80.7683 96.2423 80.2201 96.1839C79.5837 96.1158 79.3996 96.1314 79.7103 96.2269C80.1005 96.3468 80.0764 96.3976 79.5892 96.4836C78.6198 96.6546 78.3769 96.6134 78.1144 96.2332C77.9203 95.9523 77.7993 95.9253 77.5483 96.1075C77.3729 96.2349 77.2267 96.2906 77.2234 96.231C77.2205 96.1717 76.6421 96.1828 75.9386 96.2557C74.5057 96.4043 73.8784 96.1407 74.223 95.5346C74.3528 95.3064 74.2781 95.2358 73.9932 95.3168C73.7609 95.3827 73.5709 95.3475 73.5709 95.2386C73.5709 95.0919 73.444 95.0889 73.0815 95.2272C72.8124 95.3299 72.4881 95.3661 72.3609 95.3077C72.2339 95.2492 71.8787 95.2973 71.5717 95.4144C71.2646 95.5316 70.4812 95.6773 69.8306 95.7382C69.0063 95.8155 68.4914 95.9998 68.1322 96.3458C67.6621 96.7987 66.1679 97.4512 66.0417 97.2585C65.9502 97.1186 64.4534 97.8079 64.4534 97.9898C64.4534 98.0851 64.0869 98.4092 63.6387 98.7099C62.8539 99.2364 62.7448 99.2545 60.6992 99.1994C58.3987 99.1373 57.7875 99.0089 58.6288 98.7642C59.0789 98.6334 59.0625 98.6077 58.5271 98.6056C58.1759 98.6042 57.8889 98.6849 57.8889 98.7847C57.8889 98.8846 57.6839 98.9348 57.433 98.8958C57.1824 98.8571 56.7798 99.0396 56.5387 99.3012C56.0493 99.8326 55.4308 99.9178 55.0836 99.5017C54.8947 99.2755 54.6664 99.3275 53.7966 99.7952C52.9341 100.259 52.7816 100.294 52.9683 99.9865C53.1379 99.7068 53.0435 99.6092 52.6036 99.6092C52.2484 99.6092 52.1149 99.5316 52.2707 99.4155C52.4333 99.2946 52.3706 99.2676 52.104 99.3434C51.8691 99.4102 51.7714 99.5349 51.887 99.6208C52.0022 99.7066 51.8819 99.7781 51.6193 99.7794C51.2389 99.7816 51.2426 99.8113 51.6368 99.9261C52.0041 100.033 52.0212 100.102 51.7032 100.192C51.4672 100.259 51.3618 100.418 51.4687 100.546C51.5755 100.674 51.5456 100.764 51.4023 100.745C51.259 100.727 50.7728 100.806 50.3213 100.921C49.531 101.122 49.1051 100.915 49.8655 100.699C50.0661 100.642 50.2258 100.506 50.2203 100.396C50.2152 100.286 49.9311 100.404 49.589 100.657C48.9563 101.126 48.2593 101.248 47.8684 100.957C47.5584 100.727 46.2429 101.288 46.4665 101.556C46.7148 101.853 43.3549 101.765 42.9493 101.464C42.6025 101.205 39.6539 100.926 39.6539 101.151C39.6539 101.236 39.4898 101.259 39.2892 101.202C39.0886 101.145 38.9245 101.183 38.9245 101.286C38.9245 101.389 38.7604 101.427 38.5598 101.37C38.3592 101.313 38.1841 101.365 38.1703 101.486C38.1568 101.607 37.9675 101.535 37.7502 101.328C37.2476 100.849 36.9591 100.853 36.252 101.35C35.9183 101.584 35.2129 101.78 34.5441 101.825C33.5204 101.894 33.4252 101.865 33.6057 101.534C33.7381 101.292 33.5587 101.062 33.0835 100.864C32.5948 100.661 32.3599 100.633 32.3599 100.778C32.3599 100.949 32.2505 100.95 31.8128 100.783C31.4047 100.627 31.2658 100.625 31.2658 100.773C31.2658 100.9 30.8628 100.942 30.1374 100.889C28.8672 100.797 28.2589 100.615 29.2206 100.615C29.5813 100.615 29.7454 100.537 29.605 100.433C29.3023 100.208 26.8894 101.342 26.8894 101.71C26.8894 101.971 25.2457 102.373 24.4277 102.312C24.1768 102.293 23.9718 102.356 23.9718 102.453C23.9718 102.714 23.3507 102.664 23.1177 102.385C22.9886 102.23 23.0903 102.173 23.3967 102.227C23.7497 102.289 23.8292 102.185 23.6939 101.841C23.3624 100.996 22.385 100.679 21.9692 101.281C21.8 101.527 21.5816 101.575 21.1242 101.469C20.7847 101.39 20.0455 101.226 19.4809 101.104C18.8171 100.961 18.5104 100.785 18.6118 100.607C18.7216 100.414 18.3857 100.267 17.4882 100.118C16.3762 99.9334 16.164 99.9411 15.8777 100.177C15.696 100.326 15.323 100.448 15.0491 100.448C14.7748 100.448 14.4772 100.542 14.3875 100.657C14.2982 100.773 14.0804 100.805 13.9043 100.729C13.7252 100.651 13.8733 100.516 14.2394 100.422C14.7467 100.291 14.8007 100.201 14.4783 100.022C14.2496 99.8955 14.1898 99.6939 14.3459 99.5747C14.5542 99.4154 14.4645 99.4194 14.0082 99.5896C13.4987 99.7796 13.4696 99.8676 13.847 100.078C14.2238 100.288 14.2139 100.32 13.793 100.256C13.1307 100.156 10.355 101.4 10.5965 101.689C10.7066 101.821 10.2518 102.024 9.45421 102.199C8.58149 102.391 8.08367 102.427 7.99651 102.307C7.75617 101.976 6.49358 102.117 5.88563 102.544C5.55703 102.774 5.10189 102.962 4.87432 102.961C4.62085 102.959 4.6493 102.903 4.94726 102.816C5.31232 102.709 5.22151 102.644 4.58256 102.553C3.58583 102.411 1.68648 102.287 2.37868 102.409C2.74046 102.473 2.75104 102.547 2.425 102.728C1.87539 103.032 0.995739 103.031 0.995739 102.725C0.995739 102.595 0.804636 102.459 0.571228 102.423C0.33782 102.387 0.738262 102.197 1.4611 102.001C2.37831 101.752 2.82835 101.705 2.95089 101.843C3.04754 101.952 3.13944 101.886 3.15512 101.697C3.17081 101.508 3.38087 101.263 3.62157 101.152C3.96184 100.996 3.92136 100.951 3.43922 100.951C3.09823 100.951 2.81924 101.055 2.81924 101.183C2.81924 101.52 1.10697 102.01 0.861895 101.743C0.730239 101.6 0.551169 101.627 0.268163 101.832C-0.0436558 102.059 -0.295662 102.088 -0.823382 101.958C-1.72346 101.737 -2.69393 101.729 -1.93645 101.949C-1.54658 102.063 -1.70304 102.1 -2.51996 102.09L-3.63631 102.075L-3.87592 98.2848C-4.00757 96.2002 -4.03967 92.5703 -3.94703 90.2184C-3.8544 87.8666 -3.67934 77.0001 -3.55826 66.0707C-3.43681 55.1414 -3.27562 45.6332 -3.20012 44.9415C-3.12427 44.2498 -2.94848 33.8551 -2.80916 21.8419L-2.5557 -7.50313e-06L721.722 5.58153e-05L1446 0.000119134L1445.79 4.90513C1445.67 7.60279 1445.48 14.036 1445.37 19.2009C1445.25 24.3658 1445.07 28.7803 1444.96 29.0109C1444.51 29.978 1443.95 30.3524 1442.97 30.3524C1442.44 30.3524 1441.81 30.4656 1441.56 30.604C1441.31 30.7423 1440.67 30.8567 1440.15 30.858C1438.72 30.8619 1436.4 31.2754 1436.01 31.5972C1435.63 31.9088 1434.16 32.2272 1432.92 32.266C1432.14 32.2906 1430.34 33.1522 1430.53 33.4141C1430.58 33.4878 1430.34 33.5949 1429.98 33.6524C1429.63 33.7098 1428.88 33.9801 1428.32 34.2528C1427.56 34.6266 1427.07 34.7284 1426.36 34.666C1425.84 34.6205 1424.86 34.6539 1424.19 34.7403C1422.81 34.9143 1419.91 36.1165 1419.53 36.6692C1419.4 36.8644 1418.83 37.1108 1418.28 37.2169C1417.72 37.3229 1416.99 37.6187 1416.67 37.8742C1416.34 38.1296 1415.24 38.6949 1414.23 39.1304C1412.63 39.8163 1410.92 41.019 1410.92 41.455C1410.92 41.7758 1409.01 42.9538 1408.27 43.092C1407.82 43.1743 1406.65 43.5864 1405.65 44.0078C1404.66 44.4292 1403.54 44.7739 1403.17 44.7739C1402.81 44.7739 1401.86 44.9249 1401.08 45.1093C1400.29 45.2938 1399.46 45.4447 1399.23 45.4447C1399.01 45.4447 1398.4 45.5956 1397.89 45.7801C1397.38 45.9646 1396.59 46.1155 1396.13 46.1155C1395.67 46.1155 1395.06 46.224 1394.77 46.3568C1394.31 46.5667 1394.19 46.545 1393.84 46.1891C1393.62 45.9641 1393.22 45.7801 1392.96 45.7801C1392.46 45.7801 1391.15 46.3214 1390.36 46.8518C1389.98 47.1087 1389.63 47.147 1388.54 47.0531C1387.8 46.9892 1387.28 46.8765 1387.38 46.8025C1387.48 46.7286 1387.34 46.5297 1387.07 46.3606C1386.61 46.069 1386.51 46.0808 1385.12 46.5875C1383.41 47.207 1383.27 47.2206 1382.61 46.8282C1382.14 46.5503 1382.08 46.552 1381.57 46.8602C1381.26 47.0393 1381.02 47.1243 1381.02 47.0494C1381.02 46.9742 1380.81 46.987 1380.56 47.0775C1380.31 47.1681 1379.54 47.2918 1378.84 47.3527C1377.85 47.4398 1377.67 47.4196 1378.02 47.259C1378.58 47.0037 1378.6 46.6186 1378.06 46.6186C1377.84 46.6186 1377.75 46.7294 1377.86 46.8647C1377.98 47.0001 1377.92 47.1535 1377.74 47.2055C1377.55 47.2575 1377.49 47.4015 1377.59 47.5256C1377.73 47.6858 1377.3 47.7847 1376.12 47.866C1375.2 47.9291 1374.45 48.0515 1374.45 48.138C1374.45 48.2247 1374.29 48.2955 1374.08 48.2955C1373.88 48.2955 1373.97 48.1139 1374.28 47.8919C1374.93 47.4404 1374.53 47.2023 1373.41 47.366C1372.92 47.4372 1372.78 47.5791 1372.91 47.8799C1373.08 48.3037 1372.48 48.4665 1372.14 48.0859C1372 47.9281 1371.86 47.9385 1371.57 48.1278C1371.12 48.4231 1371.06 48.6418 1371.45 48.6047C1371.6 48.5903 1372.13 48.6575 1372.63 48.7543L1373.54 48.9302L1372.62 49.0414C1372.11 49.1024 1371.26 49.0766 1370.73 48.984C1370.16 48.8848 1369.71 48.8784 1369.65 48.9684C1369.58 49.0528 1368.87 49.1586 1368.07 49.2039C1367.27 49.2492 1366.36 49.4217 1366.05 49.5874C1365.29 49.9991 1364.79 50.0511 1361.04 50.1139C1359.99 50.1314 1359.5 50.2097 1359.57 50.3509C1359.63 50.4669 1359.15 50.832 1358.49 51.162C1357.53 51.65 1357.02 51.7672 1355.8 51.7894C1354.97 51.8043 1354.06 51.9027 1353.79 52.0082C1353.39 52.1591 1353.33 52.145 1353.5 51.9416C1353.62 51.7994 1353.54 51.6334 1353.33 51.5725C1353.11 51.5117 1352.94 51.5506 1352.94 51.6591C1352.94 51.7709 1352.63 51.8197 1352.24 51.7719C1351.73 51.711 1351.48 51.7935 1351.33 52.0694C1351.2 52.2943 1350.86 52.4413 1350.5 52.4274C1350.16 52.4145 1349.7 52.5609 1349.49 52.7529C1348.97 53.2159 1348.21 53.0802 1348.41 52.5619C1348.54 52.2384 1348.42 52.1524 1347.84 52.1524C1347.43 52.1524 1347.1 52.2324 1347.1 52.33C1347.1 52.4276 1346.94 52.461 1346.74 52.4039C1346.54 52.3469 1346.37 52.4098 1346.37 52.5438C1346.37 52.6778 1346.13 52.8302 1345.83 52.8827C1345.53 52.9352 1345.38 53.0886 1345.5 53.2238C1345.64 53.4027 1345.5 53.446 1344.98 53.3829C1344.41 53.3143 1344.17 53.421 1343.83 53.8983C1343.59 54.2293 1343.24 54.5001 1343.04 54.5001C1342.84 54.5001 1342.78 54.4298 1342.89 54.344C1343.35 54.0066 1342.26 53.9821 1341.59 54.3146C1341.2 54.5088 1340.47 54.6678 1339.98 54.6678C1339.48 54.6678 1339.08 54.7345 1339.08 54.8162C1339.08 54.8979 1338.48 54.7107 1337.74 54.4005C1336.77 53.9933 1336.27 53.884 1335.95 54.0078C1335.7 54.102 1335.05 54.1273 1334.5 54.0641C1333.69 53.9705 1333.33 54.0393 1332.55 54.4342C1331.46 54.9913 1330.93 55.0748 1329.98 54.8415C1329.12 54.6294 1327.7 55.111 1327.05 55.8359C1326.56 56.3757 1326.14 56.4792 1325.81 56.1351C1325.71 56.0199 1325.69 56.1418 1325.77 56.4063C1325.85 56.686 1325.69 56.9888 1325.39 57.1308C1325.09 57.265 1324.85 57.3207 1324.85 57.2544C1324.85 57.1884 1324.44 57.3391 1323.94 57.5895C1323.43 57.8399 1323.09 58.0991 1323.18 58.1653C1323.27 58.2316 1322.9 58.3025 1322.37 58.3228C1321.83 58.3433 1321.34 58.4338 1321.27 58.5242C1321.2 58.6146 1320.47 58.8385 1319.63 59.0216C1318.79 59.2049 1317.86 59.4267 1317.56 59.5146C1317.26 59.6025 1316.73 59.7152 1316.38 59.765C1316.02 59.8149 1315.74 59.9679 1315.74 60.1049C1315.74 60.2419 1315.3 60.5534 1314.77 60.7971C1313.9 61.1972 1313.72 61.2194 1312.86 61.0262C1312.34 60.9086 1311.42 60.7971 1310.81 60.7783C1310.21 60.7595 1309.19 60.6881 1308.53 60.6197C1307.73 60.5352 1307.35 60.5568 1307.35 60.6869C1307.35 60.803 1307.02 60.8409 1306.52 60.7827C1306.06 60.7299 1304.95 60.7624 1304.05 60.855C1303.03 60.9613 1302.3 60.9646 1302.08 60.864C1301.89 60.7763 1301.19 60.7047 1300.53 60.7047C1299.7 60.7047 1299.33 60.6259 1299.33 60.4532C1299.33 60.0698 1298.56 60.1533 1298.32 60.5618C1298.13 60.9001 1298.09 60.9039 1297.65 60.6251C1297.21 60.3504 1297.16 60.3601 1296.94 60.7562C1296.75 61.111 1296.51 61.1791 1295.56 61.1541C1294.89 61.1365 1294.41 61.2059 1294.41 61.3196C1294.4 61.6592 1293.95 61.7409 1293.23 61.5341C1292.67 61.374 1292.3 61.3899 1291.35 61.6151C1290.67 61.7781 1289.85 61.8495 1289.42 61.7853C1288.85 61.703 1288.72 61.7327 1288.91 61.9025C1289.05 62.0276 1288.81 61.9225 1288.38 61.6689C1287.33 61.055 1286.45 61.0872 1284.12 61.8242C1282.31 62.3994 1281.09 63.1369 1281.09 63.6651C1281.09 63.7892 1280.72 63.9004 1280.27 63.9123C1279.82 63.9241 1279.05 63.9521 1278.56 63.9747C1277.72 64.0134 1277.71 64.0027 1278.36 63.7856C1278.81 63.6345 1278.87 63.5555 1278.55 63.5555C1278.27 63.5555 1278.16 63.5057 1278.29 63.4446C1278.43 63.3838 1278.17 63.2479 1277.72 63.1428C1277.06 62.9892 1276.81 63.0026 1276.47 63.2115C1276.1 63.4337 1275.96 63.4376 1275.55 63.2374C1275.27 63.1002 1275.25 63.0492 1275.5 63.1144C1275.74 63.1755 1276.03 63.1567 1276.14 63.0727C1276.47 62.8304 1275.17 62.6815 1274.82 62.9209C1274.01 63.47 1273.78 63.7428 1273.98 63.8944C1274.11 63.9846 1273.95 64.0586 1273.65 64.0586C1273.27 64.0586 1273.17 63.9631 1273.32 63.7651C1273.54 63.4964 1273.5 63.4934 1272.86 63.7304C1271.74 64.1427 1270.09 64.4818 1269.44 64.4315C1269.12 64.406 1268.49 64.538 1268.06 64.725C1267.62 64.9118 1267.09 65.0647 1266.88 65.0647C1266.67 65.0647 1266.14 65.2312 1265.7 65.4346C1265.26 65.6382 1264.48 65.8109 1263.97 65.8185C1263.41 65.8267 1263.08 65.9189 1263.14 66.0479C1263.2 66.1757 1263.06 66.2137 1262.81 66.1413C1262.01 65.9131 1260.56 65.9265 1260.04 66.1668C1259.76 66.2986 1259.29 66.4062 1259 66.4062C1258.71 66.4062 1258.48 66.5218 1258.48 66.663C1258.48 66.8043 1258.24 66.9621 1257.95 67.014C1257.65 67.0656 1257.31 67.2519 1257.19 67.4278C1257.07 67.6039 1256.8 67.7478 1256.58 67.7478C1256.37 67.7478 1256 67.8643 1255.78 68.0067C1255.53 68.1596 1254.73 68.2772 1253.82 68.294C1252.65 68.3154 1251.82 68.4776 1250.44 68.9585C1248.99 69.4638 1248.57 69.5426 1248.4 69.342C1248.11 68.9949 1247.7 69.0249 1246.82 69.4564C1246.41 69.6581 1246.08 69.7685 1246.08 69.7014C1246.08 69.6342 1245.74 69.7255 1245.32 69.9041C1243.73 70.588 1241.2 70.3593 1242.48 69.6467C1242.93 69.3964 1242.9 69.389 1242.16 69.5708C1241.71 69.6814 1241.34 69.7222 1241.34 69.6616C1241.34 69.6009 1241.09 69.6452 1240.79 69.7601C1240.49 69.875 1240.24 70.1483 1240.24 70.3675C1240.24 70.5868 1240.04 70.7667 1239.79 70.7672C1239.54 70.7679 1238.88 70.8766 1238.33 71.0089C1237.46 71.218 1237.33 71.2178 1237.33 71.0079C1237.33 70.8749 1237.61 70.7651 1237.97 70.7637C1238.44 70.7619 1238.37 70.7039 1237.69 70.537C1236.91 70.345 1236.71 70.35 1236.32 70.5715C1235.76 70.8933 1235.73 71.437 1236.28 71.437C1236.56 71.437 1236.55 71.5148 1236.23 71.6885C1235.56 72.061 1235.26 71.9979 1235.01 71.437C1234.89 71.1603 1234.62 70.9339 1234.42 70.9339C1233.92 70.9339 1233.94 71.3223 1234.45 71.5556C1234.74 71.6914 1234.66 71.7897 1234.12 71.9215C1233.55 72.0617 1233.34 72.0466 1233.18 71.8532C1233.07 71.7166 1232.71 71.6047 1232.39 71.6047C1232.07 71.6047 1231.89 71.6612 1231.98 71.7305C1232.08 71.7996 1231.4 71.8287 1230.48 71.795C1229.19 71.7476 1228.7 71.8022 1228.33 72.0367C1228.06 72.2034 1227.84 72.2582 1227.84 72.1589C1227.84 72.0595 1227.36 71.9456 1226.77 71.9059C1226.01 71.8544 1225.52 71.9334 1225.05 72.1804C1224.69 72.3711 1224.43 72.5835 1224.48 72.6528C1224.52 72.722 1224.4 72.7785 1224.2 72.7785C1224 72.7785 1223.83 72.9202 1223.83 73.0935C1223.83 73.2665 1223.59 73.5021 1223.29 73.617C1222.99 73.7319 1222.74 73.918 1222.74 74.0307C1222.74 74.3171 1221.53 74.7909 1220.8 74.7909C1220.46 74.7909 1220.19 74.8663 1220.19 74.9585C1220.19 75.0508 1219.86 75.1262 1219.46 75.1262C1218.95 75.1262 1218.73 75.0144 1218.73 74.7588C1218.73 74.3998 1218.72 74.3988 1218.19 74.7169C1217.89 74.9002 1217.65 74.9508 1217.64 74.8328C1217.64 74.7174 1217.38 74.6232 1217.06 74.6232C1216.75 74.6232 1216.59 74.6929 1216.7 74.7781C1216.93 74.9453 1215.51 75.441 1213.9 75.7596C1213.34 75.8684 1212.89 76.0264 1212.89 76.1106C1212.89 76.1948 1212.48 76.3112 1211.98 76.369C1211.48 76.4269 1211.07 76.5411 1211.07 76.6229C1211.07 76.7047 1210.74 76.7317 1210.33 76.6828C1209.79 76.618 1209.65 76.505 1209.82 76.2662C1209.99 76.013 1209.89 75.9499 1209.37 75.9893C1209 76.0172 1208.48 75.9769 1208.21 75.8996C1207.93 75.8196 1207.56 75.8324 1207.35 75.9291C1207.12 76.0343 1206.57 76.045 1205.91 75.9571C1205.31 75.8788 1204.56 75.8614 1204.24 75.9182C1203.89 75.981 1203.75 75.9531 1203.89 75.848C1204.02 75.7524 1203.8 75.5391 1203.4 75.3743C1202.63 75.0551 1202.38 75.2555 1203.12 75.5958C1203.43 75.7407 1203.44 75.797 1203.14 75.797C1202.91 75.797 1202.62 75.7224 1202.5 75.6312C1202.36 75.5292 1201.94 75.5659 1201.41 75.7269C1200.75 75.9256 1200.37 75.9454 1199.81 75.8096C1199.41 75.7111 1198.8 75.6806 1198.45 75.742C1197.94 75.8321 1197.86 75.7834 1198.03 75.4891C1198.25 75.0984 1197.88 75.0135 1195.42 74.891C1194.74 74.8569 1194.04 74.7073 1193.86 74.5584C1193.29 74.0948 1192.11 74.2318 1191.67 74.8116C1191.34 75.245 1191.21 75.2884 1190.94 75.0632C1190.52 74.7206 1189.76 74.703 1190.05 75.0424C1190.36 75.4128 1189.63 75.3486 1189.1 74.9585C1188.52 74.5266 1187.73 74.5266 1187.73 74.9585C1187.73 75.143 1187.58 75.2939 1187.4 75.2939C1187.22 75.2939 1187.15 75.143 1187.26 74.9585C1187.36 74.7711 1187.27 74.6232 1187.04 74.6232C1186.82 74.6232 1186.63 74.6986 1186.63 74.7908C1186.63 74.8831 1186.39 74.9585 1186.09 74.9585C1185.79 74.9585 1185.54 74.8819 1185.54 74.7883C1185.54 74.6948 1185.01 74.4687 1184.35 74.2859C1183.7 74.1031 1183.42 73.948 1183.72 73.9412C1184.08 73.9329 1184.02 73.8816 1183.53 73.7889C1183.13 73.7119 1182.41 73.6905 1181.93 73.7413C1181.33 73.8046 1181.14 73.7735 1181.31 73.6415C1181.45 73.5358 1181.38 73.4493 1181.14 73.4493C1180.61 73.4493 1178.7 74.4281 1178.39 74.8618C1178.26 75.0392 1178.01 75.2656 1177.82 75.3649C1177.64 75.4641 1177.27 75.6935 1177 75.8745C1176.58 76.15 1176.41 76.1683 1175.93 75.9865C1175.62 75.8669 1175.04 75.8163 1174.65 75.8738C1174.05 75.9605 1173.96 75.9127 1174.09 75.5943C1174.17 75.383 1174.14 75.3043 1174.03 75.4197C1173.91 75.5349 1173.37 75.6305 1172.84 75.6318C1172.25 75.6335 1172.04 75.6851 1172.3 75.7621C1172.58 75.8436 1172.62 75.9773 1172.41 76.132C1172.14 76.3366 1172.05 76.3294 1171.84 76.0858C1171.71 75.927 1171.44 75.797 1171.25 75.797C1171.06 75.797 1170.65 75.6801 1170.33 75.5371C1169.56 75.1791 1168.66 75.2969 1168.36 75.7978C1168.22 76.0279 1168.09 76.1156 1168.07 75.9927C1168 75.577 1167.18 75.8964 1167.04 76.3937C1166.96 76.665 1166.74 76.9588 1166.55 77.0463C1166.36 77.134 1166.21 77.3792 1166.21 77.5913C1166.21 77.8034 1166.07 77.977 1165.89 77.977C1165.71 77.977 1165.56 77.6757 1165.55 77.3072C1165.53 76.5867 1165.29 76.3001 1164.71 76.3001C1164.51 76.3001 1164.45 76.3789 1164.58 76.4752C1164.71 76.5714 1164.62 76.7599 1164.37 76.8942C1164.13 77.0284 1163.9 77.4387 1163.86 77.806C1163.78 78.601 1163.5 78.7693 1162.75 78.4834C1162.32 78.3177 1162.08 78.3154 1161.67 78.473C1160.91 78.7647 1160.23 79.8065 1160.34 80.5301C1160.45 81.3112 1160.14 81.5878 1159.44 81.3199C1159.15 81.2128 1159.01 81.0582 1159.12 80.9765C1159.23 80.8947 1159.15 80.8278 1158.94 80.8278C1158.73 80.8278 1158.55 80.941 1158.55 81.0793C1158.55 81.2177 1158.37 81.3308 1158.15 81.3308C1157.93 81.3308 1157.34 81.4818 1156.83 81.6662C1155.48 82.153 1154.67 82.0967 1154.41 81.4985C1154.24 81.0989 1154 80.9955 1153.27 80.9955C1152.7 80.9955 1152.35 81.0899 1152.35 81.247C1152.35 81.3853 1152.12 81.4985 1151.84 81.4985C1151.22 81.4985 1150.85 81.9035 1151.12 82.2951C1151.26 82.4873 1151.06 82.4438 1150.57 82.1693C1149.95 81.8262 1149.81 81.8034 1149.81 82.0435C1149.8 82.2049 1149.66 82.337 1149.48 82.337C1148.82 82.337 1147.2 83.2516 1147.37 83.5383C1147.46 83.7008 1147.31 83.9214 1147.03 84.0283C1146.64 84.1767 1146.52 84.1739 1146.52 84.0163C1146.52 83.8798 1146.21 83.8456 1145.61 83.9152C1145.1 83.973 1144.69 83.9529 1144.69 83.8704C1144.69 83.7879 1144.27 83.7205 1143.76 83.7205C1142.7 83.7205 1141.75 84.4699 1142.52 84.6894C1142.8 84.7685 1142.75 84.837 1142.38 84.9035C1142.07 84.9572 1141.77 84.9277 1141.7 84.8376C1141.42 84.4454 1139.38 85.0399 1138.55 85.7562C1138.09 86.1587 1137.52 86.4854 1137.28 86.4822C1134.95 86.451 1134.08 86.5462 1134.15 86.8228C1134.26 87.2289 1133.74 88.0385 1133.36 88.0385C1133.19 88.0385 1132.95 87.7711 1132.81 87.4442C1132.68 87.1176 1132.4 86.8769 1132.18 86.9098C1131.58 87.0022 1130.47 86.405 1130.46 85.9843C1130.46 85.7767 1130.34 85.684 1130.19 85.778C1129.83 86.0103 1128.04 86.3616 1127.22 86.3616C1126.85 86.3616 1126.36 86.4629 1126.14 86.5865C1125.92 86.7102 1125.01 86.8166 1124.13 86.8228C1122.37 86.8348 1120.99 87.0961 1120.99 87.4156C1120.99 87.5276 1120.45 87.898 1119.8 88.2384C1119.15 88.579 1118.32 89.0318 1117.95 89.2446C1117.49 89.5164 1117.35 89.5442 1117.49 89.3381C1117.59 89.1768 1117.52 89.0447 1117.33 89.0447C1117.14 89.0447 1116.98 89.1247 1116.98 89.2223C1116.98 89.3199 1116.79 89.3459 1116.55 89.28C1116.32 89.2139 1115.42 89.1725 1114.55 89.1876C1113.68 89.2027 1112.96 89.1391 1112.96 89.046C1112.96 88.7397 1112.41 88.8696 1111.83 89.3145C1111.36 89.6678 1111.21 89.701 1111.03 89.4871C1110.91 89.3413 1111.05 89.1121 1111.34 88.9776C1111.63 88.8433 1111.87 88.6902 1111.87 88.6374C1111.87 88.4553 1111.19 88.5426 1110.64 88.7955C1110.15 89.0222 1110.05 89.0179 1109.73 88.7549C1109.53 88.5931 1109.25 88.5148 1109.11 88.5809C1108.97 88.6471 1109.02 88.7973 1109.23 88.9149C1109.51 89.0693 1109.45 89.2216 1109 89.4639C1108.16 89.9212 1107.68 89.9428 1105.77 89.6086C1104.47 89.3801 1103.99 89.3618 1103.44 89.5198C1102.66 89.7446 1102.59 89.6688 1103.13 89.2013C1103.35 89.0147 1103.36 88.877 1103.17 88.877C1102.98 88.877 1102.74 88.9902 1102.62 89.1285C1102.31 89.4954 1101.54 89.4373 1101.75 89.0633C1101.85 88.8891 1101.79 88.6437 1101.62 88.5183C1101.4 88.3588 1101.3 88.3516 1101.3 88.4945C1101.3 88.6159 1101.05 88.6553 1100.69 88.5918C1100.28 88.5196 1100.17 88.5488 1100.34 88.6808C1100.49 88.7888 1100.45 88.877 1100.26 88.877C1100.07 88.877 1099.82 88.7638 1099.7 88.6255C1099.59 88.4871 1099.68 88.3739 1099.91 88.3739C1100.14 88.3739 1100.22 88.3255 1100.09 88.2661C1099.96 88.2069 1099.6 88.2554 1099.29 88.3739C1098.98 88.4925 1098.61 88.5352 1098.46 88.469C1098.32 88.4029 1098.49 88.2751 1098.84 88.1853C1099.93 87.9042 1099.53 87.7323 1098.13 87.8779C1097.39 87.9547 1096.69 88.0132 1096.58 88.0082C1095.82 87.9736 1095.4 88.0815 1095.17 88.3704C1094.92 88.6784 1094.83 88.6845 1093.86 88.4542C1092.73 88.1834 1091.24 88.0974 1092.12 88.3533C1092.38 88.4314 1092.59 88.5435 1092.57 88.6023C1092.42 89.1433 1092.59 89.3601 1093.12 89.2667C1093.63 89.1773 1093.64 89.2099 1093.23 89.5127C1092.77 89.856 1092.75 89.8563 1092.27 89.537C1091.99 89.3584 1091.53 89.2124 1091.24 89.2124C1090.95 89.2124 1090.72 89.0992 1090.72 88.9608C1090.72 88.8225 1090.88 88.7093 1091.08 88.7093C1091.28 88.7093 1091.45 88.6338 1091.45 88.5416C1091.45 88.4494 1091.12 88.3739 1090.72 88.3739C1090.32 88.3739 1089.99 88.4782 1089.99 88.6058C1089.99 88.9333 1088.18 88.8609 1086.92 88.4833C1086.19 88.2634 1085.4 88.1923 1084.12 88.2331C1083.13 88.2644 1082.33 88.2284 1082.33 88.1531C1082.33 88.0776 1081.98 88.0664 1081.56 88.1279C1081.14 88.1895 1080.26 88.2398 1079.61 88.2398C1078.96 88.2398 1078.2 88.3025 1077.94 88.3789C1077.67 88.4556 1077.15 88.4453 1076.79 88.3563C1076.35 88.2488 1076.13 88.2527 1076.13 88.368C1076.13 88.4635 1075.97 88.5416 1075.78 88.5416C1075.58 88.5416 1075.52 88.4284 1075.63 88.2901C1075.8 88.0952 1075.55 88.0385 1074.53 88.0385C1073.74 88.0385 1073.25 87.9626 1073.3 87.8499C1073.35 87.7461 1073.19 87.6267 1072.94 87.5844C1072.69 87.5418 1072.48 87.6356 1072.48 87.7935C1072.48 88.0119 1072.37 88.036 1072 87.8953C1071.73 87.794 1071.2 87.7374 1070.81 87.7694C1070.43 87.8014 1069.3 87.8819 1068.31 87.948C1067.29 88.0167 1066 88.2486 1065.31 88.4891C1064.21 88.8746 1064.07 88.8876 1063.53 88.6419C1062.84 88.3226 1062.21 88.3008 1061.61 88.5751C1061.27 88.7316 1061.08 88.7316 1060.74 88.5751C1060.4 88.4187 1060.44 88.3739 1060.92 88.3739C1061.76 88.3739 1061.75 87.7112 1060.9 87.6783C1059.09 87.6077 1058.75 87.6548 1058.05 88.0742C1057.34 88.4985 1057.24 88.5121 1056.5 88.2745C1056.06 88.1343 1055.71 88.0766 1055.71 88.1464C1055.71 88.2161 1055.51 88.1827 1055.27 88.0721C1054.61 87.7697 1054.32 87.823 1053.72 88.3561C1053.4 88.6397 1052.91 88.8314 1052.53 88.8173C1052.04 88.7992 1051.89 88.9047 1051.94 89.2446C1051.99 89.5743 1051.87 89.6712 1051.49 89.6039C1051.14 89.5421 1050.97 89.6277 1050.97 89.8652C1050.97 90.0596 1050.8 90.2185 1050.6 90.2185C1050.4 90.2185 1050.24 90.1047 1050.24 89.9656C1050.24 89.7525 1050.11 89.746 1049.42 89.9237C1048.97 90.0398 1048.35 90.2479 1048.05 90.3862C1047.27 90.7375 1045.97 91.057 1045.32 91.057C1045.01 91.057 1044.77 91.1232 1044.77 91.2044C1044.77 91.2869 1044.04 91.2802 1043.11 91.1893C1041.95 91.0753 1041.31 91.0828 1040.96 91.2146C1040.66 91.3292 1039.89 91.3598 1038.99 91.2934C1037.86 91.2101 1037.36 91.251 1036.89 91.4682C1036.5 91.6478 1035.97 91.7165 1035.44 91.6555C1034.98 91.6025 1033.74 91.6436 1032.7 91.7467C1030.6 91.9536 1029.36 92.4373 1028.67 93.3259C1028.39 93.6698 1028.05 93.8437 1027.75 93.79C1027.45 93.7381 1027.26 93.8236 1027.26 94.0072C1027.26 94.2428 1027.16 94.2654 1026.82 94.109C1026.15 93.8016 1025.85 93.8605 1025.07 94.4528C1024.6 94.8088 1024.34 94.8973 1024.34 94.7078C1024.34 94.4596 1024.21 94.4454 1023.43 94.609C1022.93 94.714 1022.52 94.8634 1022.52 94.9409C1022.52 95.0182 1022.32 95.0816 1022.09 95.0816C1021.85 95.0816 1021.27 95.2456 1020.81 95.4462C1020.16 95.726 1019.97 95.7517 1019.97 95.557C1019.97 95.2892 1018.27 94.8309 1017.51 94.8916C1017.25 94.9122 1017.15 94.8227 1017.27 94.6813C1017.42 94.5022 1017.28 94.4588 1016.75 94.5215C1016.36 94.569 1015.93 94.5257 1015.79 94.4254C1015.42 94.1504 1014.85 94.2068 1015.09 94.4947C1015.24 94.676 1015.06 94.7429 1014.44 94.7345C1013.65 94.7236 1013.64 94.713 1014.31 94.5916C1015.02 94.4645 1015.02 94.4568 1014.23 94.3409C1013.78 94.2753 1013.24 94.2686 1013.04 94.326C1012.84 94.3835 1012.67 94.3456 1012.67 94.2418C1012.67 94.1378 1012.39 94.0946 1012.03 94.1455C1011.68 94.1965 1010.61 94.2517 1009.65 94.2681C1007.83 94.2993 1007.11 94.5109 1007.98 94.7623C1008.35 94.8708 1008.26 94.9094 1007.65 94.9114C1007.12 94.9129 1006.67 95.0672 1006.4 95.3387C1006.17 95.5723 1005.72 95.7522 1005.41 95.7386C1004.33 95.6922 1003.35 95.7747 1003.86 95.8684C1004.2 95.9308 1004.09 96.0193 1003.5 96.159C1002.58 96.3753 1002.46 97.0498 1003.29 97.2936C1003.6 97.3845 1003.54 97.4249 1003.1 97.4268C1002.71 97.4283 1002.46 97.5574 1002.46 97.7528C1002.46 97.9305 1002.21 98.1893 1001.91 98.3276C1001.61 98.466 1001.37 98.6444 1001.37 98.7239C1001.37 99.0002 998.96 100.029 998.25 100.056C997.858 100.071 997.127 100.129 996.625 100.186C995.757 100.285 995.752 100.282 996.534 100.122C997.522 99.9215 997.557 99.801 996.716 99.5073C995.887 99.2179 995.698 99.2213 995.009 99.5379C994.487 99.7782 994.415 99.7782 994.215 99.5379C993.902 99.1627 992.978 99.2102 992.978 99.6014C992.978 100.057 992.192 100.834 991.527 101.035C990.989 101.197 990.771 101.226 989.766 101.267C989.503 101.277 989.39 101.362 989.514 101.454C989.638 101.546 989.524 101.623 989.262 101.624C988.97 101.626 988.926 101.675 989.149 101.75C989.881 101.997 989.759 102.46 988.961 102.46C988.539 102.46 988.284 102.527 988.393 102.608C988.64 102.792 987.238 103.634 986.684 103.634C986.461 103.634 985.863 103.804 985.354 104.011C984.651 104.298 984.559 104.311 984.966 104.064C985.451 103.77 985.441 103.749 984.864 103.849C984.038 103.991 982.887 103.807 983.505 103.632C984.056 103.475 983.62 102.795 982.969 102.795C982.706 102.795 982.287 102.682 982.037 102.544C981.418 102.201 981.037 102.228 980.755 102.637C980.573 102.9 980.404 102.938 980.032 102.796C979.658 102.653 979.398 102.727 978.89 103.122C978.529 103.404 977.94 103.634 977.582 103.634C977.224 103.634 976.639 103.766 976.281 103.927C975.436 104.309 974.061 104.342 974.269 103.975C974.353 103.829 974.042 103.509 973.579 103.264C972.908 102.909 972.367 102.811 970.903 102.777C969.149 102.737 967.91 102.922 964.497 103.733C963.807 103.897 963.029 103.919 961.623 103.817C960.254 103.718 959.436 103.738 958.807 103.888C958.141 104.047 957.659 104.054 956.868 103.917C956.024 103.771 955.686 103.786 955.159 103.997C954.322 104.332 951.976 104.501 951.461 104.264C951.193 104.141 950.92 104.138 950.597 104.255C949.49 104.657 946.401 104.84 946.134 104.52C946.036 104.401 945.784 104.305 945.576 104.305C945.339 104.305 945.367 104.43 945.652 104.64C945.903 104.825 946.322 104.975 946.583 104.975C946.859 104.975 946.675 105.152 946.148 105.395C945.646 105.625 945.115 105.814 944.966 105.814C944.817 105.814 944.249 106.011 943.702 106.252L942.708 106.689L942.998 106.098C943.241 105.604 943.182 105.494 942.635 105.428C942.276 105.385 941.804 105.431 941.586 105.532C941.302 105.662 941.191 105.633 941.191 105.428C941.191 105.05 940.722 105.068 939.915 105.479C939.552 105.663 938.952 105.814 938.582 105.814C938.211 105.814 937.909 105.894 937.909 105.993C937.909 106.091 937.457 106.148 936.906 106.118C936.354 106.089 935.903 105.977 935.903 105.87C935.903 105.762 935.78 105.618 935.629 105.548C935.479 105.479 935.356 105.521 935.356 105.641C935.356 105.761 935.016 105.66 934.6 105.417C933.683 104.881 933.237 104.86 932.854 105.336C932.614 105.634 932.457 105.519 931.939 104.67C931.595 104.106 931.156 103.6 930.964 103.546C930.772 103.491 930.615 103.294 930.615 103.107C930.615 102.906 930.428 102.799 930.159 102.844C929.908 102.887 929.751 103.015 929.809 103.13C929.881 103.271 929.702 103.299 929.262 103.214C927.87 102.945 927.06 102.945 926.48 103.211C925.963 103.449 925.682 103.46 924.508 103.286C923.755 103.175 922.789 103.011 922.361 102.922C921.304 102.702 919.374 102.914 917.941 103.409C917.29 103.634 916.756 103.768 916.756 103.706C916.756 103.644 916.527 103.68 916.248 103.787C915.872 103.93 915.747 104.408 915.768 105.61L915.797 107.239L914.18 107.297C913.29 107.328 912.044 107.366 911.411 107.38C910.779 107.395 910.355 107.476 910.469 107.561C910.584 107.647 910.394 107.666 910.039 107.603C909.689 107.541 909.129 107.49 908.794 107.488C908.352 107.486 908.31 107.449 908.643 107.352C909.27 107.169 909.092 106.282 908.451 106.395C908.184 106.442 908.061 106.41 908.177 106.324C908.293 106.237 908.051 106.083 907.639 105.982C907.226 105.88 906.984 105.726 907.1 105.64C907.217 105.553 907.058 105.527 906.748 105.582C906.438 105.637 906.264 105.741 906.362 105.814C906.46 105.887 906.289 105.991 905.981 106.045C905.654 106.103 905.445 106.058 905.479 105.937C905.605 105.487 905.426 105.326 904.906 105.417C904.606 105.47 904.451 105.581 904.562 105.664C904.927 105.935 904.12 105.821 903.265 105.48C902.474 105.164 902.401 105.162 901.959 105.438C901.514 105.716 901.479 105.715 901.243 105.437C900.958 105.098 900.352 105.043 900.33 105.353C900.309 105.655 898.219 106.737 897.921 106.6C897.783 106.536 897.903 106.483 898.187 106.482C898.63 106.48 898.63 106.458 898.184 106.328C897.826 106.224 897.302 106.304 896.508 106.582C895.872 106.805 895.178 106.988 894.965 106.988C894.752 106.988 894.659 107.13 894.758 107.304C894.857 107.478 894.759 107.671 894.541 107.733C894.305 107.801 894.145 107.707 894.145 107.501C894.145 107.306 893.907 107.155 893.598 107.155C893.297 107.155 893.051 107.08 893.051 106.988C893.051 106.776 892.658 106.778 891.957 106.993C891.482 107.14 891.501 107.194 892.101 107.405C892.482 107.538 892.933 107.608 893.104 107.559C893.275 107.511 893.415 107.551 893.415 107.649C893.415 107.746 893.005 107.826 892.504 107.826C891.98 107.826 891.592 107.73 891.592 107.599C891.592 107.474 891.223 107.189 890.771 106.966C890.279 106.723 890 106.404 890.073 106.169C890.156 105.899 890.043 105.801 889.708 105.855C889.44 105.898 889.244 106.058 889.272 106.209C889.307 106.402 889.008 106.491 888.269 106.506C887.69 106.517 887.092 106.542 886.942 106.561C885.045 106.801 884.663 106.89 884.663 107.09C884.663 107.218 884.498 107.323 884.298 107.323C884.097 107.323 883.933 107.451 883.933 107.608C883.933 107.83 883.836 107.849 883.496 107.692C882.888 107.413 882.474 107.441 882.474 107.762C882.474 107.939 882.25 108.006 881.825 107.955C881.112 107.869 880.693 108.032 880 108.665C879.575 109.053 879.553 109.031 879.701 108.357C879.858 107.641 879.846 107.631 878.888 107.741C878.353 107.802 877.657 107.96 877.34 108.091C877.023 108.222 876.592 108.329 876.382 108.329C876.171 108.329 875.793 108.443 875.541 108.583C875.193 108.776 874.964 108.791 874.585 108.646C874.078 108.453 873.912 108.605 874.059 109.126C874.092 109.241 873.865 109.335 873.555 109.335C873.246 109.335 873.033 109.242 873.083 109.128C873.199 108.864 871.104 108.952 870.713 109.227C870.517 109.365 870.338 109.348 870.08 109.168C869.883 109.029 869.719 108.988 869.715 109.076C869.712 109.163 869.513 109.144 869.272 109.034C868.621 108.734 867.01 108.79 866.125 109.143C865.697 109.314 865.437 109.495 865.547 109.545C865.657 109.596 865.449 109.626 865.084 109.612C864.72 109.598 864.463 109.681 864.513 109.797C864.567 109.92 864.193 110.014 863.601 110.025C862.406 110.049 862.412 110.048 859.863 110.299C857.469 110.534 855.531 110.476 855.089 110.155C854.822 109.961 854.767 109.964 854.76 110.174C854.755 110.312 854.348 110.511 853.854 110.617C853.123 110.773 852.721 110.75 851.682 110.494C850.315 110.157 849.495 110.21 848.452 110.704C847.648 111.084 847.099 111.1 847.099 110.743ZM803.964 109.503C803.931 109.302 803.648 109.168 803.257 109.168C802.457 109.168 802.444 109.237 803.178 109.575C803.923 109.917 804.03 109.907 803.964 109.503ZM782.187 108.455C782.192 108.15 782.261 108.126 782.547 108.329C783.004 108.654 783.004 108.832 782.547 108.832C782.346 108.832 782.185 108.663 782.187 108.455ZM798.411 108.665C798.535 108.572 798.463 108.497 798.25 108.497C798.038 108.497 797.864 108.572 797.864 108.665C797.864 108.757 797.936 108.832 798.025 108.832C798.114 108.832 798.287 108.757 798.411 108.665ZM801.876 107.994C800.901 107.643 799.688 107.55 799.688 107.826C799.688 107.918 800.006 107.994 800.395 107.994C800.785 107.994 801.205 108.069 801.329 108.162C801.453 108.254 801.832 108.328 802.171 108.326C802.652 108.323 802.588 108.25 801.876 107.994ZM877.733 107.659C878.034 107.569 878.116 107.496 877.916 107.496C877.715 107.496 877.305 107.569 877.004 107.659C876.703 107.748 876.621 107.821 876.822 107.821C877.022 107.821 877.432 107.748 877.733 107.659ZM791.664 107.006C791.664 106.923 791.445 106.817 791.178 106.77C790.91 106.723 790.692 106.79 790.692 106.92C790.692 107.049 790.91 107.155 791.178 107.155C791.445 107.155 791.664 107.088 791.664 107.006ZM885.991 106.401C886.477 106.177 886.454 106.149 885.783 106.149C885.354 106.149 885.027 106.258 885.027 106.401C885.027 106.539 885.121 106.652 885.236 106.652C885.35 106.652 885.69 106.539 885.991 106.401ZM894.437 105.948C894.969 105.703 895.004 105.479 894.509 105.479C894.309 105.479 894.145 105.585 894.145 105.716C894.145 105.847 893.94 105.992 893.689 106.038C893.438 106.085 893.405 106.129 893.616 106.136C893.827 106.143 894.196 106.059 894.437 105.948ZM892.716 105.814C893.271 105.814 893.092 105.354 892.495 105.249C891.824 105.13 890.317 105.751 890.977 105.874C891.215 105.919 891.628 105.923 891.895 105.884C892.162 105.846 892.532 105.814 892.716 105.814ZM945.203 105.395C945.203 105.256 945.138 105.143 945.059 105.143C944.981 105.143 944.822 105.256 944.706 105.395C944.591 105.533 944.655 105.646 944.849 105.646C945.044 105.646 945.203 105.533 945.203 105.395ZM717.63 103.298C717.63 103.206 717.476 103.131 717.287 103.131C717.098 103.131 716.842 103.206 716.719 103.298C716.594 103.391 716.749 103.466 717.062 103.466C717.374 103.466 717.63 103.391 717.63 103.298ZM987.445 103.115C987.985 102.717 987.801 102.54 986.998 102.682C986.7 102.734 986.482 102.932 986.513 103.122C986.584 103.56 986.844 103.558 987.445 103.115ZM988.237 102.209C988.237 102.07 988.091 101.957 987.912 101.957C987.732 101.957 987.491 102.07 987.376 102.209C987.248 102.362 987.375 102.46 987.701 102.46C987.996 102.46 988.237 102.347 988.237 102.209ZM24.869 101.842C24.5572 101.699 24.2041 101.627 24.0849 101.681C23.769 101.826 24.7238 102.306 25.11 102.196C25.2895 102.145 25.1808 101.986 24.869 101.842ZM685.354 102.125C685.478 102.032 685.416 101.957 685.215 101.957C685.014 101.957 684.749 102.032 684.625 102.125C684.501 102.217 684.564 102.292 684.764 102.292C684.965 102.292 685.23 102.217 685.354 102.125ZM22.1483 101.799C22.1483 101.712 22.3106 101.595 22.509 101.539C22.7154 101.48 22.7767 101.547 22.6523 101.697C22.4098 101.987 22.1483 102.04 22.1483 101.799ZM171.997 101.768C171.973 101.641 171.977 101.449 172.006 101.341C172.035 101.232 171.891 101.096 171.685 101.037C171.036 100.853 171.279 100.643 172.036 100.734C172.435 100.782 172.667 100.891 172.551 100.977C172.436 101.063 172.522 101.233 172.742 101.355C173.04 101.52 173.001 101.631 172.591 101.788C172.145 101.958 172.031 101.954 171.997 101.768ZM988.459 101.543C988.328 101.133 987.977 101.084 987.771 101.447C987.648 101.664 987.753 101.789 988.057 101.789C988.321 101.789 988.502 101.678 988.459 101.543ZM-0.827759 101.454C-0.827759 101.362 -0.89997 101.286 -0.988592 101.286C-1.07721 101.286 -1.25081 101.362 -1.37481 101.454C-1.49881 101.546 -1.42623 101.622 -1.21397 101.622C-1.00172 101.622 -0.827759 101.546 -0.827759 101.454ZM39.6539 101.454C39.6539 101.241 40.7607 101.241 41.4774 101.454C41.8924 101.577 41.7385 101.617 40.8392 101.619C40.1874 101.62 39.6539 101.546 39.6539 101.454ZM44.5277 101.371C44.4125 101.233 44.1543 101.167 43.953 101.224C43.7283 101.288 43.7783 101.384 44.0824 101.472C44.7465 101.666 44.7692 101.661 44.5277 101.371ZM161.237 100.86C161.41 100.652 161.604 100.638 162.219 100.789C163.233 101.039 163.608 100.846 162.713 100.535C161.93 100.263 160.369 100.195 160.369 100.434C160.369 100.519 160.27 100.707 160.148 100.853C160.007 101.022 160.125 101.118 160.474 101.118C160.775 101.118 161.118 101.002 161.237 100.86ZM175.189 100.868C175.305 100.73 175.545 100.659 175.725 100.71C176.24 100.856 176.106 101.118 175.516 101.118C175.19 101.118 175.062 101.02 175.189 100.868ZM42.5715 100.783C42.5715 100.691 42.4074 100.615 42.2068 100.615C42.0062 100.615 41.8421 100.691 41.8421 100.783C41.8421 100.875 42.0062 100.951 42.2068 100.951C42.4074 100.951 42.5715 100.875 42.5715 100.783ZM167.663 100.413C167.663 100.288 167.097 100.215 166.478 100.26C165.893 100.303 166.241 99.9656 166.843 99.9077C167.387 99.8551 167.356 99.8145 166.629 99.6302C165.654 99.3832 165.537 99.4092 165.371 99.9085C165.305 100.108 165.137 100.324 164.998 100.387C164.86 100.451 164.746 100.594 164.746 100.704C164.746 100.856 165.1 100.861 166.205 100.725C167.007 100.627 167.663 100.486 167.663 100.413ZM165.111 100.206C165.111 100.029 164.411 99.9547 164.202 100.11C164.077 100.203 164.229 100.28 164.542 100.28C164.854 100.28 165.111 100.247 165.111 100.206ZM135.935 99.9446C135.935 99.8524 135.688 99.7769 135.387 99.7769C135.087 99.7769 134.84 99.8524 134.84 99.9446C134.84 100.037 135.087 100.112 135.387 100.112C135.688 100.112 135.935 100.037 135.935 99.9446ZM161.828 99.9446C161.828 99.8524 161.674 99.7769 161.485 99.7769C161.296 99.7769 161.04 99.8524 160.916 99.9446C160.792 100.037 160.947 100.112 161.26 100.112C161.572 100.112 161.828 100.037 161.828 99.9446ZM108.582 99.6983C108.582 99.5487 108.796 99.4898 109.127 99.5482C109.427 99.6012 109.581 99.7118 109.47 99.7945C109.152 100.031 108.582 99.9696 108.582 99.6983ZM134.315 98.9762C134.196 98.9217 133.922 98.9582 133.707 99.0573C133.427 99.1861 133.453 99.351 133.801 99.6332L134.288 100.028L134.409 99.552C134.476 99.2899 134.433 99.0308 134.315 98.9762ZM162.158 99.3158C161.89 99.1543 161.631 98.9945 161.584 98.9604C161.537 98.9264 161.246 99.0146 160.937 99.1566C160.331 99.4353 160.647 99.5705 161.964 99.596C162.558 99.6075 162.584 99.571 162.158 99.3158ZM177.247 99.272C178.079 98.8249 178.039 98.7511 177.054 98.9185C176.603 98.9953 176.024 99.0367 175.769 99.0107C175.513 98.9849 175.463 99.0005 175.657 99.0458C175.852 99.0909 175.92 99.2361 175.81 99.3686C175.509 99.7291 176.522 99.661 177.247 99.272ZM167.299 99.3676C167.299 99.1907 166.599 99.1162 166.391 99.2711C166.265 99.3649 166.418 99.4415 166.73 99.4415C167.043 99.4415 167.299 99.4083 167.299 99.3676ZM129.37 99.0223C128.998 98.8162 129.023 98.7708 129.508 98.7708C129.833 98.7708 130.099 98.8839 130.099 99.0223C130.099 99.1606 130.037 99.2738 129.962 99.2738C129.886 99.2738 129.62 99.1606 129.37 99.0223ZM114.053 98.8645C114.053 98.7315 113.888 98.5762 113.688 98.5192C113.487 98.4622 113.323 98.571 113.323 98.7609C113.323 98.9507 113.487 99.1061 113.688 99.1061C113.888 99.1061 114.053 98.9975 114.053 98.8645ZM169.753 98.8372C169.632 98.7815 169.317 98.7755 169.054 98.8239C168.763 98.8774 168.849 98.9172 169.274 98.9252C169.659 98.9324 169.874 98.8928 169.753 98.8372ZM173.991 98.6923C174.104 98.5569 174.039 98.4015 173.847 98.347C173.655 98.2925 173.499 98.2839 173.499 98.3279C173.499 98.372 173.399 98.5273 173.277 98.6732C173.155 98.8191 173.22 98.9384 173.421 98.9384C173.621 98.9384 173.878 98.8276 173.991 98.6923ZM180.701 97.8617C180.701 97.5862 180.54 97.4842 180.2 97.5443C179.924 97.5931 179.698 97.6657 179.698 97.7057C179.698 97.7673 180.516 98.2419 180.656 98.2613C180.681 98.2648 180.701 98.0851 180.701 97.8617ZM102.747 97.1914C102.747 97.1529 102.647 97.0019 102.526 96.856C102.213 96.4812 101.653 96.5264 101.653 96.9261C101.653 97.1124 101.896 97.2615 102.2 97.2615C102.501 97.2615 102.747 97.23 102.747 97.1914ZM180.083 96.8423C180.054 96.5934 179.238 96.6391 179.049 96.9003C178.946 97.0413 179.113 97.1041 179.494 97.068C179.828 97.036 180.093 96.9345 180.083 96.8423ZM76.8532 95.92C77.2978 95.7878 77.2507 95.757 76.6012 95.7548C76.1618 95.7535 75.7008 95.8277 75.5768 95.92C75.2898 96.1335 76.1348 96.1335 76.8532 95.92ZM1014.85 94.0335C1014.85 93.9182 1014.71 93.7233 1014.54 93.6002C1014.3 93.4219 1014.18 93.4335 1014 93.6572C1013.87 93.8117 1013.86 94.0067 1013.97 94.0905C1014.27 94.3146 1014.86 94.2765 1014.85 94.0335ZM624.05 91.2899C624.215 91.092 624.12 91.0471 623.695 91.1222C623.375 91.1785 622.953 91.2246 622.757 91.2246C622.561 91.2246 622.502 91.3001 622.626 91.3923C622.973 91.6506 623.799 91.5911 624.05 91.2899ZM625.726 90.0508C626.198 89.9108 626.188 89.888 625.656 89.8856C625.317 89.8843 624.938 89.9586 624.814 90.0508C624.529 90.2631 625.012 90.2631 625.726 90.0508ZM618.333 89.7818C618.212 89.7261 617.897 89.7201 617.634 89.7686C617.343 89.8221 617.43 89.8618 617.855 89.8699C618.239 89.8771 618.454 89.8375 618.333 89.7818ZM617.978 89.3381C617.896 89.2227 617.452 89.1032 616.992 89.0723C616.264 89.0233 616.221 89.0492 616.656 89.2756C617.258 89.588 618.188 89.6321 617.978 89.3381ZM1107.68 89.3801C1107.55 89.2878 1107.2 89.2124 1106.9 89.2124C1106.6 89.2124 1106.46 89.2878 1106.58 89.3801C1106.71 89.4723 1107.05 89.5478 1107.35 89.5478C1107.66 89.5478 1107.8 89.4723 1107.68 89.3801ZM1054.98 88.6994C1054.98 88.6018 1055.14 88.5684 1055.34 88.6255C1055.54 88.6825 1055.71 88.7623 1055.71 88.803C1055.71 88.8438 1055.54 88.877 1055.34 88.877C1055.14 88.877 1054.98 88.797 1054.98 88.6994ZM1074.31 88.5317C1074.31 88.4341 1074.47 88.4007 1074.67 88.4578C1074.87 88.5148 1075.04 88.5946 1075.04 88.6353C1075.04 88.6761 1074.87 88.7093 1074.67 88.7093C1074.47 88.7093 1074.31 88.6293 1074.31 88.5317ZM1103.12 88.5416C1103.12 88.4494 1102.95 88.3739 1102.75 88.3739C1102.55 88.3739 1102.39 88.4494 1102.39 88.5416C1102.39 88.6338 1102.55 88.7093 1102.75 88.7093C1102.95 88.7093 1103.12 88.6338 1103.12 88.5416ZM1064.72 88.2062C1064.77 87.9557 1064.55 87.8708 1063.89 87.8708C1063.4 87.8708 1063 87.7977 1063 87.7083C1063 87.6191 1062.76 87.5886 1062.46 87.6409C1061.87 87.7451 1062.18 87.9349 1063.56 88.3221C1064.55 88.5991 1064.66 88.5882 1064.72 88.2062ZM1070.53 88.2901C1070.64 88.1517 1070.8 88.0385 1070.88 88.0385C1070.96 88.0385 1071.02 88.1517 1071.02 88.2901C1071.02 88.4284 1070.86 88.5416 1070.67 88.5416C1070.48 88.5416 1070.41 88.4284 1070.53 88.2901ZM1071.39 88.4757C1071.39 88.3166 1072.48 88.2364 1072.68 88.3813C1072.79 88.4695 1072.55 88.5416 1072.14 88.5416C1071.73 88.5416 1071.39 88.5119 1071.39 88.4757ZM1077.59 87.7969C1077.59 87.7561 1077.42 87.6763 1077.22 87.6193C1077.02 87.5623 1076.86 87.5957 1076.86 87.6933C1076.86 87.7908 1077.02 87.8708 1077.22 87.8708C1077.42 87.8708 1077.59 87.8376 1077.59 87.7969ZM604.573 86.5293C604.573 86.437 604.399 86.3616 604.187 86.3616C603.975 86.3616 603.902 86.437 604.026 86.5293C604.15 86.6215 604.324 86.697 604.413 86.697C604.501 86.697 604.573 86.6215 604.573 86.5293ZM584.515 85.02C585.229 84.8077 585.712 84.8077 585.427 85.02C585.303 85.1123 584.924 85.1865 584.585 85.1852C584.053 85.1829 584.043 85.16 584.515 85.02ZM583.421 84.2012C583.421 84.1197 583.759 84.0124 584.171 83.9627C584.808 83.8863 584.852 83.9111 584.462 84.1271C584.07 84.3441 584.132 84.3729 584.884 84.3234C585.547 84.2798 585.825 84.1289 586.008 83.7132C586.207 83.2633 586.143 83.1658 585.657 83.1875C584.361 83.2452 583.786 83.1642 583.786 82.9239C583.786 82.7855 583.639 82.6723 583.459 82.6723C583.28 82.6723 583.129 82.842 583.124 83.0496C583.119 83.2572 583 83.6346 582.861 83.8881C582.697 84.1856 582.751 84.3493 583.013 84.3493C583.238 84.3493 583.421 84.2825 583.421 84.2012ZM1149.92 83.0916C1149.92 82.9533 1150.06 82.8401 1150.22 82.8401C1150.39 82.8401 1150.53 82.9533 1150.53 83.0916C1150.53 83.23 1150.39 83.3432 1150.22 83.3432C1150.06 83.3432 1149.92 83.23 1149.92 83.0916ZM580.07 83.0609C580.333 83.0124 580.648 83.0184 580.769 83.0741C580.89 83.1298 580.675 83.1694 580.291 83.1622C579.866 83.1541 579.779 83.1144 580.07 83.0609ZM244.452 79.333C244.317 79.2328 244.012 79.1568 243.773 79.164C243.438 79.1742 243.438 79.1959 243.774 79.2588C244.013 79.3035 244.112 79.4674 243.994 79.6228C243.825 79.8433 243.879 79.8626 244.238 79.7104C244.491 79.6032 244.587 79.4333 244.452 79.333ZM247.35 77.9769C247.474 77.8847 247.648 77.8092 247.736 77.8092C247.825 77.8092 247.897 77.8847 247.897 77.9769C247.897 78.0692 247.723 78.1446 247.511 78.1446C247.299 78.1446 247.226 78.0692 247.35 77.9769ZM246.438 77.1945C246.438 77.0266 246.235 76.9709 245.862 77.0367C245.544 77.0927 245.103 77.1385 244.88 77.1385C244.658 77.1385 244.792 77.2449 245.18 77.3751C245.976 77.6429 246.438 77.5766 246.438 77.1945ZM1231.49 71.1016C1231.49 71.0094 1231.33 70.9339 1231.13 70.9339C1230.93 70.9339 1230.76 71.0094 1230.76 71.1016C1230.76 71.1939 1230.93 71.2693 1231.13 71.2693C1231.33 71.2693 1231.49 71.1939 1231.49 71.1016ZM1233.68 70.9599C1233.68 70.7897 1233.36 70.5194 1232.98 70.3591C1232.31 70.0809 1232.26 70.0841 1231.86 70.4277C1231.54 70.7008 1231.55 70.8457 1231.88 71.0285C1232.51 71.378 1233.68 71.3334 1233.68 70.9599ZM1237.72 69.714C1237.67 69.5134 1237.17 69.5523 1237.02 69.7685C1236.94 69.8791 1237.07 69.9395 1237.31 69.9026C1237.55 69.8657 1237.73 69.7809 1237.72 69.714ZM1239.15 69.4247C1239.15 69.3325 1238.86 69.2582 1238.51 69.2595C1237.97 69.2617 1237.95 69.2859 1238.42 69.4247C1239.11 69.6293 1239.15 69.6293 1239.15 69.4247ZM1241.7 69.4247C1241.7 69.3325 1241.53 69.257 1241.32 69.257C1241.1 69.257 1241.03 69.3325 1241.16 69.4247C1241.28 69.5169 1241.45 69.5924 1241.54 69.5924C1241.63 69.5924 1241.7 69.5169 1241.7 69.4247ZM543.851 69.2569C543.975 69.1647 543.912 69.0893 543.712 69.0893C543.511 69.0893 543.246 69.1647 543.122 69.2569C542.998 69.3492 543.06 69.4246 543.261 69.4246C543.461 69.4246 543.727 69.3492 543.851 69.2569ZM288.744 67.58C288.744 67.4878 288.918 67.4123 289.13 67.4123C289.342 67.4123 289.415 67.4878 289.291 67.58C289.167 67.6722 288.993 67.7477 288.904 67.7477C288.816 67.7477 288.744 67.6722 288.744 67.58ZM525.069 62.2977C525.069 62.1594 525.004 62.0462 524.926 62.0462C524.847 62.0462 524.688 62.1594 524.572 62.2977C524.457 62.4361 524.521 62.5493 524.716 62.5493C524.91 62.5493 525.069 62.4361 525.069 62.2977ZM1277.08 62.3816C1277.08 62.2894 1276.92 62.2139 1276.71 62.2139C1276.51 62.2139 1276.35 62.2894 1276.35 62.3816C1276.35 62.4739 1276.51 62.5493 1276.71 62.5493C1276.92 62.5493 1277.08 62.4739 1277.08 62.3816ZM503.916 62.038C504.217 61.944 504.792 61.7834 505.193 61.6808C505.913 61.4967 505.913 61.499 505.227 61.854C504.845 62.052 504.271 62.2127 503.951 62.2114C503.441 62.209 503.437 62.1877 503.916 62.038ZM1311.45 61.8786C1311.9 61.545 1313.91 61.3909 1313.91 61.6899C1313.91 61.7706 1313.47 61.8366 1312.93 61.8366C1312.38 61.8366 1311.88 61.9215 1311.8 62.0253C1311.73 62.1291 1311.51 62.2139 1311.33 62.2139C1311.14 62.2139 1311.2 62.063 1311.45 61.8786ZM437.018 60.7466C436.967 60.5852 436.653 60.4288 436.321 60.3989C435.614 60.3354 435.532 60.5524 436.155 60.8388C436.778 61.125 437.127 61.0878 437.018 60.7466ZM1314.28 60.7047C1315.12 60.3183 1315.27 60.0613 1314.48 60.3633C1314.18 60.4746 1313.77 60.5172 1313.57 60.4577C1313.35 60.396 1313.18 60.4976 1313.18 60.6948C1313.18 61.1253 1313.36 61.127 1314.28 60.7047ZM1295.13 60.537C1295.26 60.4448 1295.18 60.3693 1294.97 60.3693C1294.76 60.3693 1294.58 60.4448 1294.58 60.537C1294.58 60.6292 1294.66 60.7047 1294.75 60.7047C1294.83 60.7047 1295.01 60.6292 1295.13 60.537ZM1317.29 60.2489C1316.6 60.1349 1316.74 59.8892 1317.47 59.9434C1317.82 59.9695 1318.31 59.9159 1318.56 59.8242C1318.87 59.7118 1319.02 59.7168 1319.02 59.8398C1319.02 60.0759 1317.88 60.3458 1317.29 60.2489ZM436.812 60.0535C436.812 59.8526 435.401 59.6948 435.166 59.8692C435.063 59.9458 435.269 60.0431 435.622 60.0855C436.677 60.2121 436.812 60.2084 436.812 60.0535ZM440.25 59.9381C440.565 59.7931 440.821 59.5856 440.818 59.477C440.815 59.3611 440.666 59.3834 440.459 59.5308C440.108 59.7801 440.092 59.7681 439.957 59.1558C439.897 58.8798 438.661 58.781 438.159 59.0119C437.939 59.1129 437.392 59.1954 436.943 59.1954C434.666 59.1954 436.702 60.0669 439.247 60.1821C439.484 60.1928 439.935 60.083 440.25 59.9381ZM437.176 58.6923C437.176 58.6001 437.104 58.5246 437.015 58.5246C436.927 58.5246 436.753 58.6001 436.629 58.6923C436.505 58.7846 436.578 58.86 436.79 58.86C437.002 58.86 437.176 58.7846 437.176 58.6923ZM403.624 57.0154C403.624 56.9232 403.788 56.8477 403.989 56.8477C404.189 56.8477 404.353 56.9232 404.353 57.0154C404.353 57.1076 404.189 57.1831 403.989 57.1831C403.788 57.1831 403.624 57.1076 403.624 57.0154ZM1330.33 54.3324C1330.33 54.2402 1330.25 54.1647 1330.16 54.1647C1330.08 54.1647 1329.9 54.2402 1329.78 54.3324C1329.65 54.4246 1329.73 54.5001 1329.94 54.5001C1330.15 54.5001 1330.33 54.4246 1330.33 54.3324ZM383.029 53.0057C382.377 52.8885 382.399 52.8685 383.269 52.7921C383.971 52.7304 384.178 52.7683 384.04 52.9331C383.937 53.057 383.829 53.1531 383.8 53.1467C383.771 53.1402 383.424 53.0768 383.029 53.0057ZM1376.26 47.4738C1376.54 47.2288 1376.49 47.1315 1376.05 47.0527C1375.63 46.9796 1375.53 47.023 1375.68 47.2036C1375.79 47.343 1375.72 47.457 1375.52 47.457C1375.31 47.457 1375.24 47.5325 1375.37 47.6247C1375.68 47.8618 1375.84 47.8362 1376.26 47.4738ZM1374.82 46.4311C1374.82 46.3389 1374.65 46.31 1374.45 46.367C1374.25 46.424 1374.09 46.5461 1374.09 46.6383C1374.09 46.7306 1374.25 46.7594 1374.45 46.7024C1374.65 46.6454 1374.82 46.5233 1374.82 46.4311ZM1376.73 46.5528C1377.59 46.2538 1377.54 46.068 1376.64 46.1993C1376.1 46.2778 1375.91 46.2295 1375.91 46.015C1375.91 45.5696 1375.43 45.8928 1375.38 46.3682C1375.34 46.8312 1375.77 46.8899 1376.73 46.5528Z" fill="#142E26"/>
</svg>
