<svg width="1440" height="85" viewBox="0 0 1440 85" fill="none" xmlns="http://www.w3.org/2000/svg">
<path fill-rule="evenodd" clip-rule="evenodd" d="M1433.19 0.403791C1433.03 0.698838 1432.78 0.784175 1432.27 0.721989C1431.89 0.675349 1431.58 0.72199 1431.58 0.825746C1431.58 0.929672 1431.17 1.0145 1430.67 1.0145C1430.12 1.0145 1429.76 1.11099 1429.76 1.25598C1429.76 1.74705 1428.76 1.9865 1426.88 1.94443C1425.87 1.92178 1425.04 1.96065 1425.04 2.03061C1425.04 2.24674 1423.63 2.34238 1423.47 2.13724C1423.39 2.02942 1422.8 2.20568 1422.16 2.53537C1421.52 2.86066 1420.76 3.10417 1420.47 3.07663C1420.18 3.04908 1419.85 3.14405 1419.73 3.28786C1419.61 3.43166 1419.27 3.54928 1418.97 3.54928C1418.67 3.54928 1418.51 3.45008 1418.61 3.32301C1418.76 3.15182 1418.37 3.10028 1417.02 3.11177C1416.04 3.12005 1415.24 3.1814 1415.24 3.24831C1415.24 3.31506 1414.99 3.32588 1414.69 3.27248C1414.39 3.21823 1414.15 3.26792 1414.15 3.38468C1414.15 3.60589 1412.79 4.22521 1412.3 4.22521C1411.8 4.22521 1411.46 3.8254 1411.91 3.75645C1412.85 3.60994 1412.28 3.35883 1411.24 3.46478C1410.61 3.52967 1410.16 3.50669 1410.16 3.40952C1410.16 3.31793 1409.83 3.28279 1409.43 3.33128C1408.91 3.39398 1408.7 3.56178 1408.7 3.90702C1408.7 4.44658 1408.2 4.54747 1407.67 4.11216C1407.49 3.95721 1406.87 3.8183 1406.29 3.8036C1405.34 3.77909 1404.48 4.0177 1402.11 4.9674C1401.78 5.10005 1401.21 5.23879 1400.84 5.27613C1400.47 5.31331 1400.21 5.43633 1400.27 5.54955C1400.44 5.93517 1399.24 5.97286 1398.68 5.59923C1398.38 5.40118 1397.94 5.24149 1397.7 5.24453C1397.46 5.2474 1397.55 5.34981 1397.9 5.47435C1398.57 5.71025 1398.8 6.01037 1398.17 5.83057C1397.97 5.77312 1397.81 5.80421 1397.81 5.89986C1397.81 5.99533 1397.54 6.02524 1397.21 5.96644C1396.72 5.87839 1396.66 5.93703 1396.85 6.29934C1396.98 6.54132 1396.92 6.78652 1396.72 6.84414C1396.52 6.90177 1396.36 6.81508 1396.36 6.65167C1396.36 6.42726 1396.26 6.40208 1395.94 6.54927C1395.65 6.68648 1395.32 6.6929 1394.83 6.5714C1394.33 6.44652 1393.97 6.46038 1393.55 6.62159C1393.1 6.79717 1392.94 6.7997 1392.82 6.63325C1392.74 6.51716 1392.13 6.42202 1391.47 6.42202C1390.81 6.42202 1390.07 6.30795 1389.82 6.16854C1389.57 6.02913 1389.1 5.91506 1388.77 5.91506C1388.43 5.91506 1387.54 5.76788 1386.78 5.58791C1386.03 5.40811 1385.16 5.30503 1384.85 5.35911C1384.55 5.41318 1384.19 5.37043 1384.05 5.2643C1383.71 5.01268 1381.84 5.39459 1381.84 5.71516C1381.84 5.86251 1381.58 5.9007 1381.09 5.82804C1380.68 5.76754 1380.11 5.80894 1379.83 5.91997C1379.54 6.03099 1379.09 6.08287 1378.82 6.03538C1378.55 5.98773 1378.14 6.09334 1377.9 6.26993C1377.67 6.44652 1377.21 6.591 1376.88 6.591C1376.56 6.591 1376.05 6.72399 1375.77 6.88673C1375.48 7.04946 1375.35 7.08748 1375.48 6.97122C1375.6 6.85513 1375.53 6.75999 1375.32 6.75999C1375.11 6.75999 1374.94 6.83603 1374.94 6.92897C1374.94 7.02192 1374.79 7.09796 1374.6 7.09796C1374.06 7.09796 1373.74 6.40715 1374.18 6.20217C1374.76 5.92841 1374.66 5.74135 1373.99 5.8615C1373.49 5.95004 1373.46 5.91135 1373.81 5.61376C1374.3 5.18843 1374.31 5.07014 1373.89 5.07014C1373.71 5.07014 1373.48 5.22223 1373.38 5.40811C1373.25 5.63438 1372.88 5.74608 1372.27 5.74608C1371.76 5.74608 1371.2 5.86842 1371.02 6.01815C1370.84 6.1677 1370.16 6.311 1369.51 6.33668C1368.87 6.3622 1368.16 6.46798 1367.94 6.57157C1367.71 6.67516 1367.16 6.75999 1366.7 6.75999C1366.24 6.75999 1365.9 6.85056 1365.95 6.96125C1366.06 7.20019 1364.97 7.33876 1364.15 7.19124C1363.7 7.11165 1363.66 7.04 1363.98 6.8896C1364.55 6.62632 1364.52 6.47829 1363.9 6.47829C1363.62 6.47829 1363.47 6.57867 1363.57 6.70135C1363.68 6.83299 1363.36 6.99454 1362.79 7.09559C1361.53 7.31781 1361.6 7.33183 1361.64 6.84651C1361.7 6.24847 1361.02 6.29224 1360.61 6.91292C1360.42 7.20053 1360.13 7.43593 1359.98 7.43593C1359.82 7.43593 1359.69 7.54999 1359.69 7.68941C1359.69 7.82882 1359.53 7.94288 1359.33 7.94288C1359.13 7.94288 1358.96 7.7908 1358.96 7.60491C1358.96 7.3947 1358.72 7.26796 1358.33 7.26948C1357.47 7.27303 1356.64 7.53191 1356.89 7.71999C1357.01 7.80398 1356.74 7.88509 1356.31 7.9003C1355.88 7.91551 1355.47 8.00727 1355.4 8.10443C1355.33 8.20143 1355.11 8.28085 1354.92 8.28085C1354.72 8.28085 1354.65 8.21461 1354.76 8.1335C1354.87 8.05239 1354.19 7.94609 1353.26 7.89709C1352.32 7.84791 1351.38 7.68873 1351.14 7.54019C1350.91 7.39284 1350.63 7.31527 1350.52 7.36783C1350.18 7.52312 1348.8 7.10658 1348.8 6.8509C1348.8 6.72163 1349.04 6.59117 1349.33 6.56109C1349.69 6.52425 1349.76 6.42962 1349.55 6.26858C1349.21 6.02085 1348.12 6.17969 1345.41 6.87017C1344.85 7.01363 1344.29 7.08528 1344.17 7.02952C1344.05 6.97375 1343.65 7.05808 1343.27 7.21676C1342.71 7.45249 1342.46 7.46803 1341.88 7.30175C1340.81 6.99099 1340.5 7.04321 1339.04 7.7739C1337.47 8.55562 1336.65 8.65482 1336.9 8.03109C1337.03 7.72726 1336.89 7.58497 1336.4 7.51265C1335.89 7.43779 1335.78 7.3102 1335.95 7.00198C1336.07 6.77587 1336.06 6.591 1335.92 6.591C1335.09 6.591 1332 7.18566 1331.84 7.3756C1331.6 7.67014 1330.58 7.6769 1330.72 7.38304C1330.78 7.26103 1330.34 6.95314 1329.75 6.69882C1329.17 6.44466 1328.65 6.1192 1328.6 5.9759C1328.46 5.51896 1328.21 5.53806 1326.29 6.15316C1324.35 6.77283 1322.02 7.16504 1321.15 7.01769C1320.88 6.97173 1319.85 7.03239 1318.85 7.15254C1317.54 7.31155 1317 7.46787 1316.86 7.7281C1316.66 8.10105 1315.02 8.78781 1314.34 8.78781C1314.12 8.78781 1313.94 8.86385 1313.94 8.95679C1313.94 9.26857 1313.39 9.12983 1312.76 8.66107C1312.29 8.30367 1312.14 8.267 1312.14 8.50206C1312.13 8.67019 1311.97 8.76415 1311.79 8.71075C1311.6 8.65752 1311.35 8.76905 1311.22 8.95882C1310.71 9.70607 1307.77 10.0547 1307.77 9.36793C1307.77 9.23477 1307.59 9.12578 1307.37 9.12578C1307.15 9.12578 1307.05 9.02388 1307.15 8.89917C1307.26 8.77463 1307.18 8.56542 1306.98 8.43446C1306.68 8.23472 1306.65 8.23726 1306.79 8.44984C1306.87 8.58925 1306.8 8.8336 1306.63 8.99279C1306.2 9.37655 1305.14 9.18965 1305.41 8.78037C1305.53 8.60665 1305.4 8.41486 1305.11 8.3356C1304.18 8.08179 1304.07 7.5314 1304.92 7.34873C1305.82 7.15507 1305.96 6.8656 1305.18 6.79632C1304.46 6.73109 1302.53 7.52025 1302.84 7.75548C1303.21 8.03228 1302.48 7.98327 1301.97 7.69684C1301.73 7.56149 1301.64 7.37138 1301.77 7.27438C1302.13 7.00164 1301.38 7.06602 1300.87 7.35144C1300.35 7.64108 1299.78 7.68552 1299.78 7.43593C1299.78 7.34299 1300.05 7.26694 1300.37 7.26694C1300.84 7.26694 1300.87 7.21675 1300.54 7.02986C1300.21 6.84786 1300.22 6.77249 1300.58 6.70524C1300.9 6.64609 1300.86 6.61331 1300.46 6.60435C1300.14 6.59709 1299.67 6.70507 1299.42 6.84448C1299.17 6.98389 1298.78 7.09796 1298.55 7.09796C1298.32 7.09796 1297.9 7.24768 1297.61 7.43069C1297.08 7.77339 1295.78 7.75548 1294.79 7.39199C1294.54 7.29939 1294.34 7.29381 1294.34 7.37932C1294.34 7.46381 1294.01 7.54442 1293.61 7.55844C1293.21 7.57247 1292.88 7.51417 1292.88 7.429C1292.88 7.23365 1291.11 7.59427 1290.21 7.97144C1289.47 8.28406 1288.53 8.21072 1288.53 7.84031C1288.53 7.43238 1287.46 7.58531 1287.22 8.02738C1286.97 8.50611 1285.99 8.60564 1285.98 8.15411C1285.98 7.90131 1285.92 7.89523 1285.62 8.11187C1285.32 8.32682 1285.27 8.31887 1285.26 8.05965C1285.26 7.89151 1285.1 7.80094 1284.9 7.85839C1284.68 7.91956 1284.53 7.74416 1284.53 7.43593C1284.53 6.84566 1283.83 6.89332 1283.77 7.48815C1283.73 7.79654 1283.69 7.80651 1283.55 7.54729C1283.46 7.37628 1283.07 7.09103 1282.68 6.9136C1281.91 6.55484 1281.76 6.08405 1282.42 6.08405C1282.65 6.08405 1282.75 6.04417 1282.65 5.9955C1282.29 5.82702 1281.27 6.12156 1281.25 6.39785C1281.24 6.63139 1281.16 6.6226 1280.7 6.34175C1280.24 6.06073 1280.05 6.04079 1279.45 6.21501C1279.05 6.32891 1278.36 6.42202 1277.91 6.42202C1277.45 6.42202 1276.88 6.57698 1276.62 6.76658C1276.37 6.95601 1275.99 7.06298 1275.79 7.00417C1275.12 6.81238 1273.65 7.07971 1273.87 7.35177C1273.99 7.49372 1273.83 7.64699 1273.5 7.70613C1273.18 7.76325 1272.92 7.89776 1272.92 8.00473C1272.92 8.48178 1270.74 8.69486 1270.01 8.28981C1269.67 8.10004 1267.91 7.7984 1267.42 7.8442C1267.15 7.86937 1266.49 7.94643 1265.96 8.01538C1265.4 8.0877 1264.67 8.06083 1264.24 7.95133C1263.56 7.78269 1263.48 7.80803 1263.48 8.18504C1263.48 8.49175 1263.63 8.58148 1264.02 8.51101C1264.76 8.37802 1264.71 8.61561 1263.93 8.89055C1262.97 9.22784 1262.75 9.17597 1262.75 8.61882C1262.75 8.05272 1262.27 7.95927 1261.66 8.40759C1261.4 8.59736 1261.19 8.63403 1261.08 8.51C1260.98 8.40371 1260.56 8.35774 1260.15 8.40793C1259.47 8.49039 1259.44 8.46251 1259.83 8.12218C1260.07 7.91466 1260.18 7.70259 1260.06 7.65088C1259.73 7.49659 1258.74 7.96603 1259 8.15716C1259.14 8.2626 1259.05 8.28204 1258.79 8.20599C1258.54 8.1357 1258.07 8.1972 1257.72 8.34304C1257.15 8.58367 1256.99 8.57776 1255.93 8.27764C1255.24 8.08196 1254.76 7.80938 1254.76 7.60745C1254.76 7.21033 1254.11 7.15102 1253.8 7.52042C1253.45 7.95066 1252.85 7.80448 1253.1 7.34772C1253.43 6.73312 1252.5 6.64288 1251.36 7.17755C1250.6 7.52938 1250.52 7.63601 1250.95 7.7134C1251.66 7.83929 1251.65 8.28085 1250.95 8.28085C1250.65 8.28085 1250.4 8.20025 1250.4 8.1019C1250.4 8.00355 1250.24 7.96924 1250.05 8.02585C1249.82 8.09074 1249.76 7.83862 1249.89 7.34349C1250.02 6.81237 1249.96 6.59422 1249.7 6.66908C1249.49 6.73008 1249.32 6.9239 1249.32 7.09999C1249.32 7.27607 1248.9 7.55675 1248.4 7.72371C1247.89 7.89067 1246.79 8.27291 1245.95 8.57286C1245.1 8.87298 1244.36 9.04399 1244.29 8.95307C1244.13 8.73644 1243.24 8.73965 1243.08 8.9573C1243.02 9.05058 1241.93 9.14893 1240.67 9.17597C1239.41 9.20283 1238.27 9.30321 1238.13 9.39886C1237.78 9.6449 1235.68 9.58373 1235.79 9.33059C1235.84 9.21787 1235.65 9.12578 1235.37 9.12578C1235.08 9.12578 1234.79 9.03385 1234.71 8.92165C1234.59 8.76331 1234.44 8.7628 1234.04 8.91911C1231.7 9.82808 1231.33 9.91021 1230.15 9.79242C1229.2 9.69729 1228.86 9.7397 1228.47 10.0035C1228.12 10.2316 1227.89 10.273 1227.71 10.1373C1227.57 10.0295 1227.13 9.98067 1226.73 10.0287C1226.13 10.1023 1226.05 10.0527 1226.23 9.71047C1226.43 9.33414 1226.35 9.30625 1225.09 9.32281C1224.33 9.33261 1223.43 9.45614 1223.08 9.59741C1222.73 9.73852 1222.45 9.79361 1222.45 9.71976C1222.45 9.64591 1221.88 9.86762 1221.18 10.2125C1219.94 10.8253 1219.91 10.83 1219.91 10.4151C1219.91 9.87759 1219.19 9.64557 1219.16 10.172C1219.13 10.539 1219.11 10.542 1218.83 10.2242C1218.59 9.95617 1218.49 9.93876 1218.34 10.1397C1217.9 10.7354 1217.82 11.1536 1218.15 11.1536C1218.34 11.1536 1218.38 11.2411 1218.24 11.3481C1218.06 11.4824 1217.82 11.4432 1217.47 11.2214C1216.97 10.906 1216.95 10.9062 1216.44 11.2281C1216.15 11.4086 1215.91 11.4846 1215.9 11.3971C1215.89 11.3097 1215.5 11.4608 1215.02 11.7332C1214.33 12.1253 1214.04 12.1876 1213.64 12.033C1213.07 11.8125 1212.28 12.0602 1212.28 12.46C1212.28 12.5839 1212 12.7323 1211.65 12.7899C1211.3 12.8477 1210.74 13.0018 1210.41 13.1326C1209.37 13.5478 1207.65 13.5501 1207.03 13.1376C1206.53 12.8086 1206.34 12.7904 1205.04 12.9514C1204.07 13.0724 1203.48 13.0746 1203.24 12.9585C1202.99 12.8424 1202.79 12.8779 1202.63 13.0687C1202.36 13.3969 1201.52 13.4444 1201.3 13.1434C1201.11 12.8696 1197.06 12.7928 1196.39 13.0501C1196.01 13.1987 1195.8 13.1872 1195.53 13.0016C1195.25 12.8166 1195.12 12.809 1194.98 12.9702C1194.88 13.0864 1194.64 13.1814 1194.44 13.1814C1194.25 13.1814 1194.19 13.1062 1194.31 13.0143C1194.43 12.9225 1194.3 12.8879 1194.02 12.9376C1193.75 12.9873 1193.31 12.9088 1193.05 12.7635C1192.63 12.5303 1192.4 12.5815 1191.1 13.1985C1189.88 13.7791 1189.52 13.8661 1188.99 13.712C1188.58 13.5932 1188.27 13.586 1188.13 13.6918C1187.67 14.0429 1187.26 13.8337 1187.47 13.3504C1187.64 12.9509 1187.56 12.8434 1187.09 12.8434C1186.71 12.8434 1186.41 13.0329 1186.27 13.3504C1186.02 13.9331 1185.43 13.9961 1184.54 13.537C1184.08 13.2997 1184.04 13.198 1184.38 13.1454C1184.73 13.091 1184.73 13.0449 1184.4 12.9494C1184.13 12.8713 1183.8 12.9893 1183.54 13.2629C1183.28 13.5221 1182.91 13.6654 1182.61 13.6132C1182.34 13.5648 1182.02 13.6569 1181.89 13.818C1181.64 14.1357 1179.97 14.9914 1179.97 14.8011C1179.97 14.7373 1179.58 14.8789 1179.11 15.116C1178.27 15.5404 1176.34 15.7226 1176.34 15.3782C1176.34 15.2853 1176.18 15.2092 1175.98 15.2092C1175.78 15.2092 1175.61 15.3613 1175.61 15.5472C1175.61 15.9622 1174.9 16.0011 1174.84 15.5895C1174.82 15.4267 1174.82 15.2366 1174.84 15.167C1174.87 15.0974 1174.22 15.0402 1173.41 15.0402C1172.57 15.0402 1172.03 15.1092 1172.15 15.202C1172.5 15.4602 1170.43 15.8632 1168.54 15.9088C1167.21 15.9409 1166.75 16.0234 1166.62 16.2559C1166.49 16.4859 1166.09 16.5611 1165 16.5611C1163.78 16.5611 1163.59 16.5148 1163.77 16.2654C1163.99 15.9837 1163.97 15.9837 1163.5 16.2654C1163.23 16.4281 1162.67 16.5611 1162.26 16.5611C1161.19 16.5611 1160.33 16.7404 1160.57 16.9168C1160.68 17 1160.52 17.0681 1160.21 17.0681C1159.87 17.0681 1159.74 16.9717 1159.87 16.8146C1160.02 16.6292 1159.82 16.5611 1159.13 16.5611C1158.57 16.5611 1158.22 16.6466 1158.28 16.7723C1158.33 16.8994 1157.93 16.9942 1157.28 17.0103C1156.68 17.025 1156.02 17.053 1155.83 17.0726C1155.63 17.0921 1155.33 17.0978 1155.17 17.0851C1155.01 17.0725 1154.65 17.1678 1154.37 17.297C1154.03 17.4589 1153.12 17.5209 1151.47 17.4961C1149.34 17.464 1148.95 17.4025 1147.91 16.9371C1146.88 16.4741 1146.67 16.4406 1146.08 16.6451C1145.71 16.772 1145.21 16.8408 1144.97 16.7979C1144.73 16.7549 1143.64 17.2342 1142.55 17.863C1139.51 19.6251 1139.22 19.7668 1138.89 19.6716C1138.72 19.6228 1138.58 19.714 1138.58 19.8744C1138.58 20.0348 1138.33 20.2864 1138.03 20.4336C1137.72 20.5808 1136.7 21.1614 1135.76 21.7239C1134.81 22.2865 1133.45 23.0278 1132.73 23.3715C1131.47 23.9763 1130.23 24.193 1130.23 23.8094C1130.23 23.7065 1129.98 23.6661 1129.68 23.7197C1129.3 23.7881 1129.14 23.7056 1129.14 23.4403C1129.14 23.2333 1128.81 22.9689 1128.41 22.8528C1128.01 22.7367 1127.69 22.5368 1127.69 22.4085C1127.69 22.2801 1127.42 22.1858 1127.09 22.1986C1126.76 22.2115 1126.42 22.1271 1126.33 22.0109C1126.25 21.8948 1126.44 21.7996 1126.77 21.7996C1127.3 21.7996 1127.31 21.7608 1126.84 21.4507C1126.55 21.2589 1126.4 20.9427 1126.51 20.7484C1126.64 20.5162 1126.57 20.4346 1126.31 20.5103C1126.06 20.5833 1125.96 20.5047 1126.05 20.2967C1126.22 19.8759 1125.87 19.2449 1125.52 19.3458C1125.37 19.3882 1124.96 19.3244 1124.61 19.2039C1124.09 19.0266 1124.04 18.9174 1124.37 18.6332C1124.72 18.3297 1124.6 18.2107 1123.49 17.7594C1121.99 17.1438 1121.75 17.115 1122.07 17.5906C1122.26 17.8729 1122.18 17.9311 1121.64 17.8799C1121.27 17.8444 1120.99 17.6862 1121.02 17.528C1121.05 17.37 1120.93 17.2823 1120.75 17.3334C1120.57 17.3842 1120.42 17.5166 1120.42 17.6272C1120.42 17.7379 1120.19 18.0377 1119.9 18.2932C1119.48 18.6721 1119.47 18.7579 1119.86 18.7579C1120.24 18.7579 1120.79 19.0945 1120.79 19.3271C1120.79 19.346 1120.46 19.3614 1120.06 19.3614C1119.66 19.3614 1119.34 19.2955 1119.34 19.2149C1119.34 19.1342 1118.74 19.2385 1118.02 19.4465C1116.46 19.8965 1114.55 20.111 1111.35 20.1973C1110.05 20.2325 1108.67 20.284 1108.28 20.3122C1107.87 20.3421 1107.42 20.224 1107.2 20.0253C1106.65 19.5423 1105.25 19.6067 1104.3 20.1583L1103.51 20.6211L1102.72 20.281C1102.29 20.0939 1101.51 19.9408 1101 19.9408C1100.46 19.9408 1100.15 19.868 1100.28 19.7718C1100.4 19.6789 1100.34 19.6028 1100.15 19.6028C1099.95 19.6028 1099.73 19.689 1099.65 19.7945C1099.56 19.9259 1099.35 19.9106 1098.99 19.7453C1098.36 19.4606 1096.11 19.5074 1095.64 19.8147C1095.38 19.9827 1095.28 19.9827 1095.14 19.8141C1094.92 19.5672 1094.04 19.5307 1093.86 19.7615C1093.79 19.8489 1092.95 19.964 1091.98 20.0172C1091.02 20.0706 1089.99 20.2274 1089.69 20.3655C1088.96 20.7068 1088.44 20.6811 1088.23 20.292C1087.95 19.7962 1086.24 19.9425 1085.63 20.514C1085.28 20.8533 1084.97 20.9429 1084.45 20.865C1083.73 20.7595 1081.58 21.1053 1081.58 21.3253C1081.58 21.3909 1081.02 21.337 1080.35 21.2057L1079.12 20.9669L1078.88 21.51C1078.67 21.972 1078.57 22.0143 1078.2 21.7927C1077.81 21.5597 1077.7 21.5626 1077.16 21.8209C1076.83 21.9796 1076.66 22.166 1076.8 22.2351C1076.93 22.3042 1076.84 22.3061 1076.59 22.2392C1076.34 22.1724 1076.13 22.0082 1076.13 21.8742C1076.13 21.7402 1075.97 21.6307 1075.77 21.6307C1075.57 21.6307 1075.41 21.7067 1075.41 21.7996C1075.41 21.8926 1074.69 21.9686 1073.83 21.9686C1072.04 21.9686 1070.07 22.2351 1069.17 22.6006C1068.83 22.736 1068.42 22.808 1068.25 22.7607C1068.09 22.7133 1067.64 22.7818 1067.25 22.9131C1066.75 23.0834 1066.7 23.1522 1067.08 23.1541C1067.43 23.1559 1067.46 23.1982 1067.19 23.2808C1066.97 23.3491 1066.67 23.576 1066.53 23.7852C1066.39 23.9943 1066.12 24.1654 1065.92 24.1654C1065.72 24.1654 1065.65 24.0176 1065.78 23.8369C1065.98 23.537 1065.9 23.5223 1064.8 23.6681C1064.14 23.7562 1063.55 23.904 1063.48 23.9968C1063.42 24.0896 1063.2 24.1654 1063.01 24.1654C1062.81 24.1654 1062.75 24.0198 1062.87 23.8417C1063.18 23.3797 1062.5 23.2571 1061.24 23.5497C1060.64 23.6882 1060.16 23.7332 1060.16 23.6497C1060.16 23.5662 1059.66 23.5444 1059.05 23.6014C1058.15 23.6848 1057.9 23.6424 1057.75 23.3797C1057.55 23.0106 1056.12 22.8903 1055.07 23.1529C1054.67 23.2522 1054.31 23.2585 1054.19 23.1679C1054.08 23.0834 1053.66 23.054 1053.26 23.1027C1052.77 23.162 1052.53 23.1078 1052.53 22.9374C1052.53 22.798 1052.16 22.6381 1051.72 22.582C1050.47 22.4273 1048.83 22.4562 1049.06 22.6289C1049.17 22.713 1048.94 22.7429 1048.55 22.6951C1048.16 22.6474 1047.85 22.5594 1047.87 22.4998C1047.95 22.1898 1047.77 21.9686 1047.43 21.9686C1047.22 21.9686 1047.14 22.0447 1047.27 22.1376C1047.39 22.2306 1047.32 22.3066 1047.11 22.3066C1046.9 22.3066 1046.72 22.2306 1046.72 22.1376C1046.72 21.8999 1044.78 21.9266 1044.25 22.1714C1043.94 22.3159 1043.82 22.3191 1043.82 22.1827C1043.82 22.0775 1043.3 21.998 1042.68 22.0063C1042 22.0153 1041.35 21.9071 1041.09 21.7415C1040.85 21.5876 1040.52 21.4617 1040.35 21.4617C1039.67 21.4617 1036.56 20.7109 1036.55 20.5444C1036.54 20.2691 1034.81 19.5631 1034.42 19.6753C1034.23 19.7296 1034.02 19.7003 1033.96 19.6104C1033.89 19.5205 1032.53 19.4016 1030.93 19.346L1028.02 19.2451L1027.55 19.7554C1027.13 20.2012 1026.93 20.2531 1025.99 20.1657C1024.94 20.0672 1023.49 20.4486 1023.49 20.8256C1023.49 20.9116 1022.87 21.4101 1022.12 21.9337C1021.38 22.457 1020.6 23.0177 1020.4 23.1794C1018.23 24.9382 1016.78 25.8553 1016.18 25.8553C1015.57 25.8553 1015.33 25.6748 1015.46 25.3061C1015.48 25.2365 1015.25 25.1793 1014.95 25.1793C1014.28 25.1793 1014.28 25.1822 1014.99 24.5188C1015.31 24.22 1015.48 23.9309 1015.36 23.8763C1015.14 23.7744 1012.66 24.4921 1011.26 25.06C1010.46 25.3875 1009.06 25.3353 1008.54 24.9587C1008.38 24.8449 1007.98 24.8826 1007.37 25.066C1006.02 25.4783 1004.73 25.4242 1004.03 24.9259C1003.35 24.4422 1002.72 24.3902 1002.06 24.7623C1001.78 24.9194 1001.08 25.01 1000.29 24.993C999.568 24.9776 998.816 24.9842 998.616 25.0077C997.728 25.1123 996.627 24.9918 996.71 24.7991C996.77 24.6607 996.391 24.5967 995.611 24.6132C994.278 24.6418 993.079 24.9963 993.705 25.1766C993.961 25.2501 993.874 25.4144 993.45 25.6579C993.096 25.861 992.48 26.2161 992.081 26.4466C991.258 26.9216 990.523 26.9887 990.216 26.6167C990.102 26.4778 989.903 26.3928 989.774 26.4278C989.247 26.5711 985.254 26.1992 984.668 25.9523C984.32 25.8059 983.758 25.6863 983.418 25.6863C983.078 25.6863 982.682 25.5533 982.539 25.3906C982.395 25.2278 982.038 25.0949 981.744 25.0949C981.451 25.0949 981.004 24.9047 980.751 24.6724C980.429 24.3757 980.29 24.3356 980.287 24.538C980.283 24.7327 979.869 24.862 979.01 24.937C978.312 24.998 977.74 25.1175 977.74 25.2025C977.74 25.2875 977.244 25.2378 976.639 25.092C976.033 24.9463 975.623 24.7628 975.727 24.6844C975.983 24.4916 974.956 24.1107 974.519 24.2364C974.328 24.2915 974.088 24.241 973.986 24.1242C973.842 23.9584 973.726 23.962 973.456 24.1413C973.219 24.2988 972.755 24.3342 971.976 24.2545C970.989 24.1536 970.841 24.1844 970.841 24.4901C970.841 24.9042 970.288 24.9571 969.972 24.573C969.837 24.4093 970.06 24.1881 970.544 24.0056C971.338 23.7063 971.338 23.7063 969.547 23.4395C968.561 23.2926 966.928 23.1765 965.917 23.1814C964.349 23.1892 963.897 23.1127 962.831 22.6591C962.145 22.3669 961.561 22.035 961.534 21.9215C961.507 21.8081 961.467 21.506 961.443 21.2504C961.403 20.7959 960.675 20.5679 960.675 21.0096C960.675 21.1553 960.231 21.2292 959.406 21.2209C958.647 21.2133 958.136 21.1232 958.135 20.997C958.134 20.8809 958.008 20.7857 957.853 20.7857C957.699 20.7857 957.264 20.5184 956.886 20.1918C956.396 19.7686 956.019 19.6243 955.575 19.6899C955.15 19.7527 954.567 19.5653 953.742 19.101C952.777 18.5582 952.29 18.4199 951.339 18.4199C950.082 18.4199 949.861 18.5577 950.582 18.8931C950.87 19.0269 950.884 19.0959 950.624 19.0959C950.081 19.0959 948.977 18.2795 949.245 18.0772C949.365 17.9865 949.028 17.913 948.492 17.913C947.699 17.913 947.555 17.8508 947.71 17.575C947.927 17.1894 947.325 17.1091 947.017 17.4826C946.853 17.6813 946.678 17.6893 946.098 17.5248C945.507 17.357 945.3 17.3731 944.911 17.6173C944.651 17.7798 944.258 17.913 944.036 17.913C943.815 17.913 943.723 18.0215 943.833 18.1541C943.978 18.3306 943.828 18.3704 943.271 18.3027C942.853 18.2518 942.422 18.1433 942.313 18.0615C941.988 17.8167 940.765 17.8922 939.257 18.2503C938.067 18.5328 937.789 18.5489 937.547 18.349C937.305 18.1494 937.123 18.1609 936.441 18.4188C935.992 18.5884 935.471 18.9053 935.284 19.1228C935.032 19.4156 934.937 19.4416 934.92 19.2226C934.895 18.9004 934.349 18.8258 933.99 19.0959C933.568 19.4139 932.023 19.2652 931.139 18.8213C930.208 18.3544 929.326 18.3966 929.708 18.8901C929.831 19.0498 929.418 18.9142 928.79 18.5889C928.162 18.2636 927.645 17.9404 927.642 17.8707C927.639 17.8011 927.269 17.7351 926.819 17.7241C926.159 17.7078 926.211 17.6793 927.091 17.575C927.691 17.504 927.895 17.437 927.545 17.426C926.804 17.4027 926.714 17.0627 927.364 16.745C927.735 16.5636 927.652 16.5457 926.91 16.6468C925.403 16.8519 922.916 17.4062 922.916 17.537C922.916 17.6044 922.087 17.6712 921.075 17.6855C919.11 17.7133 918.468 17.8466 919.236 18.0676C919.607 18.1746 919.582 18.2266 919.12 18.3093C918.796 18.3671 918.241 18.3302 917.886 18.2271C917.363 18.0752 917.041 18.1264 916.176 18.4999C914.721 19.128 913.843 19.3372 913.828 19.0596C913.821 18.9401 913.476 19.0325 913.061 19.2649C912.307 19.6872 910.935 19.8756 910.935 19.5569C910.935 19.3083 909.167 18.5889 908.556 18.5889C908.267 18.5889 908.03 18.665 908.03 18.7579C908.03 18.8509 907.472 18.9269 906.79 18.9269C906.108 18.9269 905.467 19.022 905.366 19.1381C905.266 19.2544 905.165 19.1973 905.143 19.0114C905.108 18.7141 905.049 18.705 904.66 18.9357C904.129 19.2512 901.997 19.2792 902.13 18.9691C902.18 18.8531 901.976 18.7579 901.677 18.7579C901.377 18.7579 901.173 18.8434 901.223 18.948C901.378 19.2721 900.477 19.3019 900.297 18.9784C900.141 18.6981 900.124 18.6974 900.085 18.9691C900.062 19.1319 899.776 19.2649 899.451 19.2649C898.98 19.2649 898.9 19.1469 899.059 18.6896C899.273 18.0759 898.827 17.9208 896.832 17.9154C896.281 17.9138 895.912 17.7905 895.786 17.5654C895.672 17.3631 895.387 17.2543 895.103 17.305C894.835 17.3528 894.453 17.2621 894.254 17.1032C894.055 16.9445 893.888 16.9001 893.882 17.0047C893.862 17.3513 892.13 17.2196 891.926 16.856C891.785 16.6047 891.566 16.5505 891.079 16.6463C890.717 16.7173 890.135 16.7698 889.785 16.7631C889.277 16.7534 889.196 16.8401 889.385 17.1908C889.586 17.5635 889.524 17.613 888.978 17.5154C888.623 17.452 888.108 17.4868 887.834 17.5928C887.488 17.7266 887.197 17.732 886.882 17.6105C886.598 17.5012 885.837 17.4858 884.856 17.5696C883.009 17.7269 882.18 18.0149 883.099 18.179C884.241 18.3829 883.704 18.5433 882.071 18.4864C881.172 18.4551 880.437 18.5033 880.437 18.5937C880.437 18.6841 880.999 18.7579 881.686 18.7579C882.374 18.7579 883.054 18.8468 883.198 18.9556C883.375 19.0886 883.263 19.118 882.857 19.0454C882.524 18.986 882.252 19.0041 882.252 19.0854C882.252 19.3377 880.689 19.0575 879.908 18.6651C879.08 18.2491 876.224 17.998 875.94 18.3162C875.824 18.4472 875.673 18.4387 875.445 18.2888C875.194 18.1232 874.879 18.1761 874.092 18.5154C873.201 18.8999 872.863 18.9435 871.507 18.8488C869.685 18.7216 867.536 19.1241 867.871 19.5298C868.133 19.8477 867.578 19.8404 867.004 19.5183C866.755 19.3789 866.326 19.2649 866.052 19.2649C865.776 19.2649 865.551 19.2017 865.551 19.1246C865.551 19.0474 864.968 18.9933 864.254 19.0043C863.541 19.0154 862.876 18.9627 862.776 18.8875C862.676 18.8122 862.279 18.9234 861.894 19.1346C861.331 19.4428 861.24 19.4563 861.43 19.2032C861.628 18.9408 861.536 18.9073 860.886 19.0033C860.413 19.0732 860.105 19.046 860.105 18.9343C860.105 18.8297 859.682 18.8792 859.124 19.0492C858.197 19.3323 858.157 19.3325 858.387 19.0531C858.69 18.6858 858.167 18.6702 857.407 19.0239C856.953 19.2353 856.798 19.2439 856.651 19.0661C856.416 18.7816 854.582 18.7752 853.854 19.0563C853.201 19.3083 849.718 19.2294 849.115 18.9489C848.671 18.7422 850.038 18.082 850.91 18.082C851.242 18.082 851.351 17.9412 851.24 17.6561C851.149 17.4218 851.21 17.2693 851.376 17.3172C851.543 17.365 851.767 17.2967 851.875 17.1656C852.129 16.8575 850.995 16.65 850.619 16.9356C849.763 17.5852 849.041 17.913 848.466 17.913C848.112 17.913 847.736 18.0081 847.632 18.1242C847.495 18.278 847.303 18.2549 846.927 18.0397C846.33 17.6982 845.23 17.6445 845.196 17.9552C845.184 18.0715 845.017 17.9848 844.827 17.7629C844.491 17.3724 844.457 17.3692 843.76 17.6624C843.365 17.829 843.041 17.8858 843.041 17.7885C843.041 17.6255 842.054 17.443 840.364 17.2932C839.986 17.2595 839.277 17.4219 838.769 17.6582C838.156 17.9436 837.719 18.0309 837.441 17.9235C836.9 17.7148 836.262 17.9093 836.089 18.3355C835.908 18.7821 834.219 18.8154 833.071 18.3949C831.988 17.9983 831.553 17.9999 831.328 18.4005C831.089 18.8258 829.244 18.692 829.244 18.2493C829.244 18.0842 828.988 17.9034 828.675 17.8474C828.286 17.7781 828.182 17.6332 828.346 17.3924C828.561 17.0769 828.505 17.0593 827.827 17.2284C827.408 17.3327 827.066 17.4914 827.066 17.5809C827.066 17.6707 826.821 17.744 826.521 17.744C826.222 17.744 825.977 17.8201 825.977 17.913C825.977 18.0059 825.7 18.082 825.363 18.082C824.827 18.082 824.839 18.1137 825.454 18.33C826.091 18.5546 826.098 18.5786 825.523 18.5835C825.173 18.5866 824.887 18.665 824.887 18.7579C824.887 19.1391 823.734 18.8914 823.394 18.4372C823.112 18.0617 822.736 17.9238 821.779 17.8457C821.092 17.7898 819.957 17.6975 819.257 17.6409C818.556 17.5841 817.893 17.4701 817.783 17.3874C817.673 17.3046 816.842 17.2371 815.937 17.2371C814.622 17.2371 814.254 17.172 814.109 16.9146C813.911 16.5615 812.653 16.3235 812.453 16.6017C812.383 16.6999 812.073 16.6561 811.739 16.5008C811.3 16.2965 811.101 16.2799 810.961 16.4359C810.829 16.5834 810.605 16.5484 810.206 16.3176C809.894 16.1371 809.639 16.0731 809.639 16.175C809.639 16.2771 809.331 16.323 808.956 16.2774C808.503 16.2223 807.833 16.3987 806.971 16.8001C805.777 17.3555 804.568 17.6382 805.1 17.2371C805.224 17.1441 805.147 17.0681 804.931 17.0681C804.715 17.0681 804.44 17.2945 804.321 17.5713C804.202 17.8479 803.882 18.1606 803.609 18.266C803.033 18.4884 801.151 18.3216 801.476 18.0771C801.596 17.9868 801.424 17.913 801.094 17.913C800.764 17.913 800.407 17.7592 800.302 17.5711C800.127 17.2602 800.07 17.2545 799.672 17.5079C799.313 17.7366 799.09 17.7511 798.438 17.5885C798 17.4795 797.494 17.4331 797.313 17.4851C797.132 17.5373 796.88 17.4287 796.754 17.244C796.628 17.0591 796.126 16.7619 795.639 16.5834C795.151 16.405 794.753 16.1794 794.753 16.082C794.753 15.9847 794.605 15.8625 794.423 15.8105C794.243 15.7583 794.18 15.8679 794.284 16.054C794.389 16.2399 794.328 16.3921 794.15 16.3921C793.672 16.3921 792.574 15.7505 792.574 15.4708C792.574 15.338 791.757 14.9088 790.759 14.5169C789.76 14.125 788.944 13.7105 788.944 13.5954C788.944 13.2901 787.786 13.1334 787.402 13.3869C787.149 13.5535 787.031 13.5564 786.893 13.3987C786.701 13.1792 785.879 13.3325 784.434 13.8574C784.016 14.0089 783.842 14.0258 784.001 13.8996C784.147 13.7835 784.105 13.6884 783.908 13.6884C783.711 13.6884 783.302 13.573 782.998 13.4319C782.506 13.2025 782.327 13.2095 781.309 13.4976C780.624 13.6912 780.357 13.8489 780.638 13.8925C780.98 13.9456 780.915 14.0573 780.396 14.3067C779.314 14.8265 778.609 14.8875 778.518 14.4694C778.356 13.7208 778.155 13.4509 777.71 13.3818C777.373 13.3296 777.328 13.4182 777.543 13.7107C777.949 14.2641 777.799 15.0636 777.244 15.3074C776.989 15.4191 775.826 15.5447 774.66 15.5864C772.768 15.6538 772.506 15.6239 772.232 15.3089C771.982 15.0205 771.921 15.0098 771.902 15.2515C771.871 15.6586 771.222 15.6219 770.407 15.167L769.725 14.7868L769.713 15.167C769.703 15.4756 769.496 15.5472 768.612 15.5472C767.765 15.5472 767.523 15.4722 767.523 15.2092C767.523 15.0215 767.28 14.8713 766.978 14.8713C766.678 14.8713 766.433 14.7918 766.433 14.6948C766.433 14.5978 766.229 14.5367 765.979 14.559C765.406 14.6102 763.77 14.3618 763.525 14.186C763.185 13.9424 762.291 13.9388 762.274 14.1813C762.247 14.5732 761.319 14.5984 761.102 14.2131C760.887 13.829 760.265 13.7228 760.256 14.0686C760.252 14.2104 760.13 14.1965 759.885 14.0263C759.574 13.8105 759.41 13.8339 758.781 14.1835C758.099 14.5622 757.945 14.5781 756.809 14.3868C756.131 14.2727 754.337 14.1546 752.824 14.1245C750.428 14.0767 750.024 14.1108 749.705 14.3881C749.412 14.6426 749.196 14.671 748.628 14.5296C747.857 14.3374 747.668 14.5189 748.323 14.8236C748.621 14.9627 748.418 15.0049 747.548 14.9841C746.618 14.9618 746.234 14.8392 745.735 14.4062C745.189 13.9315 745.04 13.8915 744.647 14.1124C744.241 14.3395 744.141 14.3368 743.749 14.0868C743.241 13.7639 742.318 13.9351 742.616 14.2969C742.946 14.6972 740.755 14.5972 740.287 14.1906C740.052 13.986 739.718 13.8982 739.458 13.9731C739.218 14.0419 738.695 14.101 738.296 14.1046C737.788 14.109 737.594 14.2126 737.649 14.4488C737.693 14.6347 737.639 14.6918 737.529 14.5755C737.224 14.2558 736.3 14.3227 736.36 14.66C736.472 15.2807 736.278 15.5472 735.715 15.5472C735.361 15.5472 735.209 15.4531 735.329 15.3078C735.523 15.0724 734.886 14.8713 733.947 14.8713C733.685 14.8713 733.085 15.06 732.615 15.2909C732.127 15.5305 731.345 15.7116 730.792 15.7133C730.26 15.7148 729.741 15.8112 729.64 15.9274C729.498 16.0903 729.375 16.0851 729.103 15.9041C728.723 15.651 728.462 15.7164 726.824 16.4751C726.119 16.8014 726.064 16.8024 724.968 16.5096C724.058 16.2666 723.93 16.2595 724.311 16.4731C724.93 16.8205 724.569 16.9738 723.663 16.7478C721.965 16.3249 719.125 16.5991 718.696 17.2274C718.408 17.6495 718.194 17.6533 717.168 17.2545C716.627 17.0446 716.437 16.8293 716.575 16.5843C716.686 16.3855 716.626 16.2231 716.44 16.2231C715.789 16.2231 714.514 16.9162 714.514 17.2698C714.514 17.6168 714.493 17.6183 713.788 17.3215C713.389 17.1534 713.062 17.0748 713.062 17.147C713.062 17.2193 712.831 17.1892 712.549 17.0802C712.152 16.9268 711.929 16.9354 711.561 17.1184C711.3 17.2485 710.837 17.3248 710.531 17.2879C710.226 17.2511 709.649 17.3361 709.25 17.477C708.85 17.6179 708.723 17.7357 708.966 17.7386C709.21 17.7416 709.321 17.8496 709.215 17.9787C709.109 18.108 708.735 18.1786 708.384 18.1361C708.034 18.0935 707.531 18.1797 707.267 18.3275C706.858 18.5572 706.875 18.581 707.383 18.4902C708.112 18.3601 708.17 18.643 707.47 18.9132C707.08 19.0639 706.925 19.0606 706.81 18.8994C706.716 18.7682 705.561 19.0841 703.747 19.7374C702.145 20.3139 700.71 20.7857 700.556 20.7857C700.403 20.7857 699.956 20.9758 699.564 21.2082C699.171 21.4406 698.666 21.6307 698.44 21.6307C698.138 21.6307 698.137 21.5812 698.438 21.4411C698.662 21.3368 698.758 21.1452 698.651 21.0152C698.263 20.5449 696.832 21.5996 697.053 22.1924C697.082 22.2691 696.927 22.2804 696.708 22.2177C696.484 22.1532 696.225 22.2576 696.113 22.4585C695.91 22.8201 695.272 22.9567 695.272 22.6387C695.272 22.5185 695.054 22.5182 694.575 22.6373C694.078 22.761 693.838 22.7547 693.738 22.6153C693.519 22.3098 691.642 22.3309 691.636 22.639C691.632 22.825 691.551 22.8404 691.35 22.6932C690.95 22.3999 689.564 22.6153 689.345 23.0048C689.203 23.2566 688.954 23.31 688.286 23.232C687.718 23.1656 687.247 23.2223 686.94 23.3942C686.213 23.8023 682.506 23.7575 681.676 23.3306C681.325 23.1502 680.279 22.8817 679.351 22.7336C677.728 22.4751 677.64 22.478 677.059 22.8085C676.698 23.0143 676.225 23.111 675.879 23.0493C675.556 22.9915 675.303 23.0329 675.303 23.1434C675.303 23.2517 675.115 23.2864 674.885 23.2201C674.588 23.1348 674.633 23.0434 675.04 22.9048C676.076 22.5523 674.965 22.2001 672.263 22.0242C671.373 21.9664 670.938 21.9947 671.079 22.1011C671.202 22.1939 670.902 22.3919 670.411 22.5417C669.406 22.8482 667.678 22.907 667.678 22.6346C667.678 22.5362 667.515 22.5026 667.315 22.5601C667.116 22.6175 666.952 22.5788 666.952 22.4742C666.952 22.2309 665.551 22.4205 664.663 22.7838C664.132 23.001 663.873 23.0133 663.306 22.8484C662.367 22.5753 662.048 22.591 662.571 22.8844C662.902 23.0699 662.891 23.1561 662.525 23.2646C662.264 23.3418 662.034 23.5001 662.015 23.6162C661.995 23.7325 661.954 23.9415 661.924 24.0809C661.858 24.3858 660.79 24.4245 660.757 24.1232C660.745 24.0071 660.586 24.083 660.406 24.2922C660.225 24.5014 659.901 24.6724 659.685 24.6724C659.428 24.6724 659.407 24.5769 659.624 24.3961C659.828 24.2266 659.817 23.9082 659.595 23.5718C659.275 23.087 659.124 23.0371 658.289 23.141C657.567 23.2309 657.145 23.1647 656.486 22.8583C656.014 22.6383 655.467 22.483 655.272 22.5134C654.828 22.5824 654.923 22.9136 655.37 22.8558C655.55 22.8327 655.697 22.8845 655.697 22.9712C655.697 23.2211 654.213 23.3732 653.772 23.1683C653.482 23.0332 653.494 22.9825 653.816 22.9825C654.235 22.9825 654.195 22.7078 653.642 21.7574C653.375 21.2986 652.797 21.4088 652.756 21.9264C652.727 22.3122 652.68 22.3336 652.484 22.0531C652.197 21.6427 651.493 21.5526 650.816 21.8402C650.394 22.0198 650.434 22.1126 651.072 22.4333C651.489 22.6425 651.638 22.8136 651.403 22.8136C651.169 22.8136 650.972 22.7186 650.966 22.6023C650.959 22.4744 650.762 22.5087 650.467 22.6897C650.173 22.8705 649.743 22.946 649.379 22.881C648.803 22.7782 648.812 22.6101 649.432 21.8419C649.535 21.7146 649.298 21.6307 648.838 21.6307C648.323 21.6307 648.073 21.7378 648.073 21.9587C648.073 22.1391 647.888 22.3399 647.661 22.4049C647.362 22.491 647.32 22.2625 647.506 21.57C647.775 20.5666 647.679 20.5076 645.894 20.588C642.879 20.7242 641.901 20.7212 641.901 20.5754C641.901 20.4736 641.703 20.4826 641.406 20.5975C641.005 20.7523 640.944 20.7078 641.085 20.3648C641.258 19.9432 640.864 19.8403 639.423 19.931C639.159 19.9477 638.709 19.8714 638.424 19.7614C638.012 19.6023 637.907 19.6174 637.907 19.8357C637.907 19.9864 637.662 20.1098 637.362 20.1098C637.063 20.1098 636.818 20.0385 636.818 19.9515C636.818 19.8643 636.166 19.7972 635.37 19.8022C634.574 19.8075 634.012 19.8786 634.121 19.9608C634.23 20.0427 633.86 20.1044 633.299 20.098C632.557 20.0893 632.449 20.0547 632.901 19.9711C633.719 19.82 633.252 19.5055 632.057 19.4024C631.276 19.3352 631.138 19.3754 631.281 19.6289C631.376 19.7984 631.599 19.8954 631.776 19.8445C632.311 19.6904 632.136 20.0535 631.569 20.2727C630.819 20.5623 630.183 20.3171 630.441 19.8379C630.674 19.4058 630.373 19.3598 627.469 19.3859C626.508 19.3945 626.289 19.3311 626.289 19.0449C626.289 18.7086 626.267 18.7069 625.799 19.005C625.319 19.3107 624.257 19.2263 624.67 18.9152C624.785 18.8287 624.706 18.7579 624.495 18.7579C624.283 18.7579 624.097 18.5869 624.081 18.3777C624.066 18.1685 623.97 18.0926 623.87 18.2087C623.769 18.325 623.463 18.4199 623.19 18.4199C622.917 18.4199 622.563 18.5264 622.404 18.6564C622.238 18.7907 621.29 18.9303 620.207 18.9795C618.681 19.0489 618.231 19.0102 617.949 18.7853C617.628 18.5288 617.596 18.5305 617.586 18.8054C617.58 18.971 617.331 19.1501 617.032 19.2034C616.734 19.2568 616.573 19.3631 616.675 19.4399C616.777 19.5167 616.694 19.6272 616.491 19.6856C616.288 19.7439 616.123 19.6687 616.123 19.5183C616.123 19.368 615.966 19.2899 615.775 19.3448C615.584 19.3997 615.52 19.5564 615.633 19.6927C615.793 19.8876 615.498 19.9405 614.255 19.9395C612.894 19.9383 612.61 19.8749 612.22 19.4834C611.97 19.2331 611.766 18.9296 611.766 18.8088C611.766 18.6878 611.602 18.5889 611.403 18.5889C611.203 18.5889 611.04 18.6643 611.04 18.7564C611.04 18.8487 610.549 19.142 609.95 19.4085C609.246 19.7218 608.861 20.0605 608.861 20.3675C608.861 20.6286 608.754 20.792 608.622 20.7308C608.491 20.6696 608.16 20.706 607.887 20.8113C607.614 20.9167 607.354 20.973 607.309 20.9366C607.264 20.9001 607.054 20.7241 606.843 20.5454C606.119 19.9344 602.025 19.9243 599.587 20.5275C598.635 20.7631 598.09 20.8373 598.34 20.697C598.706 20.4914 598.656 20.4478 598.052 20.4478C597.65 20.4478 597.205 20.5808 597.064 20.7435C596.841 20.9997 596.76 20.9828 596.455 20.6168C596.136 20.2328 596.062 20.2203 595.651 20.4797C595.21 20.758 594.251 20.8011 593.744 20.5654C593.605 20.5007 593.254 20.4478 592.963 20.4478C592.524 20.4478 592.514 20.4927 592.907 20.7131C593.167 20.8589 593.679 20.9417 594.045 20.8973C594.662 20.8222 595.729 21.3777 595.327 21.5646C594.994 21.7197 593.992 21.4169 594.229 21.2327C594.367 21.1249 594.216 21.1379 593.887 21.2621C593.479 21.416 593.091 21.4351 592.637 21.3241C592.275 21.2354 591.243 21.1065 590.345 21.0372C589.446 20.9681 588.326 20.7709 587.855 20.5988C587.199 20.359 586.836 20.3269 586.298 20.4608C585.338 20.7001 584.291 20.5132 583.056 19.8817C582.484 19.5888 582.01 19.4344 582.005 19.5385C581.998 19.649 581.534 19.7025 580.886 19.6674C580.222 19.6314 579.868 19.6742 580 19.7742C580.122 19.8658 579.967 19.9408 579.656 19.9408C579.344 19.9408 579.089 20.0549 579.089 20.1943C579.089 20.3337 578.92 20.4478 578.714 20.4478C578.46 20.4478 578.466 20.3366 578.73 20.1062C579.173 19.7215 578.935 19.4339 578.173 19.4339C577.892 19.4339 577.489 19.2826 577.276 19.0979C577.064 18.913 576.487 18.7148 575.995 18.6574C575.503 18.5999 575.191 18.485 575.301 18.4019C575.412 18.3189 575.259 18.251 574.962 18.251C574.665 18.251 574.108 18.0649 573.723 17.8375C573.198 17.5262 572.921 17.4718 572.608 17.6178C572.294 17.7636 572.191 17.7195 572.191 17.4398C572.191 17.2354 572.028 17.0681 571.828 17.0681C571.628 17.0681 571.465 17.1948 571.465 17.3498C571.465 17.5046 571.358 17.5813 571.226 17.5201C571.095 17.4589 570.776 17.4907 570.517 17.5906C570.17 17.7249 569.836 17.6805 569.235 17.4201C568.789 17.2264 568.218 17.0681 567.968 17.0681C567.717 17.0681 567.299 16.927 567.038 16.7543C566.456 16.3695 565.075 16.1459 564.757 16.3852C564.629 16.482 564.107 16.5611 563.599 16.5611C562.992 16.5611 562.736 16.6361 562.854 16.7794C562.953 16.8994 562.785 17.1466 562.481 17.3286C562.023 17.6022 561.965 17.6083 562.146 17.3638C562.615 16.7316 559.123 17.0868 557.292 17.8577C556.405 18.2309 556.368 18.2329 556.316 17.9103C556.286 17.7259 556.424 17.575 556.623 17.575C556.822 17.575 556.884 17.499 556.761 17.406C556.422 17.1507 555.853 17.2036 555.853 17.4905C555.853 17.6299 555.707 17.744 555.529 17.744C555.351 17.744 555.102 17.8689 554.976 18.0213C554.792 18.2442 554.848 18.2599 555.258 18.1014C555.676 17.9399 555.813 18.0151 556.016 18.5173C556.152 18.8546 556.171 19.1733 556.058 19.2258C555.945 19.2782 555.853 19.1853 555.853 19.0192C555.853 18.7757 555.544 18.8351 554.257 19.3259L552.661 19.9347L552.426 19.4993C552.269 19.2076 552.432 18.8738 552.921 18.4884C553.509 18.0245 553.547 17.913 553.118 17.913C552.825 17.913 552.585 18.0271 552.585 18.1665C552.585 18.3059 552.422 18.4199 552.222 18.4199C552.023 18.4199 551.854 18.5529 551.848 18.7157C551.838 18.9926 551.814 18.9931 551.476 18.7228C551.276 18.5634 550.874 18.4769 550.579 18.5296C549.901 18.6506 549.881 18.9269 550.55 18.9269C550.828 18.9269 551.155 19.0472 551.276 19.1942C551.623 19.6152 551.546 19.626 550.77 19.2649C550.371 19.079 549.891 18.9269 549.705 18.9269C549.519 18.9269 549.263 18.775 549.137 18.5893C549.01 18.4037 548.509 18.2053 548.023 18.1486C547.099 18.0407 546.81 17.7563 547.593 17.7271C547.843 17.7176 547.423 17.6418 546.661 17.5583C545.78 17.4618 545.024 17.4689 544.588 17.5776C544.21 17.6717 543.772 17.7386 543.614 17.7263C542.784 17.6617 542.362 17.7692 542.551 17.9975C542.695 18.1729 542.527 18.251 542.003 18.251C541.437 18.251 541.291 18.3322 541.426 18.573C541.561 18.8127 541.381 18.9152 540.724 18.9737C539.503 19.0824 536.61 18.9152 536.61 18.7359C536.61 18.4771 535.569 18.5788 535.217 18.872C534.773 19.2417 533.706 19.3113 533.706 18.9707C533.706 18.7662 533.552 18.7888 533.028 19.07C532.152 19.5398 531.776 19.5332 532.091 19.0536C532.32 18.703 532.253 18.7116 531.221 19.1638C530.259 19.5854 530.019 19.6226 529.516 19.4283C529.025 19.2385 528.878 19.2412 528.606 19.4447C528.347 19.6385 528.142 19.6469 527.585 19.4864C526.997 19.3168 526.713 19.3585 525.76 19.7546C525.139 20.0125 524.74 20.2739 524.872 20.3356C525.005 20.3972 524.831 20.4478 524.487 20.4478C524.142 20.4478 523.961 20.3717 524.084 20.2788C524.208 20.1858 524.136 20.1098 523.924 20.1098C523.713 20.1098 523.539 19.9388 523.538 19.7296C523.536 19.4026 523.331 19.3458 522.072 19.3237C520.766 19.3007 520.633 19.334 520.838 19.6338C521.034 19.9217 520.92 19.9624 520.034 19.9192C519.466 19.8915 518.814 19.9226 518.585 19.9883C518.128 20.1198 517.606 19.6644 517.933 19.4186C518.238 19.1883 515.764 19.2334 514.77 19.4761C514.27 19.5983 513.954 19.8065 514.023 19.9699C514.112 20.1813 513.954 20.2294 513.395 20.1613C512.911 20.1024 512.646 20.1517 512.642 20.3013C512.638 20.4816 512.559 20.4765 512.285 20.2788C511.945 20.0339 511.883 20.0578 511.785 20.4716C511.711 20.7869 510.408 21.0808 510.21 20.827C509.908 20.44 509.38 20.7962 509.38 21.3872C509.38 21.8948 509.265 21.9686 508.472 21.9686C507.973 21.9686 507.565 21.8972 507.565 21.8096C507.565 21.7223 507.116 21.7598 506.566 21.8931C505.271 22.2077 505.03 22.1998 504.995 21.8419C504.978 21.6653 504.892 21.6312 504.783 21.7574C504.682 21.8735 504.123 21.9686 503.541 21.9686C502.959 21.9686 502.482 22.033 502.482 22.1118C502.482 22.3281 501.292 22.9077 500.604 23.0261C500.27 23.0838 499.943 23.2957 499.878 23.4973C499.794 23.7563 499.269 23.9498 498.082 24.1587C496.461 24.4441 496.411 24.4434 496.582 24.1406C496.79 23.7698 496.215 23.7269 495.607 24.0678C495.088 24.3591 493.042 24.7126 493.042 24.5112C493.042 24.2775 490.844 23.9905 490.192 24.1391C489.863 24.2141 488.72 24.2633 487.653 24.2481C486.537 24.2322 485.648 24.2986 485.561 24.4042C485.477 24.5053 484.639 24.611 483.698 24.6394C482.757 24.6678 481.862 24.7819 481.711 24.8929C481.515 25.0366 481.433 25.0217 481.429 24.8414C481.425 24.6492 481.007 24.5928 479.699 24.6078C477.207 24.6367 477.001 24.6553 477.233 24.8297C477.618 25.1195 476.6 25.2348 476.155 24.9517C475.607 24.6031 475.204 24.5877 475.483 24.9259C475.628 25.1018 475.458 25.1793 474.927 25.1793C474.49 25.1793 474.162 25.071 474.162 24.9259C474.162 24.5967 473.213 24.5967 472.942 24.9259C472.623 25.3128 471.371 25.2287 470.195 24.7413C469.614 24.5004 469.029 24.3163 468.895 24.3324C468.761 24.3483 468.217 24.1414 467.686 23.8726C466.534 23.2899 464.362 22.5645 464.354 22.7598C464.351 22.8359 464.175 22.784 463.963 22.6446C463.673 22.4538 463.532 22.4433 463.394 22.6023C463.14 22.894 462.544 22.8681 462.544 22.5653C462.544 22.4246 462.329 22.3556 462.046 22.4061C461.773 22.455 461.444 22.3679 461.316 22.2128C461.132 21.9896 460.975 21.9723 460.566 22.1304C460.019 22.3419 458.663 22.1227 458.102 21.7321C457.918 21.6035 457.834 21.6112 457.83 21.7574C457.821 22.0773 456.806 22.0102 456.669 21.6808C456.574 21.4512 456.291 21.5171 455.271 22.0061C454.567 22.3434 453.547 22.6713 453.003 22.7348C452.46 22.7982 452.015 22.918 452.015 23.0008C452.015 23.0838 451.834 23.1515 451.613 23.1515C451.392 23.1515 451.296 23.0496 451.398 22.9249C451.501 22.8004 451.43 22.5912 451.239 22.4602C450.957 22.2654 450.79 22.2911 450.321 22.6023C450.006 22.8115 449.517 22.9825 449.235 22.9825C448.953 22.9825 448.36 23.0915 447.918 23.2249C447.187 23.4452 447.018 23.4285 446.056 23.0405C445.284 22.7287 445.123 22.5782 445.46 22.4815C445.782 22.3887 445.585 22.2715 444.8 22.0891C443.716 21.8377 443.655 21.8439 442.946 22.2791C442.25 22.7056 442.185 22.713 441.703 22.4232C441.336 22.2032 441.118 22.1738 440.926 22.3183C440.734 22.4634 440.568 22.4428 440.329 22.2437C440.147 22.0925 439.597 21.9686 439.108 21.9686C438.515 21.9686 438.219 21.8735 438.219 21.6832C438.219 21.4431 438.101 21.4564 437.478 21.7677C437.071 21.9712 436.329 22.1376 435.829 22.1376C435.33 22.1376 434.562 22.2931 434.124 22.483C433.546 22.7336 433.286 22.7684 433.177 22.6098C433.095 22.4894 432.87 22.3434 432.678 22.2851C432.217 22.1451 430.916 22.3076 431.141 22.4771C431.237 22.5498 431.085 22.6503 430.804 22.7007C430.522 22.751 430.192 22.6721 430.071 22.5253C429.95 22.3784 429.749 22.3059 429.623 22.3642C429.498 22.4224 429.012 22.2774 428.543 22.0416C428.073 21.8061 427.69 21.6932 427.69 21.7909C427.69 21.8887 427.388 21.9686 427.02 21.9686C426.291 21.9686 425.148 21.4703 425.148 21.1526C425.148 21.0438 424.862 20.9608 424.513 20.9681C424.129 20.9762 424.058 21.0154 424.333 21.0669C424.584 21.1141 424.692 21.2258 424.573 21.3153C424.44 21.4157 424.163 21.4029 423.85 21.282C423.125 21.0019 421.545 21.2346 421.162 21.678C420.983 21.8843 420.827 21.9478 420.814 21.8191C420.788 21.5475 419.339 22.3428 419.339 22.629C419.339 22.7304 418.849 22.823 418.25 22.8347C417.651 22.8463 417.028 22.8653 416.867 22.8769C416.705 22.8886 415.89 23.2402 415.056 23.6585C414.221 24.0767 413.537 24.3593 413.534 24.2863C413.532 24.2133 413.203 24.2349 412.804 24.3344C412.253 24.4716 412.076 24.4628 412.072 24.2981C412.067 24.123 412.009 24.1235 411.767 24.3005C411.48 24.5117 409.985 24.4835 409.179 24.2516C408.976 24.1933 408.808 24.207 408.807 24.2822C408.804 24.4334 406.946 24.8748 406.731 24.7753C406.657 24.7408 406.85 24.595 407.159 24.451C407.951 24.0823 407.865 23.9965 406.704 23.9965C406.145 23.9965 405.522 23.9196 405.32 23.8254C405.072 23.7102 404.192 23.7119 402.615 23.8308C401.33 23.9278 399.257 24.0198 398.009 24.0351C396.462 24.0542 395.739 24.1306 395.739 24.2751C395.739 24.4194 395.304 24.4659 394.378 24.4206C393.629 24.3839 392.976 24.34 392.926 24.3231C392.876 24.306 392.712 24.2761 392.563 24.2565C392.413 24.2367 391.988 24.1592 391.618 24.084C391.241 24.0071 390.843 24.0174 390.711 24.1073C390.415 24.3077 387.026 24.3033 387.026 24.1026C387.026 24.0215 386.801 24.0417 386.527 24.1477C386.253 24.2536 385.763 24.2929 385.438 24.2347C385.112 24.1764 384.847 24.2131 384.847 24.3163C384.847 24.4193 384.521 24.5034 384.121 24.5034C383.637 24.5034 383.395 24.3907 383.395 24.1654C383.395 23.7568 383.092 23.7421 382.001 24.0978C381.545 24.2467 380.854 24.3297 380.465 24.2824C380.011 24.2271 379.552 24.3268 379.179 24.5612C378.787 24.8081 378.544 24.8576 378.426 24.7146C378.183 24.4201 377.586 24.45 377.586 24.7569C377.586 24.9004 377.261 25.0104 376.836 25.0104C375.38 25.0104 374.615 25.3309 374.856 25.8401C375.005 26.1568 374.895 26.3786 374.516 26.525C374.062 26.7004 373.955 26.7005 373.955 26.5256C373.955 26.3781 373.734 26.4031 373.253 26.6054C372.831 26.7833 372.642 27.0122 372.779 27.1808C372.98 27.428 372.932 27.4262 372.366 27.1649C372.014 27.0024 371.491 26.8692 371.206 26.8692C370.921 26.8692 370.688 26.7931 370.688 26.7002C370.688 26.6073 369.784 26.5312 368.68 26.5312C367.229 26.5312 366.613 26.4608 366.462 26.2777C366.166 25.9181 365.67 25.9607 364.238 26.4694C363.348 26.7854 362.907 26.8562 362.718 26.7139C362.572 26.6035 362.304 26.5365 362.122 26.5645C361.941 26.5927 361.411 26.4383 360.945 26.2215C360.479 26.0045 360 25.8727 359.88 25.9285C359.76 25.9842 359.856 26.1199 360.092 26.2299C360.761 26.5412 360.603 26.7002 359.625 26.7002C358.95 26.7002 358.784 26.6331 358.954 26.4273C359.139 26.2032 359.023 26.1782 358.307 26.2875C357.828 26.3609 357.068 26.4085 356.619 26.3933C356.169 26.3783 355.802 26.4412 355.802 26.5331C355.802 26.625 355.23 26.7002 354.531 26.7002C353.832 26.7002 353.26 26.7572 353.26 26.8269C353.261 26.8967 352.596 26.9422 351.783 26.9283C350.815 26.9116 350.238 26.9841 350.111 27.138C349.987 27.2891 349.727 27.3236 349.385 27.2347C348.817 27.0867 346.362 27.3724 346.362 27.5865C346.362 27.7771 347.004 27.7408 347.841 27.5029C348.474 27.3231 348.662 27.3405 349.107 27.6197C349.394 27.8001 349.63 28.0092 349.63 28.0844C349.63 28.276 348.396 28.2552 347.969 28.0565C347.74 27.9499 347.244 27.9816 346.559 28.1472C345.977 28.2875 345.246 28.3492 344.934 28.2841C343.928 28.0749 343.654 28.1094 342.822 28.5494C342.138 28.9119 342.041 28.9271 342.221 28.6435C342.401 28.3605 342.314 28.3742 341.684 28.728C341.163 29.0207 340.925 29.0726 340.909 28.897C340.897 28.7576 340.624 28.8717 340.303 29.1505C339.982 29.4293 339.375 29.8178 338.956 30.0138C338.536 30.2099 337.907 30.5485 337.558 30.7663C336.978 31.1276 336.922 31.1335 336.922 30.8343C336.922 30.5429 336.819 30.5573 336.014 30.9615C335.515 31.2119 335.104 31.4774 335.101 31.5511C335.098 31.6249 334.649 31.9134 334.103 32.1922C333.373 32.5647 332.749 32.7071 331.748 32.7294C330.999 32.746 330.12 32.8835 329.795 33.0348C329.47 33.1862 329 33.2737 328.752 33.2293C328.503 33.1848 328.119 33.3325 327.898 33.5574C327.524 33.9397 326.03 34.1523 326.03 33.8233C326.03 33.6252 323.861 33.6142 323.082 33.8084C322.701 33.9032 322.361 33.9054 322.24 33.814C321.991 33.6271 320.605 33.7675 319.858 34.0549C319.558 34.1702 318.946 34.3167 318.496 34.3804C318.047 34.4441 317.68 34.6001 317.68 34.727C317.68 34.8539 317.367 35.0038 316.986 35.0602C316.604 35.1165 316.029 35.3497 315.707 35.5785C315.385 35.8073 314.8 35.9944 314.407 35.9944C313.696 35.9944 312.78 36.3832 310.49 37.6575C309.627 38.1381 308.836 38.3779 307.658 38.5158C306.759 38.6212 305.908 38.674 305.766 38.6332C305.394 38.5259 304.434 38.8908 303.929 39.3318C303.69 39.5409 303.196 39.712 302.832 39.712C302.467 39.712 301.867 39.8996 301.497 40.1289C300.96 40.4613 300.58 40.5311 299.618 40.4738C298.905 40.4314 298.5 40.4683 298.628 40.5639C298.746 40.6531 298.52 40.726 298.125 40.726C297.731 40.726 297.333 40.8211 297.242 40.9372C297.109 41.1062 296.979 41.1062 296.594 40.9372C295.762 40.5718 295.169 40.6949 295.169 41.2329C295.169 41.5629 294.985 41.7399 294.643 41.7399C293.894 41.7399 292.152 42.5327 292.435 42.7452C292.58 42.8543 292.249 42.9228 291.578 42.9228C290.922 42.9228 290.336 42.8045 290.111 42.627C289.784 42.3692 289.69 42.3638 289.373 42.5848C289.172 42.7242 288.948 42.9143 288.874 43.0073C288.801 43.1002 288.389 43.0314 287.961 42.8543C287.442 42.6402 287.182 42.6051 287.182 42.7497C287.182 42.9021 286.816 42.9393 285.954 42.8743C285.278 42.8232 284.584 42.843 284.411 42.9184C284.238 42.9936 283.306 42.9594 282.341 42.8425C280.644 42.637 280.557 42.6444 279.709 43.0703C279.226 43.3126 278.831 43.5774 278.831 43.6589C278.831 43.7405 278.428 43.7712 277.936 43.7275C277.444 43.6837 276.967 43.7319 276.876 43.8344C276.769 43.9546 276.7 43.9458 276.681 43.8099C276.633 43.4561 275.927 43.5747 275.927 43.9367C275.927 44.313 275.551 44.3705 274.944 44.0876C274.65 43.9507 274.424 44.0022 274.106 44.2794C273.761 44.5792 273.605 44.6094 273.359 44.4242C273.151 44.2675 272.383 44.1944 271.038 44.2028C269.933 44.2099 269.028 44.141 269.028 44.0499C269.028 43.9588 268.729 44.0103 268.363 44.1643C267.998 44.3184 267.588 44.3928 267.452 44.3296C267.316 44.2665 266.993 44.3502 266.733 44.5156C266.283 44.8022 266.193 44.7997 264.839 44.4617C263.374 44.0964 262.865 44.1085 260.723 44.5595C259.7 44.7748 259.446 44.7797 259.185 44.5883C258.952 44.4173 258.872 44.413 258.868 44.5721C258.865 44.6892 258.014 44.9665 256.977 45.1882C255.298 45.5474 255.005 45.5653 254.305 45.3517C253.62 45.1429 253.459 45.1452 253.06 45.3692C252.489 45.6894 251.964 45.7014 251.964 45.3942C251.964 45.2664 251.444 45.1133 250.808 45.0542C249.702 44.9513 249.475 45.0087 248.884 45.542C248.771 45.6436 248.612 45.6267 248.485 45.4998C248.368 45.3835 247.872 45.2885 247.382 45.2885C246.29 45.2885 244.703 44.8265 244.703 44.5087C244.703 44.3799 244.539 44.2746 244.339 44.2746C244.14 44.2746 243.976 44.3387 243.976 44.4171C243.976 44.5846 241.278 45.2196 240.01 45.3506C239.43 45.4104 238.969 45.3431 238.66 45.1537C238.317 44.9436 238.187 44.9286 238.179 45.0979C238.17 45.2762 238.051 45.285 237.665 45.1358C237.389 45.0292 236.565 44.9313 235.834 44.9185C235.065 44.9051 234.35 44.7826 234.135 44.6271C233.848 44.4195 233.81 44.4598 233.967 44.8063C234.183 45.2853 233.285 45.6186 232.616 45.3073C232.426 45.2186 232.044 45.1861 231.769 45.2353C231.494 45.2845 231.269 45.2351 231.269 45.1256C231.269 45.005 231.033 45.0363 230.67 45.2052C230.113 45.4643 230.013 45.4503 229.25 45.006C228.799 44.7432 228.297 44.5893 228.135 44.664C227.973 44.7388 228.081 44.8718 228.375 44.9597C228.71 45.0602 228.774 45.1667 228.546 45.2463C228.346 45.3161 228.183 45.4682 228.183 45.5843C228.183 45.7005 228.02 45.7915 227.82 45.7864C227.62 45.7813 227.488 45.5912 227.525 45.3639C227.615 44.8172 227.091 44.8426 225.586 45.4575C224.904 45.7364 224.044 45.9645 223.676 45.9645C223.308 45.9645 222.804 46.0786 222.555 46.218C222.307 46.3574 221.584 46.4714 220.95 46.4714C220.315 46.4714 219.592 46.5664 219.343 46.6823C219.094 46.7983 218.04 46.9054 217.001 46.9204C215.962 46.9353 214.734 46.9546 214.271 46.963C213.613 46.975 213.478 47.0489 213.65 47.3022C213.772 47.4803 213.706 47.6734 213.504 47.7316C213.302 47.7897 213.033 47.6439 212.905 47.4078C212.763 47.1447 212.418 46.9784 212.013 46.9784C211.649 46.9784 211.091 46.8569 210.772 46.7084C210.453 46.56 209.542 46.4093 208.747 46.3738C206.952 46.2932 205.73 45.9305 204.739 45.1846C203.836 44.5043 200.439 43.7025 198.904 43.8072C198.187 43.8562 197.871 43.7929 197.748 43.5754C197.51 43.1509 195.816 42.9861 195.038 43.3118C194.479 43.5458 194.291 43.5453 193.147 43.3062C191.884 43.0424 191.576 42.9978 190.683 42.9484C190.332 42.9292 190.312 42.84 190.601 42.5887C190.919 42.312 190.885 42.2723 190.405 42.358C189.761 42.4729 186.975 42.0974 186.975 41.8958C186.975 41.8255 187.179 41.7339 187.428 41.6924C187.678 41.6508 187.147 41.5263 186.248 41.4156C185.35 41.3049 184.139 41.1116 183.557 40.986C182.976 40.8603 182.281 40.7966 182.014 40.8444C181.747 40.8921 181.528 40.8444 181.528 40.7383C181.528 40.6323 180.948 40.386 180.237 40.191C179.453 39.9757 179.021 39.7457 179.137 39.6052C179.266 39.4481 179.04 39.3741 178.431 39.3741C177.745 39.3741 177.533 39.2849 177.529 38.9939C177.525 38.7326 177.431 38.6816 177.228 38.8306C177.051 38.9602 176.664 38.9998 176.267 38.9288C175.728 38.8326 175.639 38.8754 175.796 39.1552C175.949 39.4268 175.848 39.4829 175.322 39.4189C174.955 39.3742 174.559 39.1977 174.442 39.0265C174.316 38.8416 174.016 38.7536 173.704 38.8093C173.415 38.861 173.178 38.8272 173.178 38.7343C173.178 38.6414 173.423 38.5215 173.722 38.468C174.063 38.4073 174.256 38.1628 174.238 37.8162C174.223 37.5114 174.127 37.3569 174.027 37.473C173.926 37.5893 173.684 37.6842 173.489 37.6842C173.294 37.6842 173.235 37.6094 173.356 37.5178C173.493 37.4145 173.157 37.3905 172.471 37.4544C171.809 37.5159 171.146 37.4732 170.822 37.3479C170.281 37.1387 168.895 37.1763 167.582 37.4356C167.129 37.5249 166.968 37.5115 167.119 37.3976C167.247 37.3013 167.046 37.094 166.673 36.9368C166.301 36.7797 166.07 36.517 166.163 36.3531C166.255 36.1894 166.074 35.9562 165.76 35.8352C165.447 35.714 165.19 35.4805 165.19 35.3161C165.19 35.0396 163.693 34.701 162.871 34.7915C162.694 34.811 162.177 34.6641 161.722 34.4652C161.189 34.232 160.645 34.1406 160.189 34.2079C159.766 34.2704 159.3 34.2092 159.025 34.0549C158.435 33.7239 157.203 33.7214 157.203 34.0511C157.203 34.4203 155.527 34.3696 154.944 33.9826C154.678 33.8055 153.647 33.4824 152.654 33.2644C151.662 33.0464 150.767 32.8225 150.668 32.7668C150.568 32.711 150.119 32.5751 149.669 32.4651C149.22 32.3549 148.852 32.1243 148.852 31.9524C148.852 31.7785 148.519 31.5996 148.099 31.5486C147.685 31.4982 147.257 31.2991 147.149 31.1063C147.021 30.8785 146.657 30.7558 146.108 30.7558C145.16 30.7558 144.61 30.4888 145.31 30.368C145.569 30.3232 145.336 30.2095 144.772 30.1049C143.995 29.9609 143.201 29.9893 141.141 30.2349C139.691 30.4076 138.231 30.6014 137.897 30.6654C137.52 30.7379 137.031 30.6614 136.605 30.463C135.089 29.7573 134.166 29.573 132.151 29.573C130.421 29.573 130 29.5069 129.192 29.1082C128.674 28.8527 127.494 28.3777 126.57 28.0529C125.646 27.728 124.89 27.3582 124.89 27.231C124.89 27.0644 124.56 27.025 123.71 27.0901C121.932 27.2261 118.577 26.7533 118.157 26.3075C117.966 26.1052 117.441 25.8644 116.99 25.7723C116.538 25.6802 116.078 25.471 115.966 25.3076C115.855 25.1442 115.538 25.0104 115.262 25.0104C114.986 25.0104 114.598 24.8772 114.401 24.7146C114.114 24.4777 113.951 24.461 113.584 24.6301C113.062 24.8708 111.819 24.9159 111.819 24.6942C111.819 24.6132 110.313 24.4923 108.473 24.4252C106.045 24.3368 104.655 24.1918 103.403 23.8964C101.399 23.4238 100.719 23.3933 99.9675 23.743C99.0398 24.1749 97.4057 24.0639 96.8556 23.5317C96.3923 23.0836 96.2849 23.0686 93.8403 23.1089C92.4465 23.1319 90.6094 23.1544 89.7583 23.159C87.8678 23.1688 82.6298 22.5307 81.1398 22.1091C80.5407 21.9396 79.8055 21.8002 79.506 21.7993C79.2064 21.7983 78.4712 21.6778 77.8722 21.5316C76.8004 21.2699 74.5468 21.1147 71.7112 21.1073C70.9183 21.1053 70.0716 21.0269 69.8291 20.9333C69.5216 20.8145 69.1785 20.8557 68.6927 21.0701C65.5706 22.4477 63.5338 22.7357 60.447 22.2356C59.4173 22.0688 58.7972 22.0506 58.3071 22.1728C57.8271 22.2922 57.1634 22.2821 56.1265 22.139C53.5861 21.7887 53.0019 21.6469 53.0019 21.3807C53.0019 21.1928 52.6051 21.1237 51.5257 21.1237C50.7138 21.1237 49.7746 21.0553 49.438 20.9716C49.1018 20.888 48.1756 20.7715 47.3798 20.7127C46.5189 20.6492 45.4893 20.4106 44.8383 20.1238C44.2363 19.8587 43.0901 19.5386 42.2914 19.4126C41.4926 19.2867 40.5123 19.018 40.1129 18.8155C39.2365 18.3713 38.7071 18.3143 36.9579 18.4764C35.3251 18.6276 33.7592 18.4669 33.7592 18.1482C33.7592 17.8275 32.8029 17.8527 30.0693 18.2457C27.6277 18.5967 26.7759 18.6667 22.6856 18.8529C18.502 19.0433 16.6449 18.9947 13.9719 18.6241C9.71967 18.0347 6.95961 17.8691 3.26139 17.9814C0.202528 18.0744 -0.322107 18.0478 -1.37646 17.7462C-2.03035 17.5591 -2.88792 17.406 -3.28257 17.406C-3.99455 17.406 -4 17.6565 -4 51.203V85H722H1448L1447.77 79.6347C1447.43 71.8156 1447.23 65.9371 1447.02 57.4555C1446.78 48.3342 1446.51 39.8609 1446.28 34.3045C1446.18 32.0275 1446.02 27.5409 1445.92 24.3344C1445.52 11.6465 1445.2 6.85023 1444.69 6.2287C1444.47 5.95562 1444.54 5.68051 1444.9 5.35285C1445.39 4.90521 1445.37 4.86939 1444.64 4.78033C1444.09 4.71324 1443.99 4.64683 1444.32 4.55423C1444.67 4.45115 1444.65 4.33843 1444.22 4.02835C1443.91 3.81137 1443.31 3.13949 1442.86 2.53537C1440.94 -0.105868 1441.07 0.000592476 1439.76 0.000592476C1439.1 0.000592476 1438.36 0.114657 1438.11 0.25407C1437.86 0.393482 1437.31 0.505182 1436.89 0.50214C1436.13 0.496902 1436.13 0.492001 1436.82 0.248663C1437.48 0.0176603 1437.42 0.000592476 1436.03 0.000592476C1435.18 0.000592476 1434.46 0.0909994 1434.36 0.211824C1434.21 0.380809 1434.17 0.380809 1434.15 0.211824C1434.1 -0.15386 1433.42 -0.0174886 1433.19 0.403791ZM1426.92 2.40305C1426.66 2.52421 1426.49 2.53418 1426.49 2.4284C1426.49 2.2028 1426.92 2.00289 1427.17 2.11578C1427.27 2.16377 1427.16 2.29304 1426.92 2.40305ZM1402.04 3.46478C1401.91 3.61924 1402.04 3.71826 1402.36 3.71826C1402.65 3.71826 1402.89 3.6042 1402.89 3.46478C1402.89 3.32537 1402.75 3.21131 1402.57 3.21131C1402.39 3.21131 1402.15 3.32537 1402.04 3.46478ZM1359.17 6.90633C1359.02 7.02411 1358.99 7.16606 1359.11 7.22182C1359.43 7.37307 1359.79 7.15068 1359.61 6.90565C1359.49 6.73396 1359.4 6.73396 1359.17 6.90633ZM1335 7.17248C1335 7.21354 1334.84 7.29398 1334.64 7.35144C1334.44 7.40889 1334.27 7.37526 1334.27 7.27691C1334.27 7.17857 1334.44 7.09796 1334.64 7.09796C1334.84 7.09796 1335 7.13142 1335 7.17248ZM1362.23 7.60491C1362.23 7.69785 1362.06 7.7739 1361.85 7.7739C1361.63 7.7739 1361.56 7.69785 1361.69 7.60491C1361.81 7.51197 1361.98 7.43593 1362.07 7.43593C1362.16 7.43593 1362.23 7.51197 1362.23 7.60491ZM1248.14 8.75671C1247.64 9.37435 1246.74 9.50346 1247.04 8.91455C1247.21 8.56509 1248.21 8.0463 1248.47 8.16696C1248.53 8.19535 1248.38 8.46082 1248.14 8.75671ZM1267.83 8.44984C1267.44 8.79186 1267.04 8.87095 1266.65 8.68675C1266.24 8.49597 1266.82 8.11187 1267.52 8.11187C1268.11 8.11187 1268.16 8.16611 1267.83 8.44984ZM1255.53 8.57658C1255.98 8.84155 1255.97 8.84932 1255.43 8.65144C1254.9 8.45829 1254.84 8.47417 1255.01 8.77817C1255.18 9.06866 1255.04 9.12662 1254.17 9.13085C1253.29 9.13524 1253.22 9.16228 1253.76 9.30828C1254.48 9.50397 1254.61 9.80172 1253.97 9.80172C1253.23 9.80172 1252.22 9.25674 1252.22 8.85675C1252.22 8.54853 1252.46 8.45761 1253.4 8.40303C1254.05 8.36568 1254.68 8.32276 1254.81 8.30789C1254.93 8.29302 1255.26 8.41384 1255.53 8.57658ZM1250.51 8.95679C1250.41 9.14268 1250.26 9.29476 1250.18 9.29476C1250.1 9.29476 1250.04 9.14268 1250.04 8.95679C1250.04 8.77091 1250.19 8.61882 1250.37 8.61882C1250.55 8.61882 1250.61 8.77091 1250.51 8.95679ZM1318.7 9.17444C1318.41 9.31234 1318.3 9.29341 1318.3 9.1033C1318.3 8.76736 1318.79 8.54007 1318.97 8.79203C1319.04 8.89883 1318.92 9.07102 1318.7 9.17444ZM1258.39 9.50599C1258.39 9.66923 1258.35 9.66754 1256.99 9.44719C1255.89 9.26755 1255.62 9.11834 1256.06 8.91573C1256.31 8.79896 1258.39 9.32484 1258.39 9.50599ZM1262.39 8.95679C1262.39 9.04973 1262.22 9.12578 1262.02 9.12578C1261.82 9.12578 1261.66 9.04973 1261.66 8.95679C1261.66 8.86385 1261.82 8.78781 1262.02 8.78781C1262.22 8.78781 1262.39 8.86385 1262.39 8.95679ZM1255.85 10.0552C1256.1 10.1966 1256.14 10.3087 1255.94 10.3087C1255.74 10.3087 1255.37 10.1946 1255.12 10.0552C1254.87 9.91375 1254.83 9.80172 1255.04 9.80172C1255.24 9.80172 1255.6 9.91578 1255.85 10.0552ZM783.498 13.8574C783.498 13.9503 783.243 14.0263 782.932 14.0263C782.62 14.0263 782.466 13.9503 782.59 13.8574C782.713 13.7644 782.968 13.6884 783.156 13.6884C783.344 13.6884 783.498 13.7644 783.498 13.8574ZM1183.52 14.1637C1183.6 14.2741 1183.4 14.3643 1183.09 14.3643C1182.77 14.3643 1182.51 14.2438 1182.51 14.0968C1182.51 13.7984 1183.29 13.8503 1183.52 14.1637ZM782.771 14.6078C782.771 14.6489 782.608 14.7293 782.408 14.7868C782.209 14.8442 782.045 14.8106 782.045 14.7123C782.045 14.6139 782.209 14.5333 782.408 14.5333C782.608 14.5333 782.771 14.5668 782.771 14.6078ZM730.217 14.8141C729.968 14.8611 729.763 15.0544 729.763 15.244C729.763 15.5311 729.854 15.5535 730.308 15.3782C730.607 15.2625 730.855 15.2342 730.858 15.3154C730.865 15.4899 731.565 15.0137 731.573 14.829C731.579 14.6891 730.921 14.682 730.217 14.8141ZM733.757 15.2838C733.757 15.3248 733.594 15.4053 733.394 15.4627C733.194 15.5202 733.031 15.4865 733.031 15.3882C733.031 15.2898 733.194 15.2092 733.394 15.2092C733.594 15.2092 733.757 15.2427 733.757 15.2838ZM734.622 15.6405C734.746 15.7909 734.685 15.8586 734.479 15.7995C734.282 15.7427 734.12 15.6248 734.12 15.5372C734.12 15.2942 734.38 15.3478 734.622 15.6405ZM1173.25 15.7162C1173.13 15.8091 1172.86 15.8852 1172.67 15.8852C1172.47 15.8852 1172.4 15.8091 1172.53 15.7162C1172.65 15.6232 1172.91 15.5472 1173.11 15.5472C1173.31 15.5472 1173.38 15.6232 1173.25 15.7162ZM1171.62 15.8852C1171.62 15.9781 1171.45 16.0542 1171.23 16.0542C1171.02 16.0542 1170.95 15.9781 1171.07 15.8852C1171.2 15.7922 1171.37 15.7162 1171.46 15.7162C1171.55 15.7162 1171.62 15.7922 1171.62 15.8852ZM1174.34 15.8852C1174.47 15.9781 1174.3 16.0542 1173.98 16.0542C1173.66 16.0542 1173.49 15.9781 1173.62 15.8852C1173.74 15.7922 1173.9 15.7162 1173.98 15.7162C1174.05 15.7162 1174.22 15.7922 1174.34 15.8852ZM567.766 16.3386C568.028 16.3874 568.342 16.3813 568.462 16.3252C568.583 16.2691 568.368 16.2292 567.986 16.2365C567.563 16.2446 567.477 16.2847 567.766 16.3386ZM549.681 16.7142C549.681 16.7985 550.008 16.8276 550.407 16.7791C550.806 16.7304 551.133 16.6615 551.133 16.6258C551.133 16.5903 550.806 16.5611 550.407 16.5611C550.008 16.5611 549.681 16.6301 549.681 16.7142ZM927.878 16.8428C927.745 16.9047 927.636 17.0339 927.636 17.1301C927.636 17.2359 927.805 17.2259 928.066 17.1047C928.302 16.9947 928.411 16.8655 928.308 16.8175C928.205 16.7693 928.011 16.7808 927.878 16.8428ZM732.511 17.2793C732.651 17.4885 732.924 17.707 733.119 17.7651C733.34 17.8315 733.326 17.9125 733.08 17.9833C732.855 18.0482 732.591 17.914 732.458 17.6664C732.33 17.4302 732.08 17.2371 731.902 17.2371C731.724 17.2371 731.579 17.161 731.579 17.0681C731.579 16.7468 732.257 16.9004 732.511 17.2793ZM554.945 17.2371C555.069 17.33 555.242 17.406 555.33 17.406C555.418 17.406 555.49 17.33 555.49 17.2371C555.49 17.1441 555.317 17.0681 555.105 17.0681C554.894 17.0681 554.822 17.1441 554.945 17.2371ZM883.342 17.2371C883.342 17.33 883.515 17.406 883.726 17.406C883.938 17.406 884.01 17.33 883.886 17.2371C883.763 17.1441 883.59 17.0681 883.502 17.0681C883.414 17.0681 883.342 17.1441 883.342 17.2371ZM35.6348 17.3851C35.2449 17.5002 35.2627 17.548 35.7256 17.6306C36.0894 17.6957 36.3007 17.6423 36.3007 17.4853C36.3007 17.198 36.2796 17.1948 35.6348 17.3851ZM548.229 17.7722C548.229 17.8496 548.382 17.913 548.57 17.913C548.758 17.913 548.996 17.8496 549.099 17.7722C549.202 17.6947 549.048 17.6313 548.757 17.6313C548.466 17.6313 548.229 17.6947 548.229 17.7722ZM710.521 17.734C710.521 17.8216 710.357 17.94 710.158 17.9975C709.958 18.0549 709.794 17.9833 709.794 17.8385C709.794 17.6937 709.958 17.575 710.158 17.575C710.357 17.575 710.521 17.6465 710.521 17.734ZM885.52 17.913C885.52 18.0059 885.234 18.0808 884.885 18.0794C884.342 18.0772 884.328 18.0529 884.794 17.913C885.479 17.7068 885.52 17.7068 885.52 17.913ZM929.694 17.8567C929.56 17.9186 929.451 18.0478 929.451 18.144C929.451 18.2498 929.621 18.2398 929.881 18.1186C930.117 18.0086 930.226 17.8794 930.123 17.8314C930.02 17.7832 929.827 17.7947 929.694 17.8567ZM536.61 18.1665C536.61 18.3059 536.774 18.4199 536.973 18.4199C537.173 18.4199 537.336 18.3059 537.336 18.1665C537.336 18.0271 537.173 17.913 536.973 17.913C536.774 17.913 536.61 18.0271 536.61 18.1665ZM545.324 18.2283C545.324 18.289 544.997 18.4336 544.598 18.5497C543.971 18.7321 543.872 18.7185 543.872 18.4495C543.872 18.2783 543.969 18.0928 544.089 18.0374C544.346 17.9179 545.324 18.0693 545.324 18.2283ZM863.373 18.251C863.373 18.4421 863.615 18.5889 863.93 18.5889C864.375 18.5889 864.409 18.5207 864.099 18.251C863.885 18.0651 863.634 17.913 863.542 17.913C863.449 17.913 863.373 18.0651 863.373 18.251ZM537.995 18.1974C538.257 18.2462 538.57 18.2401 538.69 18.184C538.811 18.1279 538.597 18.0881 538.214 18.0953C537.791 18.1034 537.705 18.1435 537.995 18.1974ZM927.273 18.251C927.273 18.3439 927.11 18.4199 926.91 18.4199C926.71 18.4199 926.547 18.3439 926.547 18.251C926.547 18.158 926.71 18.082 926.91 18.082C927.11 18.082 927.273 18.158 927.273 18.251ZM849.586 18.6678C849.191 18.8897 849.265 18.9269 850.107 18.9269C850.703 18.9269 851.032 18.8482 850.945 18.7263C850.72 18.4113 850.092 18.3843 849.586 18.6678ZM548.864 19.0254C548.518 19.1865 547.824 18.9257 548.082 18.7316C548.235 18.6161 548.438 18.619 548.699 18.7403C548.913 18.8399 548.987 18.9681 548.864 19.0254ZM627.461 18.7897C627.54 18.9 627.799 19.0203 628.036 19.0572C628.301 19.0984 628.382 19.021 628.247 18.8566C627.993 18.5494 627.243 18.4855 627.461 18.7897ZM615.941 18.9269C615.818 19.0198 615.89 19.0959 616.101 19.0959C616.312 19.0959 616.486 19.0198 616.486 18.9269C616.486 18.834 616.414 18.7579 616.326 18.7579C616.237 18.7579 616.064 18.834 615.941 18.9269ZM906.578 19.3394C906.578 19.3805 906.415 19.4609 906.215 19.5183C906.015 19.5758 905.852 19.5422 905.852 19.4438C905.852 19.3455 906.015 19.2649 906.215 19.2649C906.415 19.2649 906.578 19.2983 906.578 19.3394ZM932.538 19.6028C932.661 19.6958 932.507 19.7718 932.196 19.7718C931.885 19.7718 931.63 19.6958 931.63 19.6028C931.63 19.5099 931.783 19.4339 931.971 19.4339C932.16 19.4339 932.414 19.5099 932.538 19.6028ZM629.611 19.8563C629.611 19.9445 629.435 20.0441 629.22 20.0774C629.006 20.1106 628.83 20.0113 628.83 19.8563C628.83 19.7014 629.006 19.602 629.22 19.6353C629.435 19.6686 629.611 19.7681 629.611 19.8563ZM517.564 20.0985C517.433 20.1977 517.095 20.2788 516.813 20.2788C516.507 20.2788 516.385 20.3808 516.51 20.5323C516.738 20.8084 516.617 20.8356 515.804 20.6903C514.94 20.536 515.508 19.9668 516.588 19.9045C517.744 19.8376 517.876 19.8638 517.564 20.0985ZM929.088 19.9408C929.088 20.0338 929.017 20.1098 928.928 20.1098C928.84 20.1098 928.667 20.0338 928.544 19.9408C928.42 19.8479 928.493 19.7718 928.704 19.7718C928.915 19.7718 929.088 19.8479 929.088 19.9408ZM619.027 20.1098C619.027 20.2027 618.864 20.2788 618.664 20.2788C618.464 20.2788 618.301 20.2027 618.301 20.1098C618.301 20.0169 618.464 19.9408 618.664 19.9408C618.864 19.9408 619.027 20.0169 619.027 20.1098ZM856.111 20.1098C856.111 20.2027 855.948 20.2788 855.748 20.2788C855.549 20.2788 855.385 20.2027 855.385 20.1098C855.385 20.0169 855.549 19.9408 855.748 19.9408C855.948 19.9408 856.111 20.0169 856.111 20.1098ZM547.502 20.4577C547.502 20.5453 547.339 20.6168 547.139 20.6168C546.94 20.6168 546.776 20.4981 546.776 20.3533C546.776 20.2085 546.94 20.1368 547.139 20.1943C547.339 20.2517 547.502 20.3702 547.502 20.4577ZM583.083 20.3633C583.083 20.5027 582.818 20.6168 582.494 20.6168C582.012 20.6168 581.987 20.571 582.357 20.3633C582.606 20.2239 582.871 20.1098 582.946 20.1098C583.021 20.1098 583.083 20.2239 583.083 20.3633ZM638.44 20.4393C638.686 20.6245 637.39 20.9958 637.05 20.8376C636.791 20.7173 637.482 20.2788 637.93 20.2788C638.093 20.2788 638.323 20.3509 638.44 20.4393ZM513.737 20.8603C513.737 20.9013 513.574 20.9818 513.374 21.0392C513.174 21.0967 513.011 21.063 513.011 20.9647C513.011 20.8663 513.174 20.7857 513.374 20.7857C513.574 20.7857 513.737 20.8192 513.737 20.8603ZM515.836 21.4647C515.853 21.7452 515.715 21.9308 515.528 21.8772C515.137 21.7648 515.074 21.2337 515.431 21.0674C515.791 20.9001 515.802 20.9116 515.836 21.4647ZM511.19 21.7674C511.185 22.0136 511.136 22.0181 510.832 21.7996C510.373 21.4688 510.373 21.245 510.832 21.3772C511.032 21.4346 511.193 21.6102 511.19 21.7674ZM590.708 21.4564C590.708 21.5463 590.463 21.5762 590.163 21.5228C589.864 21.4693 589.618 21.3956 589.618 21.3591C589.618 21.3226 589.864 21.2927 590.163 21.2927C590.463 21.2927 590.708 21.3664 590.708 21.4564ZM667.497 22.1376C667.366 22.2361 667.735 22.3066 668.383 22.3066C668.994 22.3066 669.494 22.2306 669.494 22.1376C669.494 22.0447 669.095 21.9686 668.607 21.9686C668.12 21.9686 667.62 22.0447 667.497 22.1376ZM695.272 22.1476C695.272 22.2459 695.435 22.2796 695.635 22.2221C695.834 22.1647 695.998 22.0842 695.998 22.0432C695.998 22.0021 695.834 21.9686 695.635 21.9686C695.435 21.9686 695.272 22.0492 695.272 22.1476ZM593.378 22.4126C593.15 22.4562 593.05 22.6593 593.156 22.8639C593.308 23.1588 593.253 23.1946 592.887 23.0361C592.347 22.8016 592.655 22.3007 593.329 22.32C593.641 22.3289 593.658 22.3593 593.378 22.4126ZM428.234 22.6446C428.358 22.7375 428.285 22.8136 428.074 22.8136C427.863 22.8136 427.69 22.7375 427.69 22.6446C427.69 22.5516 427.761 22.4756 427.85 22.4756C427.938 22.4756 428.111 22.5516 428.234 22.6446ZM459.64 22.6446C459.64 22.7375 459.476 22.8136 459.277 22.8136C459.077 22.8136 458.914 22.7375 458.914 22.6446C458.914 22.5516 459.077 22.4756 459.277 22.4756C459.476 22.4756 459.64 22.5516 459.64 22.6446ZM506.839 22.6446C506.839 22.7375 506.675 22.8136 506.476 22.8136C506.276 22.8136 506.113 22.7375 506.113 22.6446C506.113 22.5516 506.276 22.4756 506.476 22.4756C506.675 22.4756 506.839 22.5516 506.839 22.6446ZM595.428 22.6446C595.428 22.7375 595.264 22.8136 595.065 22.8136C594.865 22.8136 594.701 22.7375 594.701 22.6446C594.701 22.5516 594.865 22.4756 595.065 22.4756C595.264 22.4756 595.428 22.5516 595.428 22.6446ZM671.309 22.9825C671.309 23.0755 671.237 23.1515 671.149 23.1515C671.061 23.1515 670.888 23.0755 670.765 22.9825C670.641 22.8896 670.713 22.8136 670.925 22.8136C671.136 22.8136 671.309 22.8896 671.309 22.9825ZM692.269 23.0846C692.148 23.1407 691.835 23.1468 691.573 23.098C691.283 23.0441 691.369 23.004 691.792 22.9959C692.175 22.9886 692.389 23.0285 692.269 23.0846ZM1073.95 23.1515C1073.95 23.2445 1073.78 23.3205 1073.57 23.3205C1073.36 23.3205 1073.29 23.2445 1073.41 23.1515C1073.53 23.0586 1073.7 22.9825 1073.79 22.9825C1073.88 22.9825 1073.95 23.0586 1073.95 23.1515ZM650.251 23.3205C650.251 23.4135 650.179 23.4895 650.091 23.4895C650.003 23.4895 649.83 23.4135 649.706 23.3205C649.583 23.2276 649.655 23.1515 649.867 23.1515C650.078 23.1515 650.251 23.2276 650.251 23.3205ZM654.245 23.9965C654.245 24.1823 654.073 24.3344 653.864 24.3344C653.655 24.3344 653.097 24.5436 652.624 24.7991C652.152 25.0546 651.653 25.212 651.516 25.1484C651.211 25.0068 652.029 23.7986 652.368 23.8893C652.502 23.925 652.938 23.893 653.337 23.8182C653.737 23.7435 654.104 23.6769 654.154 23.6703C654.204 23.6639 654.245 23.8106 654.245 23.9965ZM659.082 23.9542C659.326 24.1474 658.676 24.8414 658.25 24.8414C658.044 24.8414 657.876 24.6132 657.876 24.3344C657.876 23.8619 658.655 23.6164 659.082 23.9542ZM969.389 23.8939C969.389 23.9304 969.144 24.0041 968.844 24.0576C968.545 24.111 968.3 24.0811 968.3 23.9912C968.3 23.9011 968.545 23.8275 968.844 23.8275C969.144 23.8275 969.389 23.8574 969.389 23.8939ZM656.274 24.6293C655.883 24.811 655.676 24.5565 655.95 24.2318C656.207 23.9273 656.227 23.9268 656.354 24.2209C656.427 24.3909 656.391 24.5745 656.274 24.6293ZM397.555 24.5034C397.555 24.5963 397.391 24.6724 397.192 24.6724C396.992 24.6724 396.829 24.5963 396.829 24.5034C396.829 24.4105 396.992 24.3344 397.192 24.3344C397.391 24.3344 397.555 24.4105 397.555 24.5034ZM504.297 24.7669C504.297 24.9117 504.134 24.9833 503.934 24.9259C503.734 24.8684 503.571 24.75 503.571 24.6624C503.571 24.5749 503.734 24.5034 503.934 24.5034C504.134 24.5034 504.297 24.622 504.297 24.7669ZM655.697 25.0163C655.697 25.106 655.565 25.1793 655.404 25.1793C655.243 25.1793 654.957 25.3678 654.769 25.5979C654.433 26.008 654.403 26.0111 653.246 25.7458C652.598 25.5969 652.066 25.4085 652.066 25.3272C652.066 25.0788 653.24 25.1624 653.95 25.4614C654.591 25.7314 654.612 25.7169 654.448 25.1216C654.29 24.5468 654.331 24.513 654.987 24.6764C655.378 24.7736 655.697 24.9267 655.697 25.0163ZM406.35 25.1371C406.723 25.3348 406.811 25.5449 406.614 25.7708C406.356 26.0663 406.316 26.0505 406.294 25.6441C406.278 25.3488 406.07 25.1793 405.724 25.1793C405.424 25.1793 405.179 25.1033 405.179 25.0104C405.179 24.7498 405.733 24.8098 406.35 25.1371ZM659.788 25.4742C659.587 25.7181 658.996 25.7441 658.303 25.5393C657.914 25.4245 657.935 25.3446 658.414 25.1217C658.886 24.9024 659.104 24.8885 659.485 25.0541C659.748 25.1685 659.884 25.3575 659.788 25.4742ZM995.893 25.2456C995.893 25.364 995.648 25.461 995.349 25.461C994.798 25.461 994.609 25.1574 995.036 24.9587C995.36 24.8079 995.893 24.9865 995.893 25.2456ZM979.192 25.4228C979.192 25.4639 979.029 25.5444 978.829 25.6018C978.629 25.6593 978.466 25.6256 978.466 25.5273C978.466 25.4289 978.629 25.3483 978.829 25.3483C979.029 25.3483 979.192 25.3818 979.192 25.4228ZM405.542 25.7608C405.542 25.8019 405.379 25.8823 405.179 25.9398C404.98 25.9972 404.816 25.9636 404.816 25.8653C404.816 25.7669 404.98 25.6863 405.179 25.6863C405.379 25.6863 405.542 25.7198 405.542 25.7608ZM407.424 26.0609C407.164 26.1821 406.995 26.1921 406.995 26.0863C406.995 25.8607 407.424 25.6608 407.666 25.7737C407.769 25.8217 407.66 25.9509 407.424 26.0609ZM503.934 27.3761C503.934 27.4691 503.862 27.5451 503.774 27.5451C503.686 27.5451 503.513 27.4691 503.389 27.3761C503.266 27.2832 503.338 27.2072 503.55 27.2072C503.761 27.2072 503.934 27.2832 503.934 27.3761ZM353.233 28.2466C354.104 28.6814 353.912 28.897 352.655 28.897C351.982 28.897 351.787 28.8279 351.939 28.6435C352.054 28.5041 351.995 28.3901 351.808 28.3901C351.621 28.3901 351.562 28.276 351.677 28.1366C351.963 27.7891 352.377 27.8184 353.233 28.2466ZM358.831 28.107C358.962 28.0458 359.069 28.08 359.069 28.1829C359.069 28.286 358.899 28.4191 358.69 28.4791C358.211 28.617 357.191 28.2365 357.472 28.0247C357.599 27.9291 357.861 27.936 358.137 28.0425C358.387 28.1391 358.699 28.1682 358.831 28.107ZM357.45 29.066C357.529 29.066 357.5 28.9519 357.385 28.8125C357.27 28.6731 357.357 28.559 357.578 28.559C358.076 28.559 358.09 28.8975 357.605 29.235C357.289 29.4543 357.168 29.4444 356.703 29.1605C355.989 28.7252 356.013 28.4641 356.735 28.8005C357.049 28.9465 357.371 29.066 357.45 29.066ZM349.993 29.066C349.993 29.1589 349.819 29.235 349.608 29.235C349.397 29.235 349.325 29.1589 349.448 29.066C349.572 28.9731 349.744 28.897 349.833 28.897C349.921 28.897 349.993 28.9731 349.993 29.066ZM359.796 29.75C359.796 30.0551 359.141 30.0573 358.97 29.7528C358.843 29.5263 358.939 29.4562 359.292 29.5192C359.569 29.5687 359.796 29.6725 359.796 29.75ZM355.076 29.732C355.076 29.9601 354.414 30.1183 353.981 29.9937C353.778 29.9353 353.705 29.8168 353.821 29.7303C354.093 29.525 355.076 29.5263 355.076 29.732ZM342.858 30.3388C342.57 30.6881 342.368 30.647 342.368 30.2389C342.368 30.0476 342.524 29.9359 342.715 29.9909C342.906 30.0458 342.971 30.2024 342.858 30.3388ZM348.54 29.9816C348.54 30.2514 348.016 30.5869 347.594 30.5869C347.023 30.5869 347 30.5531 347.309 30.1783C347.498 29.9483 348.54 29.782 348.54 29.9816ZM357.98 30.4179C357.98 30.5108 357.725 30.5869 357.414 30.5869C357.103 30.5869 356.949 30.5108 357.073 30.4179C357.196 30.3249 357.451 30.2489 357.639 30.2489C357.827 30.2489 357.98 30.3249 357.98 30.4179ZM353.986 30.9994C353.986 31.0404 353.823 31.1209 353.623 31.1783C353.424 31.2358 353.26 31.2021 353.26 31.1038C353.26 31.0054 353.424 30.9248 353.623 30.9248C353.823 30.9248 353.986 30.9583 353.986 30.9994ZM349.035 31.6853C348.814 31.9533 348.177 32.0369 348.177 31.798C348.177 31.6192 348.574 31.4318 348.952 31.4318C349.113 31.4318 349.15 31.5459 349.035 31.6853ZM156.063 33.6105C156.514 33.7433 157.929 33.6781 157.929 33.5243C157.929 33.4888 157.398 33.4608 156.749 33.4621C155.947 33.464 155.727 33.5115 156.063 33.6105ZM162.517 34.05C162.631 34.1889 162.874 34.2597 163.056 34.2074C163.437 34.0979 163.131 33.7976 162.639 33.7976C162.457 33.7976 162.402 33.9111 162.517 34.05ZM164.283 34.3045C164.406 34.3975 164.579 34.4735 164.667 34.4735C164.755 34.4735 164.827 34.3975 164.827 34.3045C164.827 34.2116 164.654 34.1355 164.443 34.1355C164.231 34.1355 164.159 34.2116 164.283 34.3045ZM175.719 38.1912C175.719 38.2841 175.893 38.3602 176.104 38.3602C176.315 38.3602 176.387 38.2841 176.264 38.1912C176.141 38.0982 175.968 38.0222 175.879 38.0222C175.791 38.0222 175.719 38.0982 175.719 38.1912ZM274.656 43.5987C274.779 43.6916 274.952 43.7677 275.04 43.7677C275.129 43.7677 275.2 43.6916 275.2 43.5987C275.2 43.5058 275.027 43.4297 274.816 43.4297C274.605 43.4297 274.532 43.5058 274.656 43.5987ZM232.358 45.7955C232.358 45.8884 232.286 45.9645 232.198 45.9645C232.11 45.9645 231.937 45.8884 231.814 45.7955C231.69 45.7026 231.762 45.6265 231.974 45.6265C232.185 45.6265 232.358 45.7026 232.358 45.7955Z" fill="#F7F2EE"/>
</svg>
