<svg width="1440" height="198" viewBox="0 0 1440 198" fill="none" xmlns="http://www.w3.org/2000/svg">
<path fill-rule="evenodd" clip-rule="evenodd" d="M585.616 197.762C585.484 197.617 584.868 197.574 584.18 197.662C583.456 197.753 582.634 197.687 582.12 197.495C581.649 197.319 581.06 197.204 580.81 197.238C580.561 197.272 580.356 197.137 580.356 196.938C580.356 196.738 580.046 196.509 579.667 196.428C579.198 196.327 579.037 196.126 579.164 195.798C579.304 195.437 579.168 195.316 578.621 195.316C578.219 195.316 577.797 195.481 577.682 195.684C577.567 195.886 577.223 196.052 576.916 196.052C576.611 196.052 576.36 196.162 576.36 196.297C576.36 196.432 576.026 196.542 575.618 196.542C575.112 196.542 574.909 196.406 574.982 196.113C575.055 195.82 574.813 195.657 574.221 195.601C573.496 195.532 573.386 195.602 573.551 196.03C573.776 196.61 573.68 196.641 572.737 196.3C572.299 196.142 572.133 195.887 572.258 195.564C572.476 195.001 571.726 194.876 571.415 195.423C571.305 195.617 571.004 195.721 570.748 195.654C570.487 195.587 570.194 195.757 570.085 196.038C569.973 196.328 569.605 196.534 569.22 196.523C568.852 196.512 568.737 196.452 568.966 196.389C569.432 196.26 569.189 195.316 568.69 195.316C568.046 195.316 568.389 194.633 569.095 194.508C569.577 194.423 569.822 194.174 569.822 193.767C569.822 193.272 569.679 193.178 569.089 193.282C568.687 193.354 568.271 193.507 568.165 193.623C568.059 193.739 567.647 193.698 567.251 193.532C566.664 193.286 566.469 193.296 566.202 193.586C566.022 193.782 565.973 194.058 566.094 194.2C566.215 194.341 565.961 194.248 565.53 193.992C565.009 193.684 564.103 193.51 562.834 193.474C560.854 193.419 559.296 193.165 559.276 192.894C559.27 192.809 558.885 192.448 558.422 192.093C557.606 191.467 557.524 191.456 555.809 191.751C553.653 192.12 552.251 191.806 550.356 190.526C549.277 189.797 548.989 189.717 548.185 189.923C547.615 190.07 547.34 190.072 547.471 189.929C547.718 189.659 546.418 189.123 546.076 189.354C545.95 189.439 545.847 189.286 545.847 189.014C545.847 188.354 544.805 186.973 544.307 186.973C544.089 186.973 544.009 186.906 544.13 186.824C544.251 186.742 544.039 186.45 543.658 186.174C543.278 185.897 543.059 185.571 543.172 185.447C543.503 185.085 542.11 184.518 541.596 184.806C541.043 185.116 540.398 184.862 540.398 184.333C540.398 183.833 539.795 184.217 539.616 184.83C539.499 185.235 539.399 185.23 538.1 184.758C536.963 184.345 536.299 184.278 534.454 184.39C532.261 184.523 532.158 184.502 530.804 183.664C529.527 182.875 528.459 182.504 528.924 183.012C529.029 183.127 528.426 183.193 527.583 183.158C525.869 183.087 523.689 183.659 523.689 184.179C523.689 184.572 522.752 184.639 522.414 184.27C522.288 184.133 522.008 184.094 521.791 184.185C521.554 184.284 521.502 184.235 521.66 184.062C521.805 183.904 522.075 183.839 522.261 183.916C522.447 183.994 522.611 183.913 522.625 183.736C522.639 183.56 522.801 183.636 522.985 183.906L523.319 184.397L523.224 183.906C523.152 183.539 522.854 183.415 522.046 183.415C521.375 183.415 520.999 183.299 521.055 183.108C521.207 182.594 519.758 182.767 519.511 183.292C519.385 183.562 519.117 183.783 518.918 183.783C518.718 183.783 518.654 183.571 518.776 183.312C518.934 182.975 518.786 182.796 518.255 182.682C517.607 182.543 517.327 182.127 517.471 181.513C517.494 181.412 517.35 181.329 517.15 181.329C516.951 181.329 516.787 181.152 516.787 180.935C516.787 180.685 516.587 180.593 516.242 180.682C515.943 180.76 515.697 180.716 515.697 180.586C515.697 180.455 515.479 180.348 515.213 180.348C514.946 180.348 514.729 180.514 514.729 180.716C514.729 180.918 515.04 181.084 515.421 181.084C516.036 181.084 516.052 181.125 515.568 181.452C514.911 181.896 514.111 181.921 513.18 181.529C512.646 181.303 511.956 181.303 510.146 181.529C508.858 181.689 507.046 181.82 506.12 181.82C505.194 181.82 504.437 181.931 504.437 182.066C504.437 182.2 504.09 182.311 503.666 182.311C503.021 182.311 502.969 182.25 503.347 181.943C503.596 181.74 504.059 181.575 504.377 181.575C504.902 181.575 504.901 181.538 504.368 181.178C503.757 180.765 502.796 180.926 503.205 181.373C503.358 181.54 503.142 181.562 502.575 181.437C502.1 181.333 501.404 181.23 501.027 181.209C500.651 181.188 500.135 180.978 499.88 180.743C499.626 180.508 499.117 180.351 498.749 180.393C498.356 180.439 498.119 180.341 498.174 180.157C498.305 179.72 497.266 179.499 496.664 179.836C496.283 180.05 496.117 180.028 495.954 179.741C495.83 179.522 495.295 179.366 494.671 179.366C494.081 179.366 493.517 179.229 493.415 179.06C493.296 178.861 493.125 178.839 492.931 178.998C492.526 179.33 491.609 179.444 491.899 179.127C492.025 178.989 491.864 178.876 491.541 178.876C491.218 178.876 491.054 178.986 491.178 179.121C491.301 179.256 491.147 179.366 490.836 179.366C490.525 179.366 490.265 179.504 490.258 179.673C490.252 179.846 490.014 179.772 489.713 179.504C489.191 179.037 489.18 179.038 489.18 179.556C489.18 180.176 487.894 180.77 487.604 180.285C487.459 180.043 487.415 180.044 487.392 180.287C487.346 180.783 486.707 180.638 486.44 180.07C486.249 179.662 486.126 179.622 485.885 179.885C485.401 180.414 484.269 179.313 484.424 178.465C484.453 178.306 484.309 178.106 484.104 178.021C483.881 177.928 483.731 178.16 483.731 178.601C483.731 179.006 483.895 179.406 484.094 179.489C484.294 179.573 484.453 179.772 484.447 179.933C484.441 180.094 484.269 180.032 484.065 179.796C483.862 179.56 483.472 179.366 483.199 179.366C482.926 179.366 482.639 179.239 482.562 179.084C482.32 178.593 480.479 179.61 479.649 180.692C478.905 181.664 478.871 181.677 478.646 181.084C478.516 180.742 478.586 180.391 478.802 180.29C479.067 180.167 479.053 180.109 478.758 180.106C478.52 180.104 478.223 180.215 478.097 180.352C477.972 180.489 477.691 180.527 477.475 180.437C477.24 180.339 477.185 180.386 477.338 180.554C477.479 180.708 477.428 181.029 477.224 181.266C476.93 181.606 476.847 181.62 476.829 181.329C476.812 181.047 476.718 181.065 476.422 181.409C476.054 181.837 476.007 181.838 475.327 181.422C474.936 181.183 474.36 180.622 474.047 180.177C473.733 179.731 473.336 179.366 473.163 179.366C472.991 179.366 473.033 179.094 473.258 178.76C473.733 178.056 473.136 177.341 472.262 177.567C471.946 177.649 471.744 177.548 471.744 177.307C471.744 177.09 471.493 176.913 471.187 176.913C470.881 176.913 470.481 176.664 470.298 176.361L469.965 175.809L469.722 176.361C469.418 177.053 469.355 177.05 467.855 176.278C466.587 175.624 465.569 175.63 465.569 176.292C465.569 176.505 465.252 176.667 464.833 176.667C464.383 176.667 463.964 176.905 463.752 177.281C463.562 177.618 463.24 177.894 463.035 177.894C462.83 177.894 462.704 178.018 462.753 178.17C462.804 178.322 462.64 178.497 462.39 178.559C461.853 178.692 461.772 177.992 462.299 177.772C463.139 177.421 462.579 177.217 461.664 177.539C460.512 177.945 459.986 177.993 460.286 177.666C460.401 177.54 460.326 177.367 460.12 177.281C459.914 177.195 459.85 177.01 459.978 176.87C460.128 176.705 460.322 176.733 460.523 176.948C461.049 177.509 460.854 176.83 460.302 176.177C459.809 175.595 459.782 175.591 459.769 176.089C459.756 176.639 459.167 176.915 458.394 176.733C458.145 176.675 457.94 176.411 457.94 176.148C457.94 175.886 457.695 175.607 457.396 175.529C457.096 175.452 456.851 175.124 456.851 174.801C456.851 174.061 455.555 173.984 455.216 174.704C454.956 175.258 454.451 175.349 454.204 174.888C454.076 174.649 453.849 174.658 453.175 174.93C452.699 175.122 451.901 175.296 451.402 175.317C450.678 175.347 450.483 175.232 450.439 174.752C450.408 174.42 450.163 174.057 449.894 173.945C449.173 173.644 445.359 173.834 444.699 174.204C444.342 174.404 443.601 174.475 442.714 174.395C441.935 174.324 441.132 174.379 440.928 174.516C440.677 174.686 440.592 174.556 440.665 174.113C440.782 173.391 439.865 172.885 438.896 173.137C438.582 173.218 438.325 173.159 438.325 173.004C438.325 172.809 438.124 172.797 437.66 172.964C437.172 173.141 436.687 173.077 435.822 172.722C435.177 172.457 434.487 172.308 434.289 172.39C434.09 172.473 433.536 172.255 433.056 171.905C432.037 171.162 431.592 171.109 431.261 171.692C431.062 172.041 430.966 172.054 430.705 171.769C430.447 171.487 430.286 171.481 429.832 171.735C429.511 171.915 429.076 171.963 428.805 171.848C428.547 171.738 427.763 171.646 427.064 171.643C425.95 171.638 425.779 171.554 425.678 170.962C425.612 170.576 425.34 170.288 425.042 170.288C424.756 170.288 424.521 170.185 424.521 170.059C424.521 169.612 423.035 169.51 422.161 169.897C421.682 170.109 421.036 170.216 420.726 170.136C420.389 170.049 420.158 170.124 420.151 170.323C420.144 170.544 420.016 170.511 419.77 170.226C419.396 169.793 417.905 169.609 418.074 170.018C418.124 170.139 418.001 170.222 417.801 170.202C417.601 170.182 417.451 169.972 417.467 169.736C417.483 169.499 417.237 169.297 416.922 169.287C416.547 169.274 416.505 169.225 416.802 169.144C417.052 169.076 417.256 168.904 417.256 168.763C417.256 168.604 416.642 168.553 415.651 168.628C414.276 168.733 414.02 168.681 413.859 168.267C413.612 167.628 412.838 167.823 412.22 168.68C411.854 169.188 411.647 169.282 411.427 169.042C411.263 168.863 411.21 168.628 411.308 168.521C411.406 168.413 411.171 168.325 410.784 168.325C410.397 168.325 409.877 168.159 409.628 167.957C409.117 167.541 408.175 167.461 408.175 167.834C408.175 167.969 408.027 168.079 407.846 168.079C407.665 168.079 407.607 167.831 407.718 167.527C407.952 166.884 407.731 166.982 407.098 167.802C406.809 168.177 406.791 168.325 407.049 168.217C407.274 168.123 407.449 168.217 407.449 168.433C407.449 168.901 407.477 168.901 405.842 168.44C405.11 168.233 404.371 168.122 404.201 168.193C404.031 168.264 403.803 168.164 403.693 167.971C403.583 167.778 403.689 167.559 403.927 167.485C404.166 167.41 403.847 167.409 403.217 167.483C402.312 167.589 401.877 167.484 401.129 166.978C400.609 166.627 400.183 166.191 400.183 166.009C400.183 165.827 399.938 165.615 399.639 165.537C399.339 165.459 399.094 165.234 399.094 165.037C399.094 164.839 398.775 164.609 398.386 164.525C397.986 164.44 397.76 164.23 397.866 164.043C398.126 163.585 397.353 163.315 396.749 163.653C396.222 163.949 395.61 163.605 395.968 163.214C396.156 163.008 394.25 161.454 393.808 161.454C393.676 161.454 393.674 161.641 393.803 161.87C394.019 162.249 393.977 162.248 393.333 161.854C392.823 161.542 392.554 161.502 392.364 161.71C392.169 161.923 392.02 161.911 391.789 161.665C391.559 161.419 391.475 161.413 391.471 161.638C391.468 161.807 391.329 161.945 391.163 161.945C390.996 161.945 390.86 161.779 390.86 161.577C390.86 161.375 390.962 161.209 391.085 161.209C391.209 161.209 391.335 160.988 391.366 160.719C391.418 160.247 390.182 159.563 389.514 159.695C389.339 159.729 389.294 159.587 389.412 159.379C389.53 159.171 389.468 159.001 389.275 159.001C389.081 159.001 388.923 158.835 388.923 158.633C388.923 158.093 388.312 158.184 388.09 158.756C387.96 159.094 387.711 159.199 387.297 159.092C386.87 158.981 386.807 158.859 387.082 158.674C387.589 158.331 387.58 157.774 387.068 157.774C386.846 157.774 386.758 157.936 386.87 158.134C386.983 158.332 386.91 158.563 386.71 158.647C386.468 158.748 386.474 158.904 386.729 159.112C387.029 159.356 386.894 159.396 386.111 159.296C385.173 159.176 383.585 158.54 382.459 157.835C381.886 157.476 380.931 157.427 380.931 157.756C380.931 157.881 380.716 158.13 380.454 158.308C380.191 158.487 379.787 158.853 379.557 159.123C379.19 159.552 379.136 159.56 379.126 159.185C379.116 158.807 378.294 158.61 377.208 158.726C377.058 158.742 376.935 158.643 376.935 158.505C376.935 158.364 376.557 158.319 376.067 158.402C375.589 158.483 375.088 158.428 374.952 158.28C374.817 158.132 374.546 158.078 374.352 158.159C374.157 158.24 373.801 158.199 373.559 158.068C373.319 157.936 372.251 157.75 371.188 157.653C370.069 157.551 369.173 157.333 369.061 157.135C368.954 156.946 368.537 156.792 368.134 156.792C367.494 156.792 367.464 156.843 367.901 157.201C368.353 157.571 368.323 157.581 367.582 157.315C367.132 157.153 366.764 156.863 366.764 156.672C366.764 156.375 366.563 156.371 365.399 156.649C364.264 156.919 363.957 156.919 363.583 156.648C363.335 156.469 363.132 156.207 363.132 156.066C363.132 155.926 362.764 155.813 362.315 155.814C361.746 155.817 361.641 155.88 361.968 156.02C362.355 156.186 362.355 156.267 361.968 156.473C361.3 156.829 358.773 156.575 358.773 156.152C358.773 155.69 358.52 155.722 357.6 156.302C357.171 156.571 356.564 156.783 356.252 156.773C355.878 156.76 355.84 156.712 356.139 156.63C356.389 156.562 356.593 156.35 356.593 156.158C356.593 155.967 356.848 155.811 357.16 155.811C357.495 155.811 357.62 155.695 357.467 155.528C357.325 155.373 357.52 155.082 357.9 154.882C358.452 154.591 358.468 154.546 357.979 154.66C357.642 154.738 357.286 154.67 357.188 154.509C357.079 154.331 356.58 154.553 355.924 155.071C355.327 155.541 354.9 155.992 354.974 156.073C355.048 156.154 354.867 156.22 354.571 156.22C354.276 156.22 353.943 155.934 353.832 155.586C353.721 155.237 353.461 154.714 353.253 154.423C353.045 154.132 352.986 153.774 353.121 153.626C353.536 153.172 352.217 153.324 350.873 153.885L349.607 154.414L349.855 153.885C350.111 153.343 349.751 153.232 348.111 153.348C347.742 153.375 347.195 153.161 346.897 152.873C346.543 152.531 346.021 152.367 345.39 152.4C343.718 152.486 342.79 152.385 342.79 152.116C342.79 151.973 342.953 151.924 343.153 152.008C343.353 152.091 343.516 151.981 343.516 151.762C343.516 151.544 343.366 151.428 343.182 151.505C342.999 151.581 342.602 151.477 342.3 151.274C341.562 150.775 340.55 150.796 340.685 151.307C340.744 151.53 340.604 151.756 340.375 151.81C340.146 151.864 339.967 151.765 339.978 151.59C340.035 150.674 339.855 150.367 339.34 150.501C339.009 150.587 338.571 150.411 338.223 150.051C337.84 149.657 337.447 149.512 337.041 149.616C336.495 149.756 336.498 149.727 337.069 149.339C337.418 149.1 337.704 148.821 337.704 148.718C337.704 148.338 337.212 148.217 336.739 148.482C336.38 148.683 336.251 148.682 336.251 148.48C336.251 148.328 336.07 148.204 335.849 148.204C335.628 148.204 335.539 148.366 335.652 148.564C335.764 148.763 335.699 148.99 335.506 149.071C335.314 149.151 335.047 149.017 334.913 148.772C334.661 148.311 334.105 147.969 333.596 147.963C333.435 147.961 333.403 148.069 333.527 148.204C333.65 148.339 333.588 148.45 333.388 148.45C333.188 148.45 332.924 148.339 332.8 148.204C332.421 147.789 332.019 147.92 330.35 149.002C329.465 149.575 328.225 150.244 327.592 150.488C326.538 150.895 326.278 150.863 326.404 150.344C326.429 150.239 326.163 150.082 325.811 149.994C325.46 149.907 325.064 149.726 324.933 149.593C324.789 149.448 324.453 149.514 324.089 149.759C323.338 150.267 322.764 150.289 323.043 149.799C323.158 149.597 323.086 149.431 322.884 149.431C322.681 149.431 322.601 149.21 322.706 148.94C322.927 148.368 323.538 148.278 323.538 148.818C323.538 149.288 324.25 149.288 325.243 148.818C325.842 148.535 326.062 148.521 326.203 148.757C326.349 149.001 326.392 149.001 326.415 148.756C326.43 148.588 326.73 148.448 327.079 148.446C327.599 148.443 327.62 148.402 327.195 148.22C326.91 148.098 326.636 147.814 326.587 147.588C326.466 147.033 326.018 146.784 325.819 147.161C325.729 147.33 325.384 147.466 325.051 147.464C324.525 147.461 324.517 147.427 324.991 147.208C325.421 147.009 325.345 146.971 324.627 147.028C323.917 147.084 323.744 147.221 323.833 147.652C323.965 148.295 323.145 148.404 322.448 147.836C322.199 147.634 321.516 147.468 320.929 147.468C320.31 147.468 319.957 147.365 320.087 147.223C320.21 147.088 320.151 146.977 319.956 146.977C319.761 146.977 319.316 146.904 318.967 146.813C318.569 146.71 318.42 146.744 318.568 146.906C318.919 147.29 317.054 147.459 315.183 147.213C314.284 147.095 313.419 146.994 313.262 146.988C313.103 146.982 313.185 146.823 313.443 146.634C313.77 146.394 314.048 146.366 314.365 146.541C315.038 146.913 314.956 146.123 314.275 145.663C313.707 145.28 313.503 144.4 314.032 144.621C314.199 144.691 314.335 144.587 314.335 144.39C314.335 144.194 314.199 144.033 314.032 144.033C313.866 144.033 313.73 144.143 313.73 144.278C313.73 144.413 313.587 144.524 313.412 144.524C313.237 144.524 313.094 144.243 313.094 143.9C313.094 143.035 312.848 142.945 311.61 143.363C310.956 143.583 310.342 143.643 310.043 143.515C309.637 143.341 309.641 143.304 310.067 143.301C310.35 143.299 310.501 143.242 310.402 143.176C310.132 142.993 307.191 144.008 307.191 144.284C307.191 144.416 306.946 144.524 306.646 144.524C306.347 144.524 306.101 144.495 306.101 144.461C306.101 144.426 305.949 144.038 305.761 143.597C305.55 143.1 305.55 142.851 305.761 142.939C305.949 143.017 306.101 142.963 306.101 142.821C306.101 142.678 305.767 142.561 305.359 142.561C304.7 142.561 304.642 142.666 304.85 143.481C305.076 144.363 305.061 144.379 304.513 143.878C304.198 143.59 303.487 143.297 302.932 143.226C302.378 143.155 301.581 143.023 301.161 142.933C300.669 142.827 300.184 142.912 299.799 143.173C299.39 143.448 299.2 143.479 299.2 143.267C299.2 143.095 298.972 143.168 298.688 143.431C298.305 143.784 297.709 143.909 296.335 143.925C294.987 143.941 294.587 143.872 294.84 143.665C295.065 143.483 295.03 143.269 294.741 143.059C294.385 142.799 294.396 142.773 294.797 142.927C295.138 143.058 295.245 143.011 295.132 142.779C294.873 142.248 293.478 142.212 293.279 142.731C293.122 143.139 293.105 143.137 293.067 142.707C293.027 142.263 292.99 142.261 292.333 142.662C291.744 143.022 291.528 143.037 290.88 142.764C290.252 142.499 289.984 142.499 289.357 142.764C288.374 143.178 288.034 142.952 288.831 142.414C289.317 142.085 289.347 141.958 288.974 141.802C288.715 141.694 288.417 141.697 288.312 141.809C288.015 142.124 286.293 141.964 286.395 141.631C286.445 141.467 286.231 141.334 285.92 141.334C285.608 141.334 285.454 141.444 285.578 141.579C285.701 141.714 285.629 141.825 285.418 141.825C285.206 141.825 285.033 141.725 285.033 141.604C285.033 141.482 284.461 140.996 283.762 140.524C282.282 139.525 282.174 139.28 283.307 139.489C284.02 139.62 284.042 139.605 283.482 139.368C283.128 139.218 282.532 139.162 282.156 139.242C281.643 139.352 281.354 139.207 280.996 138.661C280.734 138.261 280.399 137.984 280.252 138.046C280.105 138.107 279.876 137.768 279.744 137.292C279.563 136.641 279.311 136.417 278.726 136.388C277.154 136.309 276.55 136.448 275.662 137.096L274.753 137.758L274.456 137.215C274.135 136.628 273.428 136.511 272.794 136.94C272.222 137.326 271.133 137.116 271.02 136.598C270.84 135.763 269.7 134.895 268.296 134.522C267.523 134.317 266.978 134.054 267.084 133.937C267.191 133.821 266.9 133.768 266.438 133.818C265.977 133.869 265.382 133.794 265.117 133.651C264.77 133.463 264.552 133.482 264.337 133.718C264.169 133.901 263.772 133.975 263.433 133.888C263.101 133.801 262.923 133.627 263.039 133.5C263.155 133.374 262.891 133.1 262.451 132.892C261.848 132.607 261.532 132.582 261.157 132.792C260.426 133.202 256.349 133.254 256.578 132.85C256.7 132.635 256.52 132.578 256.005 132.669C255.592 132.742 255.344 132.899 255.453 133.019C255.563 133.139 255.479 133.237 255.268 133.237C255.056 133.237 254.883 133.121 254.883 132.98C254.883 132.602 253.7 132.804 253.024 133.298C252.701 133.534 252.16 133.727 251.822 133.727C251.484 133.727 251.297 133.825 251.406 133.945C251.68 134.244 249.699 134.48 249.271 134.199C249.081 134.075 248.427 133.971 247.818 133.969C246.969 133.966 246.837 133.91 247.255 133.727C248.109 133.354 247.486 133.442 246.2 133.875C245.129 134.236 244.98 134.236 244.39 133.875C243.704 133.456 242.336 133.347 242.024 133.687C241.793 133.941 240.697 133.9 240.008 133.612C239.588 133.437 239.623 133.363 240.195 133.212C240.806 133.05 240.777 133.023 239.976 133.008C239.468 132.999 238.457 132.786 237.728 132.535C236.793 132.213 236.288 132.155 236.016 132.338C235.744 132.522 235.631 132.474 235.631 132.175C235.631 131.943 235.229 131.649 234.739 131.523C234.249 131.397 233.408 130.961 232.872 130.555C232.335 130.148 231.753 129.875 231.578 129.948C231.403 130.021 231.354 130.183 231.469 130.309C231.584 130.435 231.418 130.538 231.1 130.538C230.782 130.538 230.434 130.383 230.327 130.194C230.22 130.004 229.578 129.78 228.901 129.694C228.224 129.608 227.234 129.385 226.701 129.198C226.168 129.012 225.516 128.915 225.252 128.983C224.987 129.052 224.258 128.905 223.632 128.657L222.493 128.207L221.686 128.886C219.915 130.379 216.92 130.926 214.91 130.124C214.054 129.783 213.708 129.762 212.92 130.005C212.395 130.166 211.788 130.225 211.573 130.135C211.339 130.037 211.286 130.086 211.44 130.254C211.582 130.41 211.526 130.538 211.314 130.538C211.103 130.538 210.93 130.443 210.93 130.328C210.93 130.041 207.173 130.3 206.88 130.607C206.751 130.742 206.301 130.792 205.881 130.718C205.303 130.616 205.118 130.697 205.118 131.051C205.118 131.347 204.864 131.519 204.43 131.519C204.052 131.519 203.64 131.7 203.514 131.92C203.304 132.29 203.232 132.289 202.608 131.907C201.886 131.466 201.551 131.445 198.865 131.669C197.315 131.799 197.07 131.748 196.286 131.132L195.419 130.451L193.73 131.592C192.377 132.506 192.041 132.637 192.041 132.249C192.041 131.53 191.471 131.659 190.381 132.623C189.848 133.096 189.181 133.482 188.898 133.482C188.616 133.482 188.291 133.648 188.176 133.85C187.852 134.421 187.318 134.284 187.318 133.631C187.318 133.038 186.283 132.542 185.894 132.95C185.779 133.071 185.316 133.248 184.866 133.343C184.417 133.438 184.049 133.618 184.049 133.744C184.049 133.87 183.722 133.973 183.323 133.973C182.923 133.973 182.596 133.835 182.596 133.666C182.596 133.471 181.986 133.343 180.928 133.316C179.959 133.291 178.98 133.101 178.59 132.862C177.605 132.26 172.284 132.257 170.411 132.857C169.655 133.1 168.613 133.297 168.097 133.295C167.58 133.294 166.869 133.395 166.517 133.52C166.115 133.663 165.372 133.655 164.524 133.496C163.302 133.268 163.091 133.303 162.335 133.854C161.468 134.485 161.203 134.528 157.94 134.566C156.663 134.58 155.925 134.479 155.809 134.274C155.68 134.046 155.502 134.032 155.16 134.224C154.81 134.42 154.511 134.36 154.001 133.99C153.622 133.715 152.341 133.279 151.154 133.02C149.967 132.761 149.295 132.539 149.661 132.525C150.028 132.512 150.259 132.362 150.176 132.194C149.961 131.759 148.632 131.812 148.63 132.255C148.63 132.492 148.266 132.627 147.609 132.634C147.048 132.639 146.464 132.78 146.312 132.946C146.108 133.169 145.862 133.118 145.37 132.752C145.005 132.479 144.397 132.255 144.021 132.255C142.99 132.255 140.459 133.199 140.459 133.584C140.459 133.769 139.993 134.258 139.424 134.67C138.676 135.21 138.171 135.38 137.607 135.28C137.153 135.2 136.826 135.257 136.826 135.416C136.826 135.567 136.5 135.69 136.1 135.69C135.7 135.69 135.373 135.801 135.373 135.936C135.373 136.071 135.14 136.181 134.854 136.181C134.569 136.181 134.12 136.325 133.855 136.502C133.045 137.043 130.111 137.492 129.299 137.199C128.909 137.058 128.236 137.005 127.804 137.081C127.326 137.166 127.019 137.106 127.019 136.929C127.019 136.732 126.468 136.673 125.306 136.743C124.19 136.81 123.425 136.733 123.114 136.523C122.763 136.286 122.384 136.264 121.695 136.441C121.041 136.609 120.603 136.597 120.254 136.402C119.875 136.189 119.754 136.195 119.754 136.427C119.754 136.656 119.228 136.689 117.665 136.559C113.084 136.179 112.004 136.2 111.381 136.686C110.977 137 110.674 137.065 110.418 136.893C110.162 136.72 109.857 136.767 109.45 137.042C108.92 137.4 108.856 137.402 108.856 137.057C108.856 136.845 108.693 136.672 108.493 136.672C108.293 136.672 108.13 136.859 108.13 137.087C108.13 137.461 108.085 137.464 107.676 137.115C107.234 136.74 105.697 136.402 104.406 136.398C104.057 136.397 103.771 136.29 103.771 136.16C103.771 136.03 103.352 135.816 102.841 135.685C102.329 135.553 102.012 135.335 102.136 135.2C102.259 135.065 102.187 134.954 101.976 134.954C101.764 134.954 101.61 134.872 101.634 134.77C101.658 134.669 101.653 134.421 101.623 134.218C101.579 133.922 101.497 133.934 101.199 134.279C100.703 134.854 100.356 134.822 99.1918 134.093C98.6506 133.754 98.1384 133.524 98.053 133.582C97.7933 133.757 96.58 132.82 96.4435 132.339C96.3704 132.082 95.7693 131.761 95.0482 131.594C94.3515 131.433 93.9991 131.295 94.2654 131.287C94.532 131.28 94.6911 131.155 94.6196 131.01C94.548 130.865 94.3631 130.782 94.2087 130.826C94.054 130.87 93.6112 130.428 93.2247 129.845C92.6468 128.973 92.3914 128.812 91.7891 128.941C91.2675 129.053 91.0568 128.988 91.0568 128.714C91.0568 128.24 90.7222 128.237 89.8069 128.705C88.8036 129.218 86.6978 129.185 86.6978 128.656C86.6978 128.432 86.5965 128.316 86.4729 128.399C86.3491 128.483 86.0105 128.391 85.7206 128.195C85.0316 127.73 84.5183 127.742 84.5183 128.223C84.5183 128.5 84.3083 128.563 83.7656 128.446C83.285 128.343 82.7602 128.44 82.3126 128.713C81.8288 129.009 81.6123 129.044 81.6123 128.826C81.6123 128.598 81.1644 128.545 79.9933 128.634C78.9071 128.717 78.3986 128.667 78.4495 128.482C78.5326 128.178 77.0331 128.165 75.158 128.455C74.1497 128.61 74.0051 128.578 74.198 128.238C74.4984 127.709 74.0073 127.727 73.3999 128.268C72.9404 128.677 72.9168 128.677 72.9059 128.268C72.8924 127.777 71.9603 127.684 71.6759 128.145C71.535 128.374 71.3657 128.353 71.0101 128.061C70.3962 127.558 67.2748 127.645 66.383 128.19C65.4894 128.736 65.1552 128.667 65.3503 127.977C65.606 127.074 65.023 126.616 64.3626 127.2C63.8569 127.647 63.8206 127.639 63.4584 126.995C63.251 126.627 63.157 126.242 63.2496 126.141C63.3422 126.04 63.2205 125.947 62.9797 125.934C62.7388 125.921 62.1758 125.835 61.7286 125.743C61.1478 125.623 60.8626 125.688 60.7297 125.97C60.6273 126.188 60.4674 126.531 60.3744 126.733C60.2328 127.04 60.0395 127.05 59.1939 126.8C58.6377 126.635 57.9112 126.299 57.5796 126.053C57.1989 125.771 56.8894 125.701 56.7408 125.863C56.3514 126.289 55.8215 126.154 55.8215 125.63C55.8215 125.314 55.5792 125.139 55.1393 125.139C54.7644 125.139 54.2446 124.966 53.9841 124.754C53.7215 124.54 53.1999 124.424 52.8112 124.493C52.4261 124.561 51.7327 124.519 51.2699 124.401C50.668 124.246 50.3051 124.285 49.9931 124.539C49.4736 124.962 48.7628 125.018 49.1395 124.607C49.3138 124.416 49.207 124.37 48.8212 124.47C48.5016 124.553 48.1717 124.489 48.0882 124.328C47.9792 124.119 47.7398 124.147 47.2473 124.427C46.4027 124.908 45.2872 125.194 45.2872 124.929C45.2872 124.821 44.7735 124.785 44.1458 124.847C43.355 124.925 43.0826 124.874 43.2591 124.682C43.3994 124.528 43.3405 124.403 43.1291 124.403C42.9177 124.403 42.7444 124.238 42.7444 124.035C42.7444 123.592 42.3205 123.561 41.7273 123.962C41.3884 124.191 41.2914 124.187 41.2914 123.944C41.2914 123.231 40.2787 122.934 38.1413 123.019C36.9771 123.065 35.7384 123.186 35.3886 123.289C34.7126 123.486 34.479 123.074 35.1161 122.808C35.3159 122.725 35.4794 122.47 35.4794 122.242C35.4794 121.353 31.0317 121.96 30.5857 122.91C30.4847 123.124 30.0495 123.449 29.6187 123.631C28.9194 123.926 28.8613 123.915 29.0771 123.536C29.2871 123.166 29.1399 123.128 27.9492 123.244C27.1962 123.317 26.7843 123.322 27.0338 123.256C27.2837 123.19 27.4879 123.033 27.4879 122.907C27.4879 122.782 26.9292 122.837 26.2463 123.029C25.563 123.222 24.903 123.311 24.7787 123.228C24.6545 123.144 24.4616 123.311 24.3501 123.599C24.1983 123.992 23.8786 124.119 23.0802 124.103C22.4932 124.092 21.9272 123.989 21.8226 123.874C21.7176 123.76 21.3362 123.773 20.9751 123.903C20.6137 124.034 20.229 124.08 20.12 124.007C20.0111 123.933 19.5704 124 19.1407 124.155C18.492 124.39 18.4371 124.501 18.8182 124.811C19.2268 125.143 19.3231 125.141 19.7067 124.786C20.087 124.435 20.1618 124.432 20.35 124.764C20.5527 125.121 19.8843 125.297 18.9515 125.134C18.7517 125.099 18.2987 125.079 17.9445 125.09C17.5907 125.101 17.3891 125.014 17.4966 124.896C17.9402 124.411 16.967 124.448 16.0179 124.952C15.2583 125.356 15.0545 125.394 15.2216 125.1C15.4189 124.752 15.3288 124.742 14.4744 125.015C12.8358 125.54 11.1416 125.669 11.1416 125.27C11.1416 125.079 11.3326 124.843 11.5666 124.746C11.855 124.625 11.9146 124.704 11.7522 124.989C11.6102 125.239 11.6588 125.349 11.8721 125.26C12.3508 125.061 12.3247 124.829 11.7664 124.313C11.394 123.969 11.114 123.932 10.3569 124.126C9.70455 124.294 8.9577 124.278 7.94387 124.076C6.70446 123.829 6.53082 123.717 6.82905 123.357C7.09713 123.033 7.04664 122.931 6.61909 122.931C6.30924 122.931 6.05605 122.829 6.05605 122.705C6.05605 122.228 3.96082 122.172 2.46931 122.608C1.64509 122.849 0.970538 123.125 0.970538 123.222C0.970538 123.415 -0.883495 123.062 -2.29872 122.6C-2.79819 122.437 -4.02416 122.307 -5.0231 122.31C-6.77724 122.317 -7.85065 122.027 -7.50375 121.64C-7.41148 121.537 -7.84084 121.385 -8.45764 121.302C-9.07408 121.218 -9.66691 121.054 -9.77443 120.936C-9.88195 120.819 -10.287 120.723 -10.6749 120.723C-11.0629 120.723 -11.38 120.567 -11.38 120.376C-11.38 120.151 -11.7022 120.054 -12.3005 120.098C-13.14 120.16 -13.1726 120.13 -12.6703 119.755C-12.1886 119.396 -12.1189 116.996 -12.1112 100.586C-12.1021 81.529 -11.8464 48.0744 -11.5696 29.8126C-11.4857 24.2795 -11.4087 15.3082 -11.3985 9.87619L-11.38 0H719.638H1450.66L1450.89 0.501541C1451.02 0.777344 1451.04 1.79857 1450.93 2.77122C1450.81 3.74364 1450.64 15.6915 1450.53 29.3219C1450.42 42.9523 1450.26 59.1284 1450.16 65.2688C1450.06 71.4092 1449.9 85.4322 1449.8 96.4309C1449.55 122.28 1449.31 125.76 1447.65 127.475C1447.16 127.972 1447.01 127.987 1445.08 127.727C1443.96 127.574 1442.92 127.344 1442.78 127.215C1441.53 126.037 1438.15 125.493 1436.7 126.236C1436.31 126.434 1435.64 126.6 1435.22 126.604C1434.79 126.608 1433.97 126.776 1433.4 126.978C1432.83 127.18 1431.99 127.345 1431.53 127.346C1431.07 127.347 1430.29 127.64 1429.8 127.997C1429.31 128.354 1428.91 128.52 1428.91 128.365C1428.91 128.21 1428.67 128.084 1428.38 128.084C1428.09 128.084 1427.67 127.863 1427.46 127.593C1427.02 127.035 1426.31 126.97 1425.3 127.395C1424.77 127.619 1424.39 127.621 1423.68 127.404C1422.91 127.165 1422.68 127.19 1422.29 127.557C1421.53 128.269 1420.62 128.383 1420.49 127.783C1420.43 127.497 1420.19 127.223 1419.96 127.172C1419.58 127.088 1415.8 129.555 1415.53 130.064C1415.34 130.427 1414.74 130.328 1414.74 129.934C1414.74 129.435 1409.25 129.671 1408.82 130.189C1408.66 130.381 1408.3 130.538 1408.01 130.538C1407.72 130.538 1407.48 130.626 1407.48 130.734C1407.48 130.842 1406.94 131.062 1406.28 131.223C1405.62 131.384 1404.7 131.751 1404.25 132.038C1403.57 132.464 1403.27 132.512 1402.58 132.302C1401.8 132.061 1397.88 132.139 1397.23 132.409C1397.07 132.475 1396.94 132.369 1396.94 132.173C1396.94 131.748 1395.61 131.48 1394.48 131.679C1393.85 131.791 1393.68 131.717 1393.68 131.334C1393.68 130.935 1393.36 130.823 1391.95 130.715C1391 130.643 1390.13 130.686 1390.02 130.811C1389.9 130.935 1389.29 131.138 1388.65 131.262C1387.93 131.402 1387.57 131.4 1387.7 131.258C1388.11 130.81 1387.47 130.526 1386.9 130.906C1386.6 131.111 1386.2 131.216 1386.02 131.139C1385.83 131.062 1385.68 131.172 1385.68 131.382C1385.68 131.592 1385.89 131.766 1386.14 131.768C1386.48 131.771 1386.48 131.821 1386.11 131.976C1385.85 132.089 1385.24 132.13 1384.76 132.067C1384.11 131.984 1383.59 132.156 1382.82 132.718C1381.57 133.622 1380.04 133.728 1378.87 132.991C1378.44 132.721 1377.71 132.499 1377.25 132.497C1376.34 132.493 1375.48 132.2 1375.39 131.86C1375.36 131.74 1375.21 131.669 1375.06 131.703C1374.91 131.737 1374.79 131.599 1374.79 131.396C1374.79 131.163 1374.44 131.028 1373.83 131.028C1373.03 131.028 1372.95 130.971 1373.33 130.663C1373.7 130.365 1373.65 130.267 1373.1 130.129C1372.73 130.037 1372.3 129.819 1372.14 129.646C1371.99 129.473 1371.62 129.395 1371.31 129.473C1371.01 129.551 1370.49 129.398 1370.14 129.126C1369.42 128.565 1366.43 128.115 1366.43 128.567C1366.43 128.722 1366.24 128.77 1366.01 128.674C1365.76 128.569 1365.69 128.606 1365.84 128.765C1365.97 128.911 1365.91 129.101 1365.71 129.186C1365.51 129.27 1365.34 129.23 1365.34 129.096C1365.34 128.961 1364.7 128.892 1363.9 128.942C1362.69 129.017 1362.43 128.948 1362.2 128.496C1362.06 128.202 1361.98 127.733 1362.02 127.454C1362.08 127.127 1361.81 126.856 1361.27 126.694C1360.11 126.34 1359.56 126.536 1359.75 127.239C1359.84 127.572 1359.73 127.838 1359.52 127.838C1359.3 127.838 1359.22 127.728 1359.35 127.593C1359.61 127.309 1359.28 127.304 1358.26 127.574C1357.86 127.679 1357.52 127.92 1357.52 128.109C1357.51 128.297 1357.26 128.408 1356.97 128.356C1355.61 128.107 1353.14 127.911 1352.72 128.017C1352.47 128.083 1352.26 128.241 1352.26 128.37C1352.26 128.499 1352.47 128.534 1352.72 128.448C1352.97 128.363 1352.86 128.467 1352.47 128.679C1352.08 128.892 1351.48 129.065 1351.13 129.065C1350.78 129.065 1350.39 129.177 1350.26 129.315C1350.14 129.452 1349.88 129.501 1349.7 129.423C1349.51 129.345 1349.36 129.381 1349.36 129.503C1349.36 129.791 1346.54 130.36 1346.08 130.165C1345.88 130.083 1345.46 130.188 1345.15 130.399C1344.53 130.823 1343.74 130.926 1344.09 130.538C1344.21 130.403 1344.16 130.292 1343.96 130.292C1343.77 130.292 1343.53 130.43 1343.44 130.599C1343.34 130.771 1343.1 130.61 1342.87 130.231C1342.65 129.86 1342.35 129.548 1342.19 129.537C1341.64 129.5 1340.81 129.355 1340.19 129.186C1339.81 129.083 1339.55 129.123 1339.55 129.284C1339.55 129.434 1339.31 129.556 1339.01 129.556C1338.71 129.556 1338.46 129.679 1338.46 129.828C1338.46 129.994 1338.81 130.041 1339.35 129.95C1340.54 129.747 1340.79 130.109 1339.7 130.457C1339.22 130.611 1338.82 130.652 1338.82 130.549C1338.82 130.251 1337.08 130.555 1336.61 130.933C1335.98 131.446 1335.56 131.344 1335.56 130.681C1335.56 130.354 1335.36 130.044 1335.12 129.99C1334.88 129.936 1335.39 129.704 1336.24 129.473C1337.12 129.234 1337.73 128.925 1337.64 128.753C1337.42 128.312 1336.28 128.228 1336.28 128.653C1336.28 128.851 1336.04 129.076 1335.74 129.154C1335.44 129.232 1335.19 129.188 1335.19 129.058C1335.19 128.927 1334.8 128.82 1334.31 128.82C1333.83 128.82 1333.36 128.682 1333.28 128.513C1333.16 128.296 1332.77 128.375 1331.94 128.781C1330.81 129.335 1330.79 129.337 1331.18 128.836C1331.52 128.411 1331.45 128.183 1330.83 127.587C1330.4 127.185 1329.9 126.857 1329.71 126.857C1329.2 126.857 1328.85 127.614 1329.27 127.802C1329.73 128.009 1330.13 129.065 1329.74 129.065C1329.57 129.065 1329.38 128.937 1329.3 128.779C1329.15 128.48 1328.96 128.592 1327.62 129.781C1326.6 130.68 1325.7 130.322 1325.83 129.071C1325.93 128.109 1326.1 127.916 1326.59 128.245C1326.72 128.334 1326.65 128.558 1326.42 128.742C1326.19 128.926 1326.11 129.149 1326.24 129.237C1326.57 129.456 1327.54 128.554 1327.55 128.022C1327.58 127.016 1324.68 127.861 1324.14 129.018C1323.83 129.661 1323.22 129.731 1323.18 129.127C1323.16 128.87 1323.07 128.821 1322.96 129.004C1322.86 129.173 1322.47 129.311 1322.08 129.311C1321.38 129.311 1321.33 129.384 1321.2 130.599C1321.12 131.411 1321.16 131.415 1322.55 130.746L1323.65 130.218L1323.23 130.746C1323 131.036 1322.58 131.274 1322.3 131.274C1322.01 131.274 1321.43 131.522 1321 131.826L1320.22 132.378L1320.48 131.544C1320.7 130.837 1320.65 130.732 1320.16 130.861C1319.84 130.945 1319.57 130.906 1319.57 130.775C1319.57 130.645 1319.75 130.538 1319.96 130.538C1320.17 130.538 1320.25 130.439 1320.14 130.318C1320.03 130.197 1320.2 130.032 1320.51 129.951C1321.03 129.816 1321.03 129.767 1320.51 129.416C1319.73 128.892 1319.79 128.575 1320.66 128.575C1321.06 128.575 1321.39 128.685 1321.39 128.82C1321.39 129.239 1322.02 129.089 1322.2 128.629C1322.37 128.196 1321.64 127.505 1321.28 127.75C1321.17 127.82 1320.66 127.909 1320.13 127.948C1319.44 127.999 1319.22 127.925 1319.36 127.684C1319.47 127.491 1319.32 127.348 1319 127.348C1318.7 127.348 1318.37 127.506 1318.26 127.7C1318.14 127.903 1317.81 127.99 1317.48 127.904C1317.13 127.813 1317 127.856 1317.15 128.014C1317.28 128.157 1317.13 128.417 1316.82 128.592C1316.42 128.817 1316.17 128.832 1316 128.642C1315.84 128.462 1315.48 128.527 1314.9 128.84L1314.05 129.307L1315.17 129.219C1315.78 129.171 1316.2 129.219 1316.11 129.327C1316.01 129.434 1316.09 129.591 1316.3 129.676C1316.61 129.808 1316.8 129.542 1316.73 129.055C1316.72 128.982 1317.03 128.906 1317.42 128.886C1318.01 128.856 1318.06 128.927 1317.73 129.34C1317.52 129.609 1317.11 129.89 1316.83 129.964C1316.54 130.038 1316.41 130.214 1316.54 130.356C1316.67 130.498 1316.63 130.551 1316.45 130.475C1316.26 130.399 1315.39 130.426 1314.51 130.535C1312.85 130.74 1311.81 130.633 1312.13 130.289C1312.23 130.181 1311.98 130.15 1311.58 130.221C1311.18 130.292 1310.85 130.554 1310.85 130.804C1310.85 131.107 1310.67 131.211 1310.31 131.117C1310.01 131.039 1309.76 130.816 1309.76 130.62C1309.76 130.413 1309.94 130.337 1310.18 130.438C1310.45 130.551 1310.5 130.505 1310.32 130.309C1310.14 130.104 1309.93 130.085 1309.68 130.252C1309.48 130.388 1309.09 130.441 1308.81 130.369C1308.27 130.229 1308.14 130.536 1308.58 130.928C1308.73 131.062 1308.42 130.872 1307.89 130.506C1306.86 129.802 1306.1 129.837 1307.05 130.544C1307.55 130.915 1307.55 130.99 1307.05 131.269C1306.66 131.484 1306.48 131.495 1306.45 131.304C1306.42 131.152 1306.36 130.918 1306.31 130.783C1306.26 130.648 1306.2 130.344 1306.17 130.108C1306.13 129.746 1306.07 129.735 1305.78 130.04C1305.49 130.35 1305.41 130.342 1305.21 129.983C1305.02 129.652 1304.82 129.619 1304.26 129.822C1303.66 130.037 1303.56 130.006 1303.66 129.634C1303.75 129.285 1303.57 129.206 1302.86 129.273C1302.36 129.32 1301.73 129.485 1301.45 129.639C1301.04 129.868 1300.99 129.826 1301.18 129.413C1301.49 128.746 1299.89 128.088 1298.93 128.491C1298.47 128.684 1298.19 128.667 1297.86 128.425C1297.52 128.181 1297.16 128.161 1296.44 128.346C1295.1 128.689 1293.42 128.799 1293.42 128.542C1293.42 128.425 1293.17 128.329 1292.86 128.329C1292.56 128.329 1292.21 128.16 1292.09 127.954C1291.95 127.707 1291.63 127.632 1291.15 127.735C1290.71 127.829 1290.3 127.758 1290.11 127.558C1289.88 127.313 1289.8 127.306 1289.79 127.532C1289.79 127.7 1289.55 127.838 1289.25 127.838C1288.96 127.838 1288.55 128.056 1288.34 128.321C1288.05 128.692 1287.77 128.758 1287.15 128.607C1286.7 128.499 1285.93 128.491 1285.43 128.59C1283.93 128.888 1282.3 128.841 1281.24 128.47C1280.54 128.224 1279.98 128.188 1279.36 128.348C1278.79 128.495 1278.22 128.482 1277.75 128.312C1277.22 128.12 1276.88 128.13 1276.49 128.347C1276.2 128.511 1275.85 128.567 1275.71 128.473C1275.57 128.38 1275.7 128.198 1275.99 128.071C1276.46 127.867 1276.46 127.809 1275.98 127.597C1275.23 127.263 1274.88 127.289 1275.09 127.664C1275.21 127.866 1274.76 128.071 1273.84 128.237C1272.3 128.515 1271.26 128.3 1271.26 127.704C1271.26 127.508 1271.1 127.348 1270.91 127.348C1270.43 127.348 1270.87 128.136 1271.56 128.511C1272.31 128.919 1271.75 129.253 1270.97 128.866C1270.63 128.698 1270.08 128.498 1269.74 128.421C1269.27 128.312 1269.18 128.088 1269.35 127.386C1269.54 126.57 1269.51 126.52 1268.96 126.826C1268.44 127.114 1268.35 127.109 1268.35 126.791C1268.35 126.587 1267.95 126.351 1267.46 126.268C1266.89 126.171 1266.63 125.991 1266.76 125.775C1267.08 125.208 1266.32 125.118 1265.61 125.642C1265.1 126.022 1264.88 126.062 1264.63 125.82C1264.37 125.57 1264.27 125.57 1264.12 125.816C1264.02 125.985 1263.76 126.052 1263.55 125.964C1263.34 125.877 1262.86 126.069 1262.49 126.392C1261.97 126.841 1261.86 126.869 1262.05 126.51C1262.23 126.183 1262.17 126.095 1261.87 126.219C1261.63 126.321 1261.35 126.227 1261.22 125.999C1261.07 125.743 1260.65 125.624 1260.04 125.667C1259.52 125.704 1258.87 125.642 1258.6 125.528C1258.3 125.403 1257.99 125.438 1257.83 125.62C1257.68 125.783 1257.41 125.907 1257.23 125.894C1257.06 125.882 1256.65 126.021 1256.33 126.205C1256.02 126.388 1255.32 126.612 1254.79 126.702C1254.26 126.792 1253.82 126.956 1253.82 127.065C1253.82 127.174 1253 127.277 1251.99 127.292C1250.89 127.309 1249.7 127.509 1249 127.795C1248.35 128.057 1247.54 128.238 1247.19 128.198C1246.8 128.155 1246.34 128.384 1246.02 128.78L1245.49 129.433L1245.61 128.697C1245.68 128.292 1245.67 128.087 1245.58 128.242C1245.42 128.549 1244.02 128.396 1244.02 128.07C1244.02 127.958 1243.58 128.021 1243.05 128.207C1242.07 128.549 1240.75 128.341 1240.75 127.845C1240.75 127.723 1240.46 127.622 1240.11 127.619C1239.76 127.617 1238.9 127.577 1238.2 127.531C1237.5 127.484 1236.32 127.52 1235.56 127.61C1234.81 127.701 1234.1 127.673 1233.99 127.549C1233.87 127.421 1233.55 127.452 1233.25 127.622C1232.24 128.188 1230.13 128.096 1229.17 127.445C1228.68 127.118 1228.19 126.922 1228.07 127.01C1227.95 127.097 1228.06 127.219 1228.31 127.279C1228.56 127.339 1228.76 127.502 1228.76 127.64C1228.76 127.778 1228.5 127.824 1228.19 127.743C1227.87 127.662 1227.29 127.713 1226.89 127.858C1226.28 128.077 1226.13 128.036 1225.96 127.606C1225.8 127.196 1225.66 127.15 1225.25 127.379C1224.87 127.592 1224.51 127.595 1223.86 127.393C1223.37 127.243 1222.89 127.217 1222.78 127.334C1222.67 127.451 1222.26 127.49 1221.86 127.419C1221.46 127.349 1221.22 127.201 1221.32 127.091C1221.58 126.807 1219.23 126.87 1218.68 127.162C1218.44 127.294 1217.98 127.337 1217.67 127.257C1217.35 127.174 1217.02 127.264 1216.91 127.465C1216.8 127.66 1216.39 127.887 1216.01 127.968C1215.63 128.05 1215.32 128.318 1215.32 128.565C1215.32 128.846 1214.95 129.079 1214.32 129.192C1213.77 129.29 1213.53 129.422 1213.78 129.484C1214.4 129.639 1214.33 130.554 1213.65 131.151C1213.11 131.626 1213.1 131.621 1213.32 131.013C1213.51 130.497 1213.38 130.332 1212.59 130.09C1212.06 129.928 1211.45 129.872 1211.22 129.966C1211 130.06 1210.12 130.144 1209.27 130.153C1208.42 130.162 1207.54 130.296 1207.31 130.45C1207.07 130.614 1206.31 130.677 1205.48 130.602C1204.62 130.524 1203.85 130.593 1203.52 130.779C1203.08 131.027 1202.93 131.009 1202.75 130.688C1202.63 130.47 1202.36 130.292 1202.16 130.292C1201.96 130.292 1201.89 130.444 1201.99 130.63C1202.22 131.024 1201.59 131.519 1200.87 131.519C1200.48 131.519 1200.5 131.436 1200.94 131.134C1201.26 130.921 1201.52 130.645 1201.52 130.52C1201.52 130.193 1200.88 130.238 1200.71 130.577C1200.62 130.747 1199.42 130.905 1197.69 130.971C1196.07 131.033 1194.49 131.231 1194.08 131.423C1193.15 131.866 1193.09 131.86 1192.1 131.237L1191.26 130.71L1189.36 131.36C1188.31 131.717 1187.13 132.01 1186.73 132.01C1186.32 132.01 1185.58 132.231 1185.07 132.501C1184.56 132.77 1183.99 132.991 1183.79 132.991C1183.37 132.991 1181.78 134.376 1181.39 135.077C1181.13 135.546 1181.1 135.549 1180.64 135.124C1180.37 134.875 1180.06 134.785 1179.93 134.919C1179.81 135.05 1179.92 135.208 1180.17 135.271C1180.53 135.36 1180.54 135.45 1180.18 135.703C1179.82 135.964 1179.6 135.917 1179 135.451C1178.6 135.137 1178.27 135.006 1178.27 135.162C1178.27 135.569 1176.83 135.512 1176.59 135.096C1176.33 134.634 1175.37 134.4 1174.86 134.672C1174.64 134.792 1173.9 134.897 1173.22 134.907C1172.05 134.923 1171.22 135.333 1171.58 135.723C1171.67 135.821 1171.58 135.968 1171.39 136.049C1171.19 136.131 1171.12 136.345 1171.22 136.525C1171.32 136.706 1171.13 136.925 1170.8 137.011C1170.37 137.122 1170.25 137.066 1170.39 136.816C1170.53 136.585 1170.23 136.378 1169.53 136.213C1168.94 136.074 1168.46 135.796 1168.46 135.595C1168.46 135.071 1167.79 134.863 1167.19 135.2C1166.91 135.358 1166.54 135.431 1166.38 135.363C1166.21 135.294 1165.67 135.459 1165.18 135.728L1164.28 136.219L1165.28 136.111C1166.39 135.992 1166.56 136.207 1165.74 136.672C1165.44 136.84 1165.19 137.157 1165.18 137.377C1165.17 137.724 1165.12 137.719 1164.79 137.341C1164.59 137.102 1164.24 136.982 1164.02 137.075C1163.76 137.18 1163.69 137.105 1163.82 136.874C1163.94 136.671 1163.89 136.353 1163.73 136.169C1163.47 135.894 1163.28 135.916 1162.67 136.29C1161.91 136.755 1161.62 137.317 1162.28 137.04C1162.48 136.956 1162.65 137.003 1162.65 137.143C1162.65 137.284 1162.24 137.456 1161.74 137.526C1161.24 137.596 1160.42 137.71 1159.93 137.78C1159.03 137.906 1157.56 139.412 1157.56 140.205C1157.56 140.405 1157.41 140.633 1157.22 140.712C1157.03 140.792 1156.91 140.501 1156.95 140.051C1157.02 139.266 1156.98 139.249 1155.58 139.286C1154.75 139.308 1153.98 139.486 1153.73 139.715C1153.5 139.931 1153.12 140.107 1152.89 140.107C1152.66 140.107 1152.48 140.217 1152.48 140.352C1152.48 140.487 1152.23 140.598 1151.93 140.598C1151.63 140.598 1151.37 140.736 1151.35 140.904C1151.34 141.073 1151.17 140.848 1150.98 140.405C1150.79 139.962 1150.49 139.659 1150.31 139.732C1150.14 139.805 1149.91 139.726 1149.81 139.556C1149.67 139.318 1149.55 139.325 1149.27 139.59C1149.07 139.785 1148.6 139.875 1148.17 139.8C1147.46 139.675 1147.45 139.697 1147.99 140.256C1148.52 140.797 1148.52 140.843 1147.94 140.843C1147.53 140.843 1147.39 140.972 1147.52 141.211C1147.64 141.414 1147.59 141.579 1147.41 141.579C1147.24 141.579 1147.18 141.8 1147.29 142.07C1147.4 142.363 1147.3 142.561 1147.03 142.561C1146.79 142.561 1146.68 142.399 1146.79 142.201C1146.9 142.003 1146.84 141.775 1146.65 141.695C1146.43 141.603 1146.44 141.373 1146.68 141.074C1147.01 140.658 1146.93 140.598 1146.09 140.598C1145.31 140.598 1145.16 140.689 1145.32 141.088C1145.42 141.358 1145.33 141.651 1145.12 141.739C1144.88 141.84 1144.99 142.022 1145.4 142.228C1146.34 142.692 1145.87 142.874 1144.63 142.529C1144.05 142.37 1143.33 142.229 1143.03 142.216C1142.73 142.203 1142.43 141.944 1142.37 141.641C1142.23 140.95 1141.73 140.932 1141.2 141.598C1140.97 141.89 1140.58 142.051 1140.28 141.974C1140 141.9 1139.76 141.947 1139.76 142.078C1139.76 142.208 1139.44 142.315 1139.04 142.315C1138.64 142.315 1138.31 142.426 1138.31 142.561C1138.31 142.696 1138.08 142.806 1137.79 142.806C1137.36 142.806 1136.7 143.589 1136.77 144.033C1136.82 144.411 1135.96 145.073 1135.11 145.303C1133.9 145.633 1131.33 145.573 1131 145.207C1130.83 145.021 1130.56 145.064 1130.14 145.343C1129.47 145.795 1128.53 145.886 1128.46 145.505C1128.43 145.37 1128.39 145.158 1128.37 145.035C1128.28 144.627 1127.78 144.434 1127.78 144.81C1127.78 145.012 1127.54 145.178 1127.25 145.178C1126.93 145.178 1126.75 144.976 1126.79 144.677C1126.93 143.769 1125.77 143.958 1124.73 145.013C1123.8 145.961 1123.05 146.126 1123.05 145.383C1123.05 145.196 1122.86 144.965 1122.63 144.868C1122.39 144.767 1122.31 144.8 1122.45 144.947C1122.57 145.086 1122.42 145.553 1122.1 145.983C1121.52 146.765 1121.52 146.765 1120.97 146.237C1120.63 145.903 1120.17 145.753 1119.74 145.829C1119.37 145.896 1119.06 145.853 1119.06 145.735C1119.06 145.617 1118.81 145.584 1118.51 145.662C1118.17 145.751 1117.97 145.659 1117.97 145.409C1117.97 144.982 1117.41 144.876 1117.08 145.239C1116.96 145.367 1116.24 145.298 1115.42 145.078C1113.58 144.591 1112.49 144.919 1111.34 146.296C1110.47 147.343 1109.26 147.687 1108.03 147.24C1107.44 147.028 1106.95 147.02 1106.2 147.213C1105.31 147.441 1105.21 147.563 1105.44 148.147C1105.8 149.057 1105.79 149.119 1104.93 150.65C1104.51 151.388 1104.19 152.106 1104.21 152.245C1104.34 152.924 1103.6 154.186 1102.7 154.838C1101.56 155.662 1100.39 155.763 1099.09 155.151C1098.1 154.681 1094.65 154.604 1094.43 155.047C1094.36 155.197 1094.06 155.32 1093.78 155.32C1093.5 155.32 1093.27 155.422 1093.27 155.547C1093.27 156.076 1091.32 157.317 1090.67 157.202C1090.25 157.128 1090 157.214 1090 157.429C1090 157.618 1089.84 157.774 1089.66 157.774C1089.47 157.774 1089.22 157.995 1089.09 158.265C1088.85 158.78 1087.82 158.954 1087.82 158.48C1087.82 158.005 1086.78 158.738 1086.66 159.3C1086.41 160.432 1084.19 160.518 1084.19 159.397C1084.19 158.86 1084.05 158.803 1082.9 158.865C1082.2 158.902 1081.54 158.838 1081.43 158.722C1081.32 158.605 1081.07 158.51 1080.87 158.51C1080.67 158.51 1080.6 158.608 1080.71 158.728C1081 159.051 1079.92 159.568 1079.29 159.405C1078.72 159.258 1078.48 159.657 1078.29 161.086C1078.23 161.535 1078.01 161.797 1077.72 161.757C1077.46 161.722 1076.71 161.97 1076.05 162.309C1075.39 162.649 1074.68 162.927 1074.47 162.927C1074.26 162.927 1074 163.092 1073.88 163.295C1073.77 163.497 1073.35 163.663 1072.96 163.663C1072.57 163.663 1072.03 163.806 1071.77 163.981C1071.51 164.156 1070.73 164.406 1070.05 164.537C1069.03 164.732 1068.71 164.958 1068.3 165.798C1067.94 166.531 1067.57 166.844 1067 166.899C1066.56 166.941 1066.04 167.224 1065.85 167.527C1065.65 167.831 1065.3 168.079 1065.07 168.079C1064.84 168.079 1064.55 168.243 1064.44 168.443C1064.33 168.643 1063.99 168.745 1063.7 168.669C1063.33 168.572 1063.22 168.664 1063.33 168.98C1063.42 169.227 1063.34 169.587 1063.15 169.781C1062.87 170.073 1062.71 170.078 1062.24 169.812C1061.78 169.556 1061.55 169.553 1061.12 169.796C1060.82 169.963 1060.17 170.047 1059.67 169.982C1059.17 169.918 1058.76 169.932 1058.75 170.015C1058.75 170.262 1056.86 170.778 1055.96 170.778C1055.5 170.778 1055.13 170.668 1055.13 170.533C1055.13 170.398 1054.5 170.288 1053.74 170.288C1052.32 170.288 1050.77 171.048 1050.77 171.743C1050.77 171.991 1050.58 171.98 1049.94 171.696C1049.15 171.348 1049.06 171.375 1048.17 172.22C1047.65 172.709 1047.12 173.342 1046.99 173.626C1046.81 174.019 1046.54 174.115 1045.85 174.027C1045.11 173.931 1044.95 174.009 1044.93 174.492C1044.91 174.811 1044.81 174.935 1044.71 174.766C1044.61 174.597 1044.32 174.459 1044.07 174.459C1043.55 174.459 1041.82 173.02 1041.96 172.703C1042.17 172.229 1041.27 172.541 1040.97 173.048C1040.72 173.471 1040.64 173.5 1040.62 173.171C1040.59 172.671 1040.19 172.619 1039.58 173.036C1039.24 173.265 1039.14 173.183 1039.14 172.668C1039.14 171.768 1038.67 171.835 1037.86 172.848C1037.49 173.311 1036.89 173.743 1036.53 173.806C1036.16 173.872 1035.87 174.147 1035.87 174.442C1035.87 174.962 1035.31 175.193 1033.21 175.537C1032.42 175.666 1032.25 175.631 1032.46 175.389C1032.67 175.155 1032.58 175.161 1032.13 175.409C1031.79 175.594 1031.51 175.67 1031.51 175.576C1031.51 175.483 1030.99 175.657 1030.36 175.963C1029.36 176.444 1028.82 176.511 1026.39 176.455C1024.5 176.411 1023.24 176.505 1022.55 176.74C1021.99 176.933 1021.3 177.036 1021.02 176.97C1020.71 176.896 1020.61 176.957 1020.77 177.126C1020.93 177.297 1020.74 177.403 1020.29 177.403C1019.89 177.403 1019.43 177.249 1019.27 177.059C1018.9 176.614 1017.49 176.519 1015.89 176.832C1015.19 176.968 1013.83 177.039 1012.86 176.988C1011.89 176.938 1010.88 177.014 1010.63 177.159C1010.37 177.303 1010.02 177.402 1009.85 177.379C1009.05 177.273 1007.18 177.754 1006.34 178.284C1005.42 178.855 1004.41 178.868 1003.86 178.315C1003.4 177.856 1002.09 178.397 1002.09 179.044C1002.09 179.555 1001.95 179.645 1001.34 179.537C1000.93 179.464 1000.05 179.557 999.392 179.743C998.364 180.033 998.093 180.031 997.507 179.732C996.702 179.32 994.942 179.253 994.758 179.627C994.669 179.807 994.331 179.811 993.662 179.639C992.959 179.459 992.655 179.47 992.552 179.68C992.452 179.883 992.121 179.842 991.442 179.541C990.638 179.186 990.351 179.165 989.744 179.422C989.342 179.591 989.002 179.896 988.988 180.1C988.965 180.428 988.934 180.429 988.716 180.103C988.58 179.9 987.978 179.701 987.379 179.66C986.779 179.62 986.107 179.426 985.886 179.231C985.664 179.036 984.974 178.876 984.353 178.876C983.562 178.876 983.28 178.778 983.41 178.549C983.516 178.363 983.353 178.221 983.035 178.221C982.727 178.221 982.475 178.288 982.475 178.369C982.475 178.625 979.241 178.454 978.111 178.138C977.514 177.971 977.026 177.682 977.026 177.496C977.026 176.988 976.322 177.089 975.535 177.71L974.835 178.262L975.046 177.631C975.191 177.197 975.057 176.889 974.62 176.649C974.055 176.338 974.01 176.347 974.222 176.729C974.409 177.065 974.267 177.158 973.564 177.158C973.071 177.158 972.667 177.276 972.667 177.42C972.667 177.565 972.361 177.616 971.982 177.535C971.606 177.454 970.888 177.514 970.387 177.668C969.759 177.862 969.273 177.872 968.819 177.7C968.271 177.493 967.81 177.697 966.072 178.915C964.923 179.721 963.883 180.594 963.76 180.855C963.638 181.116 963.301 181.329 963.013 181.329C962.633 181.329 962.501 181.044 962.53 180.287C962.598 178.558 962.09 176.886 961.446 176.723C961.125 176.642 960.682 176.413 960.463 176.216C960.176 175.957 959.992 175.936 959.806 176.14C959.664 176.295 959.01 176.422 958.354 176.422C957.621 176.422 956.906 176.612 956.503 176.913C955.843 177.405 955.005 177.604 955.397 177.175C955.512 177.049 955.44 176.877 955.237 176.792C955.034 176.708 954.868 176.74 954.868 176.864C954.868 176.988 954.033 177.157 953.013 177.238C951.993 177.32 950.971 177.481 950.743 177.596C950.514 177.711 949.592 177.956 948.693 178.139C947.794 178.322 946.813 178.609 946.513 178.776C946.213 178.943 945.314 179.055 944.515 179.024C943.031 178.966 939.312 179.67 937.942 180.268C937.523 180.451 936.175 180.646 934.948 180.701C933.72 180.756 932.238 180.962 931.654 181.159C930.658 181.494 930.577 181.484 930.341 180.993C930.118 180.529 930.071 180.52 929.917 180.91C929.8 181.207 929.528 181.303 929.076 181.206C928.646 181.114 928.107 181.274 927.562 181.656C926.546 182.369 924.73 182.721 924.329 182.283C924.119 182.053 923.83 182.081 923.106 182.401C922.234 182.787 921.167 182.856 920.722 182.556C920.622 182.489 920.183 182.299 919.746 182.134C919.047 181.871 918.968 181.89 919.083 182.295C919.167 182.588 918.962 182.799 918.515 182.878C918.039 182.962 917.807 182.872 917.788 182.595C917.77 182.34 917.691 182.303 917.576 182.495C917.363 182.851 916.14 182.908 915.836 182.575C915.722 182.451 915.151 182.278 914.568 182.191C913.985 182.105 913.313 181.875 913.075 181.682C912.836 181.488 912.333 181.329 911.955 181.329C911.577 181.329 910.984 181.226 910.637 181.1C909.701 180.76 906.779 180.348 905.305 180.348C904.594 180.348 904.013 180.238 904.013 180.103C904.013 179.968 903.768 179.857 903.468 179.857C903.168 179.857 902.923 179.718 902.923 179.547C902.923 179.088 899.426 178.33 896.975 178.257C895.802 178.222 894.739 178.085 894.614 177.952C894.352 177.674 892.846 177.446 890.754 177.368C889.955 177.338 888.998 177.14 888.627 176.929C888.099 176.628 887.028 176.545 883.667 176.545C881.31 176.545 879.458 176.628 879.551 176.73C879.645 176.832 879.434 176.991 879.084 177.081C878.718 177.176 878.386 177.123 878.304 176.957C878.099 176.541 877.495 176.6 877.495 177.035C877.495 177.238 877.332 177.403 877.132 177.403C876.932 177.403 876.788 177.486 876.812 177.587C877.037 178.548 876.28 179.025 875.937 178.139C875.832 177.869 875.876 177.702 876.035 177.768C876.338 177.895 876.855 176.889 876.582 176.704C876.254 176.483 875.301 177.248 874.984 177.986L874.655 178.753L874.622 178.075C874.604 177.702 874.79 177.18 875.034 176.915C875.409 176.51 875.366 176.377 874.762 176.072C874.063 175.719 874.065 175.714 874.862 175.849C875.344 175.931 875.679 175.876 875.679 175.715C875.679 175.419 875.28 175.358 873.863 175.437C872.424 175.518 873.237 175.2 874.985 174.998L876.57 174.816L875.804 174.298C875.021 173.769 873.136 173.751 873.136 174.272C873.136 174.412 872.899 174.386 872.592 174.214C872.147 173.965 872.047 173.978 872.047 174.288C872.047 174.497 872.333 174.707 872.682 174.753C873.053 174.803 873.159 174.906 872.937 175.001C872.287 175.278 871.604 174.798 871.46 173.962C871.384 173.522 871.144 173.016 870.927 172.84C870.709 172.662 870.633 172.406 870.757 172.271C870.894 172.121 870.369 172.142 869.426 172.324C867.858 172.626 864.522 172.531 864.691 172.189C864.893 171.779 864.728 171.769 863.508 172.113C862.18 172.488 858.606 172.384 858.606 171.971C858.606 171.855 858.198 171.76 857.698 171.76C857.199 171.76 856.79 171.65 856.79 171.515C856.79 171.38 856.535 171.269 856.224 171.269C855.912 171.269 855.75 171.37 855.863 171.494C856.16 171.819 855.336 171.958 853.961 171.816C853.067 171.724 852.637 171.809 852.257 172.156C851.826 172.549 851.636 172.572 851.005 172.312C850.596 172.143 849.664 172.005 848.934 172.005C848.204 172.005 847.426 171.847 847.204 171.653C846.61 171.135 843.857 171.077 843.013 171.565C842.23 172.018 841.69 171.856 842.308 171.353C842.617 171.101 842.577 171.024 842.136 171.024C841.819 171.024 841.383 170.802 841.168 170.53C840.864 170.146 840.629 170.089 840.115 170.275C839.604 170.46 839.271 170.382 838.641 169.929C837.979 169.453 837.589 169.371 836.537 169.487C835.687 169.58 835.325 169.541 835.479 169.372C835.611 169.229 835.305 169.064 834.781 168.997C834.216 168.924 833.778 169 833.67 169.19C833.572 169.362 833.178 169.559 832.793 169.627C832.409 169.694 831.808 170.092 831.456 170.51C831.105 170.928 830.625 171.221 830.39 171.161C830.155 171.102 829.764 171.215 829.521 171.412C829.278 171.61 829.002 171.719 828.906 171.655C828.68 171.502 827.73 172.146 827.73 172.452C827.73 172.582 827.492 172.75 827.201 172.826C826.911 172.901 826.338 173.406 825.929 173.948C825.428 174.611 825.011 174.889 824.653 174.796C824.36 174.72 824.135 174.585 824.152 174.497C824.169 174.409 824.164 174.075 824.14 173.756C824.099 173.197 824.065 173.19 823.202 173.572C822.181 174.024 821.773 174.08 822.1 173.723C822.223 173.588 822.161 173.478 821.961 173.478C821.761 173.478 821.508 173.575 821.399 173.695C821.289 173.815 820.585 173.989 819.833 174.081C819.082 174.174 818.14 174.391 817.741 174.563C817.341 174.735 816.36 175.016 815.561 175.188C813.908 175.543 811.262 176.453 811.081 176.729C810.879 177.036 810.208 176.936 809.477 176.49C808.818 176.086 808.754 176.095 808.115 176.667C807.746 176.997 807.507 177.335 807.582 177.417C807.658 177.5 807.54 177.965 807.319 178.449C806.93 179.307 805.673 179.835 804.845 179.489C804.249 179.24 802.666 179.656 802.643 180.068C802.628 180.332 802.501 180.271 802.276 179.891C801.983 179.396 801.847 179.358 801.361 179.631C801.046 179.807 800.495 179.966 800.135 179.984C799.464 180.017 797.181 181.14 796.026 182.004C795.644 182.29 795.015 182.46 794.482 182.421C793.951 182.381 793.584 182.48 793.584 182.663C793.584 182.833 793.336 183.307 793.033 183.718C792.166 184.893 789.572 184.978 790.119 183.814C790.465 183.077 789.792 183.164 789.281 183.922C788.99 184.352 788.657 184.51 788.224 184.422C787.876 184.351 786.648 184.269 785.497 184.241C783.889 184.201 783.299 184.286 782.954 184.604C782.437 185.082 780.527 185.039 779.62 184.531C779.291 184.346 779.054 184.32 779.054 184.467C779.054 184.799 778.192 184.706 777.461 184.297C777.13 184.111 776.611 184.049 776.244 184.15C775.653 184.313 775.66 184.342 776.33 184.528C776.93 184.695 776.851 184.733 775.876 184.747C775.227 184.757 774.695 184.89 774.695 185.042C774.695 185.232 774.208 185.266 773.152 185.149C772.302 185.054 771.318 184.978 770.964 184.979C770.61 184.98 770.416 184.876 770.531 184.75C770.648 184.623 770.406 184.519 769.995 184.519C768.866 184.519 768.738 184.498 768.257 184.228C767.985 184.076 766.96 184.046 765.623 184.15C764.281 184.256 763.435 184.23 763.435 184.085C763.435 183.954 762.526 183.833 761.415 183.816C760.304 183.799 759.115 183.683 758.772 183.559C758.383 183.419 757.901 183.428 757.49 183.583C757.128 183.72 756.437 183.781 755.956 183.719C755.454 183.654 755.08 183.723 755.08 183.879C755.08 184.054 753.908 184.181 751.837 184.232C748.614 184.311 748.596 184.308 748.754 183.741C748.841 183.427 748.816 183.308 748.697 183.476C748.387 183.916 747.922 183.859 746.61 183.22C745.974 182.91 744.963 182.623 744.364 182.581C743.765 182.54 742.999 182.407 742.663 182.286C742.327 182.165 741.51 182.114 740.847 182.172C740.184 182.23 739.428 182.285 739.166 182.294C738.905 182.304 738.792 182.421 738.915 182.556C739.039 182.691 738.894 182.802 738.595 182.802C738.295 182.802 737.934 182.675 737.791 182.519C737.61 182.32 737.401 182.358 737.089 182.646C736.829 182.887 736.402 182.992 736.055 182.902C735.433 182.741 735.278 182.422 735.737 182.249C735.886 182.192 735.825 182.174 735.599 182.209C735.374 182.244 735.017 182.156 734.806 182.014C734.362 181.714 733.14 181.954 733.44 182.282C733.551 182.403 733.071 182.575 732.373 182.663C731.676 182.752 731.105 182.907 731.105 183.009C731.105 183.259 727.8 184.332 727.55 184.162C727.441 184.089 727.542 184.028 727.775 184.028C728.008 184.028 728.199 183.882 728.199 183.702C728.199 183.522 728.611 183.226 729.115 183.044C729.672 182.843 729.899 182.625 729.696 182.488C729.25 182.187 727.836 182.505 727.836 182.907C727.836 183.1 727.48 183.199 726.928 183.158C726.428 183.121 726.02 183.198 726.02 183.33C726.02 183.463 725.693 183.501 725.293 183.415C724.894 183.329 724.567 183.367 724.567 183.499C724.567 183.774 723.891 183.745 723.166 183.439C722.458 183.14 723.319 182.81 724.818 182.805C725.455 182.803 726.057 182.714 726.156 182.607C726.445 182.291 723.526 182.425 723.045 182.75C722.803 182.914 722.393 183.047 722.133 183.047C721.873 183.047 721.661 183.161 721.661 183.301C721.661 183.473 721.427 183.471 720.934 183.292C720.535 183.148 720.208 183.102 720.208 183.191C720.208 183.28 719.963 183.215 719.663 183.047C719.243 182.811 718.999 182.808 718.601 183.031C718.203 183.255 717.913 183.248 717.33 183.002C716.915 182.827 716.575 182.6 716.575 182.497C716.575 182.395 715.717 182.302 714.668 182.292C713.619 182.281 712.966 182.216 713.215 182.148C713.465 182.08 713.669 181.923 713.669 181.8C713.669 181.472 711.939 181.523 711.775 181.855C711.673 182.063 711.421 182.058 710.808 181.836C710.353 181.672 709.706 181.608 709.373 181.695C709.038 181.781 708.684 181.858 708.584 181.865C708.484 181.872 708.079 182.031 707.685 182.217C707.292 182.404 706.579 182.556 706.103 182.556C705.482 182.556 705.296 182.661 705.446 182.924C705.603 183.201 705.363 183.302 704.486 183.331C702.764 183.388 702.668 183.383 701.723 183.179C700.935 183.01 700.872 183.052 701.037 183.633C701.136 183.986 701.118 184.288 700.996 184.306C700.874 184.323 700.365 184.37 699.866 184.409C696.301 184.691 695.507 184.708 695.507 184.504C695.507 184.377 695.336 184.274 695.127 184.274C694.919 184.274 694.797 184.467 694.855 184.703C694.938 185.037 694.706 185.132 693.815 185.132C693.184 185.131 692.733 185.201 692.812 185.288C692.891 185.374 692.729 185.573 692.45 185.728C692.067 185.943 691.91 185.942 691.803 185.724C691.706 185.527 691.465 185.567 691.049 185.848C690.57 186.171 690.279 186.203 689.703 185.995C689.299 185.848 688.968 185.622 688.968 185.492C688.968 185.105 687.974 185.223 687.738 185.639C687.618 185.85 687.346 185.95 687.134 185.861C686.425 185.565 684.92 186.003 683.759 186.842C682.574 187.7 680.328 188.159 680.533 187.501C680.608 187.259 680.33 187.217 679.443 187.335C678.559 187.453 678.392 187.427 678.797 187.237C679.258 187.02 679.23 186.974 678.615 186.939C678.216 186.916 677.48 186.917 676.981 186.942C676.26 186.978 676.185 186.936 676.618 186.738C676.917 186.602 676.996 186.488 676.793 186.486C676.177 186.48 673.712 187.706 673.7 188.025C673.693 188.196 673.484 188.14 673.206 187.893C672.615 187.367 672.207 187.332 672.49 187.832C672.605 188.034 672.53 188.2 672.323 188.2C672.117 188.2 671.695 188.37 671.386 188.579C670.577 189.126 667.33 189.343 666.532 188.904C666.185 188.713 665.493 188.589 664.994 188.629C664.494 188.669 663.665 188.727 663.151 188.758C662.637 188.788 661.931 189.006 661.582 189.243C661.232 189.479 660.725 189.672 660.455 189.672C660.184 189.672 659.583 190.016 659.118 190.436C657.371 192.017 655.777 192.892 654.913 192.746C654.446 192.667 653.709 192.776 653.202 193.001C652.712 193.218 652.152 193.328 651.958 193.247C651.763 193.166 651.503 193.209 651.38 193.344C651.235 193.502 650.916 193.487 650.476 193.301C649.944 193.076 649.663 193.088 649.185 193.357C648.453 193.767 647.557 193.888 647.557 193.576C647.557 193.107 646.542 193.379 646.329 193.905C646.141 194.365 646.045 194.396 645.747 194.089C645.495 193.829 645.387 193.814 645.383 194.036C645.379 194.275 645.203 194.288 644.651 194.089C644.252 193.944 643.925 193.664 643.925 193.467C643.925 193.269 643.68 193.107 643.38 193.107C643.08 193.107 642.835 193.208 642.835 193.331C642.835 193.559 642.584 193.544 641.056 193.217C640.233 193.041 640.221 193.013 640.848 192.704C641.666 192.3 641.46 192.143 639.883 191.97C638.887 191.861 638.393 191.978 637.246 192.594C635.828 193.356 634.225 193.573 633.524 193.099C632.93 192.698 631.938 193.103 631.938 193.747C631.938 194.359 631.433 194.53 631.006 194.062C630.828 193.868 630.68 193.875 630.487 194.087C630.278 194.315 629.632 194.301 627.641 194.024C625.129 193.675 625.038 193.68 623.871 194.223C622.409 194.903 621.04 195.202 621.04 194.841C621.04 194.418 620.107 194.537 618.281 195.193C616.519 195.826 615.415 195.964 615.077 195.594C614.746 195.233 613.049 195.588 613.043 196.019C613.038 196.349 612.98 196.359 612.713 196.074C612.535 195.884 612.481 195.567 612.592 195.371C612.749 195.094 612.607 195.054 611.961 195.192C611.239 195.347 611.153 195.301 611.327 194.853C611.579 194.202 611.548 194.204 609.927 194.948C608.657 195.529 608.74 195.679 610.273 195.569C610.727 195.537 610.857 195.621 610.67 195.825C610.471 196.043 610.613 196.09 611.176 195.991C612.33 195.787 612.165 196.41 610.904 197.016C609.851 197.523 608.846 197.703 609.194 197.323C609.295 197.212 608.855 197.17 608.216 197.229L607.055 197.336L607.889 196.796C608.509 196.396 608.845 196.324 609.194 196.52C609.453 196.665 609.769 196.713 609.897 196.627C610.202 196.421 608.726 195.561 608.068 195.561C607.756 195.561 607.663 195.441 607.83 195.254C608.034 195.024 607.972 195.013 607.579 195.208C607.11 195.441 606.829 195.463 605.874 195.343C605.725 195.324 605.847 195.201 606.147 195.07C606.59 194.877 606.543 194.832 605.896 194.829C604.672 194.823 604.628 195.176 605.81 195.53C607.14 195.927 607.138 196.073 605.789 196.746C604.868 197.206 604.595 197.241 603.973 196.979C603.57 196.809 603.241 196.531 603.241 196.361C603.241 196.191 603.07 196.052 602.862 196.052C602.653 196.052 602.531 196.236 602.589 196.46C602.665 196.749 602.322 196.931 601.425 197.078C600.725 197.193 599.854 197.401 599.489 197.542C599.007 197.728 598.668 197.71 598.253 197.477C597.938 197.3 597.624 197.183 597.555 197.217C597.179 197.4 595.967 197.241 596.157 197.033C596.298 196.88 595.562 196.788 594.199 196.788C592.498 196.788 591.937 196.883 591.659 197.217C591.321 197.625 591.29 197.624 591.053 197.209C590.698 196.587 587.651 196.819 586.941 197.522C586.389 198.068 585.966 198.144 585.616 197.762ZM605.239 196.052C605.362 195.917 605.29 195.806 605.078 195.806C604.867 195.806 604.694 195.917 604.694 196.052C604.694 196.187 604.766 196.297 604.854 196.297C604.942 196.297 605.115 196.187 605.239 196.052ZM648.042 195.929C648.042 195.727 648.28 195.561 648.571 195.561C649 195.561 649.014 195.63 648.647 195.929C648.398 196.131 648.16 196.297 648.118 196.297C648.076 196.297 648.042 196.131 648.042 195.929ZM603.99 194.988C603.711 194.799 603.434 194.834 603.023 195.112C602.497 195.468 602.531 195.491 603.414 195.377C604.105 195.287 604.27 195.176 603.99 194.988ZM649.374 194.836C649.374 194.695 649.537 194.579 649.737 194.579C649.937 194.579 650.1 194.414 650.1 194.211C650.1 193.828 650.661 193.707 650.95 194.027C651.041 194.129 650.723 194.41 650.244 194.652C649.766 194.895 649.374 194.977 649.374 194.836ZM613.802 194.512C613.757 194.219 613.259 194.275 613.103 194.592C613.023 194.754 613.154 194.842 613.394 194.788C613.633 194.734 613.817 194.61 613.802 194.512ZM615.856 194.677C615.736 194.595 615.422 194.586 615.16 194.657C614.87 194.736 614.956 194.794 615.38 194.805C615.762 194.816 615.977 194.758 615.856 194.677ZM640.837 194.089C640.714 193.954 640.786 193.843 640.998 193.843C641.209 193.843 641.382 193.954 641.382 194.089C641.382 194.224 641.31 194.334 641.222 194.334C641.134 194.334 640.961 194.224 640.837 194.089ZM614.32 192.862C614.443 192.727 614.381 192.616 614.181 192.616C613.981 192.616 613.717 192.727 613.594 192.862C613.47 192.997 613.532 193.107 613.732 193.107C613.932 193.107 614.196 192.997 614.32 192.862ZM637.386 192.876C637.386 192.749 637.548 192.578 637.746 192.496C637.951 192.41 638.012 192.508 637.888 192.726C637.647 193.151 637.386 193.229 637.386 192.876ZM609.961 192.616C610.084 192.482 610.012 192.371 609.801 192.371C609.589 192.371 609.416 192.482 609.416 192.616C609.416 192.751 609.488 192.862 609.576 192.862C609.665 192.862 609.837 192.751 609.961 192.616ZM613.23 192.616C613.354 192.482 613.291 192.371 613.091 192.371C612.892 192.371 612.627 192.482 612.504 192.616C612.38 192.751 612.443 192.862 612.643 192.862C612.842 192.862 613.107 192.751 613.23 192.616ZM674.32 188.529C674.001 188.313 674.768 187.709 675.36 187.709C675.619 187.709 675.885 187.616 675.952 187.502C676.13 187.195 678.071 186.92 678.071 187.201C678.071 187.332 677.785 187.56 677.435 187.709C676.886 187.941 676.911 187.957 677.617 187.827C679.179 187.538 678.423 187.9 676.64 188.294C674.584 188.748 674.637 188.743 674.32 188.529ZM675.346 188.2C675.47 188.065 675.397 187.954 675.186 187.954C674.975 187.954 674.801 188.065 674.801 188.2C674.801 188.335 674.873 188.445 674.961 188.445C675.05 188.445 675.223 188.335 675.346 188.2ZM678.982 187.951C679.108 187.813 679.363 187.765 679.549 187.842C680.052 188.053 679.959 188.2 679.321 188.2C679.009 188.2 678.857 188.088 678.982 187.951ZM675.273 186.073C675.102 185.774 675.006 185.766 674.756 186.032C674.297 186.521 674.375 186.729 674.96 186.577C675.247 186.503 675.388 186.276 675.273 186.073ZM537.492 185.501C537.492 185.366 537.656 185.255 537.856 185.255C538.055 185.255 538.219 185.366 538.219 185.501C538.219 185.636 538.055 185.746 537.856 185.746C537.656 185.746 537.492 185.636 537.492 185.501ZM781.435 183.314C781.082 182.928 780.144 182.986 780.144 183.395C780.144 183.807 780.921 184.048 781.366 183.774C781.538 183.668 781.569 183.46 781.435 183.314ZM704.951 182.802C704.951 182.667 704.696 182.556 704.385 182.556C704.074 182.556 703.919 182.667 704.043 182.802C704.167 182.937 704.421 183.047 704.609 183.047C704.797 183.047 704.951 182.937 704.951 182.802ZM476.829 182.296C476.829 182.154 476.993 182.105 477.193 182.188C477.392 182.272 477.556 182.388 477.556 182.448C477.556 182.508 477.392 182.556 477.193 182.556C476.993 182.556 476.829 182.439 476.829 182.296ZM917.816 181.084C917.816 180.949 917.571 180.839 917.271 180.839C916.972 180.839 916.727 180.949 916.727 181.084C916.727 181.219 916.972 181.329 917.271 181.329C917.571 181.329 917.816 181.219 917.816 181.084ZM502.257 180.485C502.257 180.425 502.094 180.309 501.894 180.225C501.694 180.142 501.531 180.191 501.531 180.333C501.531 180.476 501.694 180.593 501.894 180.593C502.094 180.593 502.257 180.545 502.257 180.485ZM907.282 179.857C907.282 179.722 906.945 179.612 906.534 179.612C906.056 179.612 905.881 179.509 906.049 179.325C906.228 179.129 906.11 179.09 905.677 179.202C905.328 179.293 904.975 179.366 904.891 179.366C904.434 179.366 904.837 179.838 905.375 179.933C906.526 180.137 907.282 180.106 907.282 179.857ZM1007.18 179.215C1007.18 179.08 1007.42 178.755 1007.71 178.493C1008 178.231 1008.24 178.127 1008.24 178.262C1008.24 178.397 1008 178.722 1007.71 178.984C1007.42 179.246 1007.18 179.35 1007.18 179.215ZM910.733 178.876C910.609 178.741 910.355 178.63 910.167 178.63C909.978 178.63 909.825 178.741 909.825 178.876C909.825 179.011 910.08 179.121 910.391 179.121C910.702 179.121 910.856 179.011 910.733 178.876ZM486.274 178.029C486.274 177.714 486.029 177.392 485.729 177.315C485.325 177.21 485.184 177.351 485.184 177.861C485.184 178.239 485.289 178.619 485.416 178.705C485.822 178.979 486.274 178.622 486.274 178.029ZM970.669 177.158C970.793 177.023 970.721 176.913 970.509 176.913C970.298 176.913 970.124 177.023 970.124 177.158C970.124 177.293 970.196 177.403 970.285 177.403C970.373 177.403 970.546 177.293 970.669 177.158ZM1024.25 176.913C1024.25 176.778 1024.41 176.667 1024.61 176.667C1024.81 176.667 1024.98 176.778 1024.98 176.913C1024.98 177.048 1024.81 177.158 1024.61 177.158C1024.41 177.158 1024.25 177.048 1024.25 176.913ZM810.839 175.931C810.663 175.739 810.454 175.725 810.212 175.889C810.012 176.023 809.967 176.263 810.112 176.422C810.288 176.614 810.497 176.628 810.739 176.465C810.939 176.33 810.984 176.09 810.839 175.931ZM811.523 175.06C811.646 174.841 811.585 174.743 811.38 174.829C811.182 174.911 811.02 175.083 811.02 175.21C811.02 175.562 811.281 175.485 811.523 175.06ZM451.765 174.336C451.765 174.134 451.52 173.968 451.22 173.968C450.653 173.968 450.5 174.259 450.918 174.541C451.335 174.823 451.765 174.72 451.765 174.336ZM1043.86 172.893C1043.86 172.706 1043.56 172.499 1043.18 172.433C1042.66 172.341 1042.54 172.419 1042.68 172.773C1042.89 173.302 1043.86 173.401 1043.86 172.893ZM427.241 170.24C427.438 170.143 427.252 170.082 426.827 170.103C426.344 170.128 426.124 170.266 426.241 170.471C426.343 170.652 426.53 170.713 426.655 170.608C426.78 170.502 427.044 170.337 427.241 170.24ZM408.538 168.433C408.538 168.223 408.702 168.119 408.902 168.202C409.101 168.285 409.265 168.457 409.265 168.585C409.265 168.712 409.101 168.815 408.902 168.815C408.702 168.815 408.538 168.643 408.538 168.433ZM405.186 166.73C405.142 166.374 404.884 166.116 404.572 166.116C404.175 166.116 404.14 166.188 404.442 166.392C404.666 166.543 404.763 166.819 404.657 167.005C404.551 167.191 404.644 167.343 404.863 167.343C405.082 167.343 405.227 167.067 405.186 166.73ZM911.152 166.229C911.271 166.02 911.289 165.797 911.193 165.732C910.87 165.513 909.825 165.921 909.825 166.265C909.825 166.73 910.884 166.7 911.152 166.229ZM393.827 162.927C393.95 162.792 394.205 162.681 394.393 162.681C394.581 162.681 394.735 162.792 394.735 162.927C394.735 163.062 394.48 163.172 394.168 163.172C393.857 163.172 393.703 163.062 393.827 162.927ZM388.855 161.041C389.117 160.97 389.43 160.979 389.551 161.061C389.671 161.142 389.457 161.2 389.074 161.19C388.651 161.178 388.565 161.12 388.855 161.041ZM1084.73 160.96C1084.86 160.822 1085.1 160.768 1085.27 160.838C1085.44 160.909 1085.66 160.828 1085.76 160.658C1085.87 160.472 1085.96 160.52 1085.97 160.78C1085.99 161.056 1085.73 161.209 1085.25 161.209C1084.84 161.209 1084.61 161.098 1084.73 160.96ZM384.463 156.22C384.386 156.065 384.689 155.744 385.136 155.507C385.835 155.136 385.891 154.992 385.533 154.48C385.198 154 385.015 153.941 384.591 154.173C384.161 154.408 384.108 154.382 384.303 154.032C384.462 153.745 384.364 153.602 384.008 153.602C383.32 153.602 383.325 153.95 384.019 154.339C384.717 154.73 384.718 155.296 384.021 155.476C383.722 155.554 383.568 155.716 383.679 155.837C383.79 155.957 383.701 156.056 383.481 156.056C383.224 156.056 383.249 156.178 383.551 156.398C384.071 156.779 384.68 156.66 384.463 156.22ZM331.398 149.799C331.283 149.597 331.33 149.431 331.501 149.431C331.674 149.431 331.909 149.597 332.024 149.799C332.139 150.002 332.092 150.167 331.92 150.167C331.748 150.167 331.513 150.002 331.398 149.799ZM376.391 149.677C376.514 149.542 376.442 149.431 376.23 149.431C376.019 149.431 375.846 149.542 375.846 149.677C375.846 149.811 375.918 149.922 376.006 149.922C376.094 149.922 376.267 149.811 376.391 149.677ZM318.747 148.282C319.009 148.211 319.323 148.22 319.443 148.301C319.564 148.383 319.35 148.441 318.967 148.43C318.544 148.418 318.457 148.36 318.747 148.282ZM317.518 146.592C318.617 145.849 318.101 145.481 316.855 146.119C316.476 146.312 316.028 146.414 315.86 146.343C315.692 146.273 315.652 146.387 315.77 146.597C316.048 147.085 316.791 147.083 317.518 146.592ZM310.947 144.877C310.557 144.319 310.568 144.315 311.412 144.688C312.413 145.131 312.435 145.166 311.811 145.328C311.556 145.394 311.167 145.191 310.947 144.877ZM293.569 143.542C293.446 143.407 293.609 143.297 293.933 143.297C294.256 143.297 294.419 143.407 294.296 143.542C294.172 143.677 294.009 143.788 293.933 143.788C293.856 143.788 293.693 143.677 293.569 143.542ZM1148.89 142.464C1148.65 142.073 1148.36 141.641 1148.23 141.502C1148.09 141.349 1148.24 141.312 1148.6 141.407C1149.07 141.527 1149.21 141.422 1149.21 140.958C1149.21 140.573 1149.41 140.352 1149.77 140.352C1150.08 140.352 1150.23 140.468 1150.1 140.61C1149.97 140.752 1149.75 141.387 1149.6 142.021L1149.32 143.174L1148.89 142.464ZM1144.48 141.226C1144.48 141.166 1144.32 141.049 1144.12 140.966C1143.92 140.882 1143.76 140.931 1143.76 141.074C1143.76 141.217 1143.92 141.334 1144.12 141.334C1144.32 141.334 1144.48 141.285 1144.48 141.226ZM282.49 137.408C282.49 137.273 282.327 137.163 282.127 137.163C281.927 137.163 281.764 137.273 281.764 137.408C281.764 137.543 281.927 137.653 282.127 137.653C282.327 137.653 282.49 137.543 282.49 137.408ZM1302.98 134.382C1302.98 134.202 1303.2 134.054 1303.46 134.054C1303.82 134.054 1303.84 134.137 1303.54 134.382C1303.32 134.562 1303.1 134.709 1303.06 134.709C1303.02 134.709 1302.98 134.562 1302.98 134.382ZM256.881 133.973C257.004 133.838 257.382 133.729 257.72 133.731C258.249 133.734 258.259 133.768 257.789 133.973C257.078 134.283 256.597 134.283 256.881 133.973ZM258.697 133.727C258.821 133.592 258.994 133.482 259.082 133.482C259.17 133.482 259.242 133.592 259.242 133.727C259.242 133.862 259.069 133.973 258.857 133.973C258.646 133.973 258.574 133.862 258.697 133.727ZM1305.43 133.339C1305.45 133.053 1305.54 132.995 1305.65 133.191C1305.76 133.368 1305.75 133.579 1305.62 133.661C1305.5 133.742 1305.42 133.598 1305.43 133.339ZM1308.57 133.083C1308.29 132.892 1308.68 132.255 1309.08 132.255C1309.49 132.255 1309.5 132.921 1309.09 133.093C1308.92 133.164 1308.68 133.16 1308.57 133.083ZM1307.58 132.501C1307.58 132.366 1307.75 132.255 1307.95 132.255C1308.15 132.255 1308.31 132.366 1308.31 132.501C1308.31 132.635 1308.15 132.746 1307.95 132.746C1307.75 132.746 1307.58 132.635 1307.58 132.501ZM1313.76 131.274C1313.43 131.131 1313.39 131.034 1313.65 131.032C1313.89 131.03 1314.18 131.139 1314.3 131.274C1314.58 131.578 1314.46 131.578 1313.76 131.274ZM1302.89 129.904C1302.91 129.618 1302.99 129.56 1303.11 129.755C1303.22 129.932 1303.2 130.144 1303.08 130.226C1302.96 130.307 1302.88 130.162 1302.89 129.904ZM1274.53 129.065C1274.53 128.93 1274.7 128.82 1274.91 128.82C1275.12 128.82 1275.2 128.93 1275.07 129.065C1274.95 129.2 1274.78 129.311 1274.69 129.311C1274.6 129.311 1274.53 129.2 1274.53 129.065ZM1212.17 128.687C1211.94 128.268 1211.27 128.32 1211.04 128.774C1210.96 128.936 1211.23 129.065 1211.64 129.065C1212.17 129.065 1212.33 128.952 1212.17 128.687ZM1315.21 128.221C1315.21 128.161 1315.05 128.045 1314.85 127.961C1314.65 127.878 1314.49 127.927 1314.49 128.069C1314.49 128.212 1314.65 128.329 1314.85 128.329C1315.05 128.329 1315.21 128.281 1315.21 128.221ZM1334.42 127.757C1334.74 127.495 1334.58 127.429 1333.64 127.429C1333 127.429 1332.67 127.476 1332.92 127.532C1333.17 127.589 1333.29 127.736 1333.17 127.859C1332.85 128.213 1333.97 128.121 1334.42 127.757ZM1356.51 127.683C1356.11 127.412 1354.44 127.38 1354.44 127.643C1354.44 127.782 1354.77 127.838 1355.17 127.768C1355.57 127.697 1355.99 127.746 1356.11 127.878C1356.23 128.009 1356.43 128.054 1356.54 127.978C1356.65 127.901 1356.64 127.769 1356.51 127.683ZM1359.35 125.875C1359.47 125.741 1359.4 125.63 1359.19 125.63C1358.98 125.63 1358.8 125.741 1358.8 125.875C1358.8 126.01 1358.88 126.121 1358.96 126.121C1359.05 126.121 1359.22 126.01 1359.35 125.875ZM9.98389 125.708C10.2458 125.637 10.5593 125.646 10.6799 125.727C10.8005 125.809 10.5862 125.867 10.2033 125.856C9.7801 125.844 9.69401 125.786 9.98389 125.708ZM0.751136 121.805C1.2368 120.95 -0.183873 120.623 -0.83155 121.441C-1.19553 121.9 -1.03316 122.005 0.29598 122.166C0.424571 122.182 0.629447 122.019 0.751136 121.805Z" fill="#F7F2EE"/>
</svg>
