<svg width="125" height="124" viewBox="0 0 125 124" fill="none" xmlns="http://www.w3.org/2000/svg">
<g id="Group 14">
<circle id="Ellipse 2" cx="62.5" cy="62" r="62" fill="#097C68"/>
<path id="box-open" d="M63.0005 40.7031L91.9458 36.4844C93.2348 36.3672 94.5239 37.0703 94.9926 38.2422L98.8598 47.9687C99.6801 50.0781 98.5083 52.4219 96.2817 53.0078L76.7114 58.1641C74.7192 58.6328 72.727 57.8125 71.6723 56.1719L63.0005 43.2812L54.2114 56.1719C53.1567 57.8125 51.1645 58.6328 49.1723 58.1641L29.602 53.0078C27.3755 52.4219 26.2036 50.0781 27.0239 47.9687L30.8911 38.2422C31.3598 37.0703 32.6489 36.3672 33.938 36.4844L63.0005 40.7031ZM28.7817 48.6719C28.313 49.7266 28.8989 50.8984 30.0708 51.25L49.6411 56.2891C50.813 56.6406 51.9848 56.1719 52.688 55.1172L61.3598 42.3437L33.5864 38.3594C33.2348 38.3594 32.7661 38.5937 32.6489 38.9453L28.7817 48.6719ZM64.5239 42.3437L73.1958 55.1172C73.8989 56.1719 75.0708 56.6406 76.2426 56.2891L95.813 51.25C96.9848 50.8984 97.5708 49.7266 97.102 48.6719L93.2348 38.9453C93.1176 38.5937 92.6489 38.3594 92.2973 38.3594L64.5239 42.3437ZM91.1255 57.9297L93.0005 57.3437V76.9141C93.0005 79.4922 91.2426 81.7187 88.6645 82.4219L64.2895 88.5156C63.352 88.6328 62.5317 88.6328 61.5942 88.5156L37.2192 82.4219C34.6411 81.7187 32.8833 79.4922 32.8833 76.9141V57.3437L34.7583 57.9297V76.9141C34.7583 78.6719 35.9301 80.0781 37.688 80.5469L61.9458 86.6406V55.9375C61.9458 55.4687 62.4145 55 62.8833 55C63.4692 55 63.938 55.4687 63.938 55.9375V86.6406L88.1958 80.5469C89.9536 80.0781 91.1255 78.6719 91.1255 76.9141V57.9297Z" fill="#F7F2EE"/>
</g>
</svg>
