<svg width="125" height="124" viewBox="0 0 125 124" fill="none" xmlns="http://www.w3.org/2000/svg">
<g id="Group 14">
<circle id="Ellipse 2" cx="62.5" cy="62" r="62" fill="#097C68"/>
<path id="heart" d="M62.5 45.625L64.1406 43.6328C67.6562 39.0625 73.5156 36.9531 79.1406 37.8906C86.875 39.1797 92.5 45.7422 92.5 53.4766V54.8828C92.5 59.8047 90.3906 64.4922 86.875 67.7735L65.6641 87.5781C64.8438 88.3985 63.6719 88.75 62.5 88.75C61.2109 88.75 60.0391 88.3985 59.2188 87.5781L38.0078 67.7735C34.4922 64.4922 32.5 59.8047 32.5 54.8828V53.4766C32.5 45.7422 38.0078 39.1797 45.7422 37.8906C51.3672 36.9531 57.2266 39.0625 60.7422 43.6328L62.5 45.625ZM62.5 48.6719L59.3359 44.8047C56.1719 40.8203 51.0156 38.8281 46.0938 39.6485C39.2969 40.8203 34.375 46.6797 34.375 53.4766V54.8828C34.375 59.2188 36.1328 63.4375 39.2969 66.3672L60.5078 86.1719C60.9766 86.6406 61.6797 86.875 62.5 86.875C63.2031 86.875 63.9062 86.6406 64.375 86.1719L85.5859 66.3672C88.75 63.4375 90.625 59.2188 90.625 54.8828V53.4766C90.625 46.6797 85.5859 40.8203 78.7891 39.6485C73.8672 38.8281 68.7109 40.8203 65.5469 44.8047L62.5 48.6719Z" fill="#F7F2EE"/>
</g>
</svg>
