<svg width="125" height="124" viewBox="0 0 125 124" fill="none" xmlns="http://www.w3.org/2000/svg">
<g id="Group 14">
<circle id="Ellipse 2" cx="62.5" cy="62" r="62" fill="#097C68"/>
<path id="dog" d="M79.3747 43.2812C79.3747 42.5781 79.9607 41.875 80.781 41.875C81.4841 41.875 82.1872 42.5781 82.1872 43.2812C82.1872 44.1016 81.4841 44.6875 80.781 44.6875C79.9607 44.6875 79.3747 44.1016 79.3747 43.2812ZM66.2497 75.8594C65.5466 76.0938 64.9607 76.3281 64.3747 76.5625C62.2654 77.1484 60.0388 77.5 57.8122 77.5C55.4685 77.5 53.2419 77.1484 51.2497 76.5625C50.5466 76.3281 49.9607 76.0938 49.3747 75.8594V86.875C49.3747 90.0391 46.7966 92.5 43.7497 92.5H41.8747C38.7107 92.5 36.2497 90.0391 36.2497 86.875V59.9219C32.8513 58.6328 30.156 55.8203 29.2185 52.1875L28.7497 50.3125C28.281 48.3203 29.57 46.3281 31.5622 45.7422C33.5544 45.2734 35.5466 46.5625 36.1325 48.5547L36.4841 50.3125C36.9529 51.9531 38.4763 53.125 40.1169 53.125H65.5466L68.5935 34.8438C68.8279 33.5547 69.9997 32.5 71.406 32.5C72.2263 32.5 73.0466 32.9688 73.6325 33.6719L75.6247 36.25H80.781C82.1872 36.25 83.7107 36.9531 84.7654 38.0078L86.8747 40H92.4997C94.4919 40 96.2497 41.7578 96.2497 43.75V46.5625C96.2497 51.25 92.3825 55 87.8122 55H80.4294L79.3747 61.5625V86.875C79.3747 90.0391 76.7966 92.5 73.7497 92.5H71.8747C68.7107 92.5 66.2497 90.0391 66.2497 86.875V75.8594ZM65.8982 55H40.1169C37.5388 55 35.3122 53.2422 34.7263 50.7812L34.2575 49.0234C34.0232 47.9688 32.9685 47.3828 32.031 47.6172C30.9763 47.8516 30.3904 48.9062 30.6247 49.8438L31.0935 51.7188C31.7966 54.7656 34.0232 57.1094 36.8357 58.1641L38.1247 58.6328V86.875C38.1247 88.9844 39.7654 90.625 41.8747 90.625H43.7497C45.7419 90.625 47.4997 88.9844 47.4997 86.875V73.0469L50.0779 74.1016C52.4216 75.1562 54.9997 75.625 57.8122 75.625C60.5075 75.625 63.0857 75.1562 65.4294 74.1016L68.1247 73.0469V86.875C68.1247 88.9844 69.7654 90.625 71.8747 90.625H73.7497C75.7419 90.625 77.4997 88.9844 77.4997 86.875V61.7969L65.8982 55ZM78.7888 53.125H87.8122C91.3279 53.125 94.3747 50.1953 94.3747 46.5625V43.75C94.3747 42.8125 93.4372 41.875 92.4997 41.875H86.0544L83.3591 39.2969C82.656 38.5938 81.7185 38.125 80.781 38.125H74.6872L72.1091 34.8438C71.8747 34.6094 71.6404 34.375 71.406 34.375C70.9372 34.375 70.5857 34.7266 70.4685 35.1953L67.4216 53.7109L77.7341 59.8047L78.7888 53.125Z" fill="#F7F2EE"/>
</g>
</svg>
