<svg width="125" height="124" viewBox="0 0 125 124" fill="none" xmlns="http://www.w3.org/2000/svg">
<g id="Group 14">
<circle id="Ellipse 2" cx="62.5" cy="62" r="62" fill="#097C68"/>
<path id="calendar-day" d="M44.25 66.25C44.25 64.2578 45.8906 62.5 48 62.5H55.5C57.4922 62.5 59.25 64.2578 59.25 66.25V73.75C59.25 75.8594 57.4922 77.5 55.5 77.5H48C45.8906 77.5 44.25 75.8594 44.25 73.75V66.25ZM46.125 73.75C46.125 74.8047 46.9453 75.625 48 75.625H55.5C56.4375 75.625 57.375 74.8047 57.375 73.75V66.25C57.375 65.3125 56.4375 64.375 55.5 64.375H48C46.9453 64.375 46.125 65.3125 46.125 66.25V73.75ZM51.75 40H74.25V33.4375C74.25 32.9688 74.6016 32.5 75.1875 32.5C75.6562 32.5 76.125 32.9688 76.125 33.4375V40H81.75C85.8516 40 89.25 43.3984 89.25 47.5V85C89.25 89.2188 85.8516 92.5 81.75 92.5H44.25C40.0312 92.5 36.75 89.2188 36.75 85V47.5C36.75 43.3984 40.0312 40 44.25 40H49.875V33.4375C49.875 32.9688 50.2266 32.5 50.8125 32.5C51.2812 32.5 51.75 32.9688 51.75 33.4375V40ZM38.625 85C38.625 88.1641 41.0859 90.625 44.25 90.625H81.75C84.7969 90.625 87.375 88.1641 87.375 85V55H38.625V85ZM44.25 41.875C41.0859 41.875 38.625 44.4531 38.625 47.5V53.125H87.375V47.5C87.375 44.4531 84.7969 41.875 81.75 41.875H76.125V46.5625C76.125 47.1484 75.6562 47.5 75.1875 47.5C74.6016 47.5 74.25 47.1484 74.25 46.5625V41.875H51.75V46.5625C51.75 47.1484 51.2812 47.5 50.8125 47.5C50.2266 47.5 49.875 47.1484 49.875 46.5625V41.875H44.25Z" fill="#F7F2EE"/>
</g>
</svg>
