<svg width="296" height="101" viewBox="0 0 296 101" fill="none" xmlns="http://www.w3.org/2000/svg">
<path fill-rule="evenodd" clip-rule="evenodd" d="M213.504 0.387377C210.486 0.665966 207.846 0.993844 207.638 1.11671C207.43 1.23886 208.707 1.54102 210.476 1.78747C213.684 2.23464 213.679 2.23607 208.773 2.45608C206.068 2.57752 202.066 2.92968 199.88 3.23827C197.131 3.62687 198.531 3.69759 204.422 3.46757C217.885 2.94254 231.71 2.47822 233.488 2.49037C234.48 2.49751 235.027 2.22178 234.885 1.78747C234.731 1.31815 238.042 1.07313 244.534 1.07313C251.55 1.07313 254.344 1.29815 254.164 1.8489C254.004 2.3375 254.241 2.56323 254.804 2.45751C255.296 2.36464 255.953 2.47965 256.266 2.71324C256.578 2.94611 259.388 3.48043 262.51 3.90046C265.632 4.32048 268.825 4.94766 269.605 5.29412C270.386 5.63985 271.024 5.657 271.024 5.33198C271.024 4.5205 270.022 4.04832 264.212 2.12034C263.484 1.8789 262.122 1.34887 261.185 0.943127C259.167 0.0687858 221.698 -0.36767 213.504 0.387377ZM98.2738 1.13957C96.4952 1.53745 96.5463 1.56959 99.1252 1.67531C101.842 1.78604 102.662 1.48387 101.017 0.978129C100.549 0.833834 99.3144 0.906694 98.2738 1.13957ZM94.1111 1.49102C93.6949 1.61317 91.8644 1.91962 90.0431 2.17177C88.2221 2.42393 86.7319 2.86682 86.7319 3.15684C86.7319 3.44614 87.2851 3.55543 87.9617 3.399C88.9048 3.18112 89.0592 3.29042 88.624 3.86903C88.1926 4.44192 88.465 4.6055 89.7593 4.54907C91.3123 4.48192 91.3623 4.42763 90.3269 3.93046L89.1916 3.38542L90.5793 3.30042C91.3422 3.25399 92.0234 3.50257 92.093 3.85331C92.1645 4.21547 93.6059 4.25976 95.4356 3.95546C98.905 3.37971 98.8448 3.10469 95.2464 3.08969C93.9976 3.08398 93.4016 2.92254 93.9219 2.73038C94.8158 2.40036 96.026 0.954557 95.2275 1.17028C95.0299 1.22386 94.5274 1.36815 94.1111 1.49102ZM224.588 1.60102C223.296 1.74032 221.082 1.74103 219.669 1.60317C218.255 1.46602 219.312 1.35172 222.018 1.35101C224.724 1.34958 225.88 1.46244 224.588 1.60102ZM229.871 1.54602C229.611 1.7446 229.185 1.7446 228.924 1.54602C228.664 1.34815 228.877 1.186 229.397 1.186C229.918 1.186 230.131 1.34815 229.871 1.54602ZM258.631 2.26035C258.371 2.45894 257.945 2.45894 257.685 2.26035C257.425 2.06248 257.637 1.90033 258.158 1.90033C258.678 1.90033 258.891 2.06248 258.631 2.26035ZM261.287 2.25606C261.031 2.45179 260.52 2.46394 260.152 2.2825C259.783 2.10106 259.993 1.94105 260.617 1.92676C261.242 1.91247 261.543 2.06034 261.287 2.25606ZM99.3144 2.99397C99.6785 3.17398 100.275 3.17398 100.639 2.99397C101.003 2.81467 100.705 2.66752 99.9767 2.66752C99.2482 2.66752 98.9504 2.81467 99.3144 2.99397ZM102.909 2.97468C103.17 3.17327 103.596 3.17327 103.856 2.97468C104.116 2.77681 103.903 2.61466 103.382 2.61466C102.862 2.61466 102.649 2.77681 102.909 2.97468ZM30.4626 4.15476C30.3536 4.48763 28.3672 4.69408 26.0483 4.61336C21.8406 4.46835 14.4708 5.51984 13.2303 6.44276C12.8152 6.75135 12.6044 7.58854 12.6543 8.72933C12.7395 10.6709 12.7981 10.7402 14.926 11.4074C16.6675 11.9538 16.8079 13.1096 15.1152 12.9646C13.9883 12.8682 13.8944 13.0239 13.9943 14.824C14.0897 16.5441 13.972 16.7898 13.0483 16.7991C11.7249 16.8134 11.2587 17.4485 11.1543 19.38C11.0865 20.6365 11.3321 20.978 12.5734 21.3523C14.5824 21.9587 14.4738 22.9467 12.3482 23.3988C10.6691 23.756 8.58137 26.329 8.98099 27.5491C9.08014 27.8527 8.65025 28.3134 8.02547 28.5727C7.04346 28.9799 6.96248 29.1813 7.42756 30.0593C7.72349 30.6179 8.19084 31.08 8.46596 31.0857C8.84287 31.0943 8.82962 31.2593 8.41222 31.7579C8.02434 32.2208 8.46671 32.4844 9.89148 32.6394C11.8998 32.858 11.9244 32.888 11.9584 35.1824C11.9777 36.4597 11.8653 37.504 11.7094 37.504C11.5535 37.504 11.4256 38.1469 11.4256 38.9327C11.4256 39.9913 11.1562 40.3863 10.3849 40.4585C9.47786 40.5435 9.45478 40.5956 10.2056 40.8678C11.3026 41.265 13.298 43.2087 12.615 43.2144C12.3263 43.2165 12.1923 43.6644 12.3088 44.238C12.6169 45.7531 11.8676 46.5703 9.3772 47.4361C7.14905 48.2104 6.18898 48.9333 7.38896 48.9333C7.73598 48.9333 8.0198 49.4155 8.0198 50.0048C8.0198 50.8384 7.51536 51.0763 5.74926 51.0763C3.30086 51.0763 2.53947 52.4407 4.8978 52.6021C5.77612 52.6621 5.99258 52.8171 5.46544 53.0093C4.99695 53.1793 4.61399 53.5957 4.61399 53.935C4.61399 54.2743 4.27076 54.7572 3.85146 55.0087C3.43217 55.2594 3.18317 55.7516 3.29745 56.1009C3.41211 56.4509 2.94627 57.0417 2.26246 57.4138C1.18812 57.9989 1.40496 58.1025 3.85714 58.1767C6.77138 58.2653 6.87961 59.0175 4.11333 59.9561C2.88686 60.3719 2.73738 60.609 3.13359 61.5098C3.50975 62.3656 3.66452 62.392 3.92563 61.6462C4.17766 60.9255 4.37633 61.0326 4.81833 62.127C5.33942 63.4164 5.31483 63.5928 4.52733 64.2357C3.79167 64.8357 3.96802 64.9929 5.74926 65.3286C7.61715 65.6801 7.74809 65.8094 7.02643 66.5901C6.58444 67.0687 5.47755 67.6745 4.56668 67.9359C1.7357 68.7488 1.5726 69.6003 4.23556 69.6653L6.69531 69.7246L3.47872 72.0083L0.262117 74.292L2.15423 74.6492L4.04635 75.0064L1.81668 75.9729C0.258711 76.6486 -0.254052 77.1294 0.113775 77.5694C0.403648 77.9158 0.981121 78.2266 1.39739 78.2601C2.14894 78.3209 2.14894 78.3251 1.4042 78.8745C0.860028 79.2752 1.32776 79.5967 3.10711 80.0445C5.32959 80.6031 5.41776 80.6853 4.04635 80.9175C3.21382 81.0582 2.37107 81.4739 2.17316 81.8404C1.95026 82.2533 3.53207 82.5283 6.33581 82.5633C9.82828 82.6068 10.6211 82.7833 9.81731 83.3369C9.2141 83.7534 8.77664 84.5891 8.77664 85.3263C8.77664 86.3578 8.11516 86.8521 5.28115 87.9379C3.35876 88.6744 2.10655 89.3937 2.49822 89.5359C3.06813 89.743 3.10483 89.9209 2.68214 90.4259C2.29387 90.8902 2.40437 91.0624 3.10029 91.0788C3.62062 91.091 4.29687 91.4003 4.60339 91.766C5.22249 92.5046 5.06166 92.6853 3.04731 93.5133C2.49784 93.739 1.95594 94.379 1.84279 94.9362C1.67023 95.7834 2.32415 95.8948 5.86922 95.6191C8.99689 95.3762 9.95316 95.4948 9.53349 96.0734C9.05478 96.7342 9.08468 96.8392 9.7227 96.7434C10.9874 96.552 11.2644 96.7806 10.6688 97.5235C10.2828 98.005 10.8273 98.0678 12.3717 97.7207C15.1985 97.0842 15.0539 97.077 21.4538 98.18C25.3758 98.8557 31.1252 98.9657 43.5916 98.605C53.9396 98.305 63.6409 98.4078 68.7568 98.8707C85.6174 100.399 87.2946 100.506 87.0535 100.036C86.9184 99.7722 85.0452 99.3822 82.8909 99.1693C80.7369 98.9572 78.8122 98.4957 78.6147 98.1457C78.122 97.2721 110.707 97.3399 122.2 98.2364C128.792 98.7507 178.584 99.7572 195.907 99.7265C199.772 99.7194 216.628 98.8164 217.401 98.575C218.04 98.375 218.369 98.5229 218.231 98.9472C218.104 99.3343 218.17 99.6508 218.379 99.6508C218.587 99.6508 218.862 99.3293 218.991 98.9364C219.297 98 220.694 98.0107 220.694 98.9493C220.694 99.7572 229.633 99.8051 236.161 99.0329C239.151 98.6793 240.131 98.7829 240.27 99.4665C240.371 99.9608 240.7 100.365 241.002 100.365C241.305 100.365 241.446 100.044 241.318 99.6508C241.189 99.2579 241.392 98.8814 241.769 98.8143C242.145 98.7471 242.709 98.6207 243.021 98.5329C243.333 98.4457 244.525 98.335 245.67 98.2871C246.938 98.2343 247.557 97.9678 247.255 97.6064C246.764 97.0185 249.448 96.4713 257.022 95.617C260.83 95.1876 262.553 94.0147 259.652 93.8276C258.726 93.7676 257.798 93.644 257.59 93.5525C257.382 93.4611 255.594 93.3054 253.617 93.2068L250.022 93.0261L252.481 92.4703C253.834 92.1646 256.615 91.8139 258.661 91.6917C260.707 91.5688 262.463 91.2203 262.563 90.9167C262.662 90.6131 263.084 90.3645 263.5 90.3645C263.917 90.3645 264.166 90.0852 264.054 89.743C263.941 89.398 263.132 89.3844 262.234 89.7123C260.422 90.3738 258.695 90.5402 258.967 90.0273C259.332 89.3387 267.172 86.7886 267.714 87.1814C268.031 87.4107 268.376 87.1029 268.504 86.4764C268.664 85.687 269.309 85.3306 270.729 85.2477L272.727 85.1313L270.646 84.7098C269.008 84.3777 268.782 84.197 269.583 83.8619C270.143 83.6269 271.421 83.6741 272.421 83.9655C273.422 84.257 274.279 84.4305 274.327 84.3512C274.374 84.2712 274.141 83.4755 273.81 82.5818C273.41 81.5061 273.08 81.1975 272.831 81.6675C272.582 82.1383 272.054 82.1261 271.266 81.6304C269.152 80.301 269.486 80.0017 272.793 80.2624C275.1 80.4439 275.964 80.2888 275.78 79.7267C275.62 79.2395 275.857 78.9102 276.394 78.8709C277.172 78.8138 273.454 77.3872 270.456 76.5929C269.832 76.4272 270.598 76.2386 272.159 76.1743C273.72 76.1093 275.253 75.7443 275.565 75.3635C276.036 74.7892 276.004 74.6671 275.376 74.6492C274.96 74.6371 274.364 74.2878 274.051 73.8727C273.636 73.3213 273.967 73.2398 275.28 73.5706C277.629 74.1606 278.125 73.537 277.041 71.3597C276.562 70.3954 276.394 69.6489 276.657 69.6489C276.913 69.6489 277.018 69.3274 276.89 68.9346C276.761 68.5417 275.942 68.2152 275.07 68.2095C274.198 68.2031 273.228 67.8631 272.916 67.453C272.508 66.9173 272.906 66.8387 274.335 67.1744C276.357 67.648 277.122 66.6966 275.471 65.7615C274.64 65.2915 274.638 65.2629 275.376 64.5936C275.976 64.0507 275.856 63.97 274.798 64.2071C273.275 64.5493 271.675 63.0092 272.747 62.2327C273.082 61.9898 273.662 61.7913 274.036 61.7913C274.41 61.7913 274.927 61.3091 275.187 60.7198C275.557 59.8783 275.558 59.6483 275.192 59.6483C274.934 59.6483 274.824 59.1711 274.945 58.5768C275.085 57.8881 274.931 57.4874 274.513 57.4553C273.973 57.4131 273.991 57.3053 274.619 56.8195C275.322 56.2752 275.301 56.178 274.311 55.4409C273.725 55.0051 273.001 54.6479 272.702 54.6479C272.404 54.6479 272.159 54.3265 272.159 53.9336C272.159 53.5407 273.138 53.1879 274.335 53.15L276.511 53.0807L275.092 51.9813C273.553 50.7898 273.275 49.3862 274.359 48.2911C274.736 47.9104 276.949 47.3711 279.278 47.0925C281.607 46.8146 283.512 46.3381 283.512 46.0338C283.512 45.7295 283.044 45.1581 282.471 44.763C281.6 44.163 281.878 44.0366 284.174 43.9894C285.731 43.9573 286.918 43.6237 286.918 43.2187C286.918 42.8258 286.567 42.5043 286.139 42.5043C285.71 42.5043 285.46 42.1972 285.583 41.8214C285.706 41.4457 286.057 41.3192 286.362 41.5407C286.668 41.7614 286.918 41.6407 286.918 41.2721C286.918 40.9028 286.109 40.2427 285.12 39.8049C283.595 39.1291 284.18 39.0434 288.999 39.2363L294.676 39.4641L289.756 38.1583C281.148 35.8732 281.302 35.9325 282.377 35.3246C283.252 34.8295 283.261 34.7838 282.494 34.7181C281.34 34.6188 281.047 33.3866 282.087 33.0094C282.564 32.8359 282.245 32.6551 281.368 32.6008C280.501 32.5473 279.734 32.1865 279.665 31.7994C279.595 31.4122 277.58 30.8322 275.187 30.5114C270.924 29.94 270.868 29.91 272.432 29.0506C273.451 28.4913 276.106 28.2313 279.763 28.332C285.057 28.4784 285.539 28.3834 286.034 27.1041C286.506 25.8847 287.14 25.689 291.285 25.4804C295.044 25.2918 296 25.0382 296 24.2303C296 23.6731 295.852 23.2174 295.671 23.2174C295.139 23.2174 288.681 21.0651 287.959 20.6472C286.591 19.8557 287.372 18.9285 289.472 18.8493C291.625 18.7678 291.632 18.7607 290.134 18.1764C289.302 17.8513 287.258 17.5427 285.593 17.4913C282.628 17.3985 278.607 16.4277 279.728 16.0741C280.796 15.7376 276.893 14.7511 274.284 14.6983C272.01 14.6518 271.567 14.4183 270.802 12.8596L269.925 11.0738L271.515 11.0095L273.105 10.9452L271.812 10.243C271.1 9.85726 270.206 9.69582 269.825 9.88369C269.444 10.0716 269.132 9.95798 269.132 9.63082C269.132 9.30366 268.834 8.88863 268.47 8.70862C268.106 8.52932 268.574 8.30431 269.51 8.21001L271.213 8.03786L269.51 7.4964C263.945 5.72771 224.363 4.75122 211.612 6.06845C207.969 6.4449 203.258 6.76064 201.142 6.76992C198.426 6.78278 197.238 7.05065 197.102 7.68069C196.958 8.35288 196.833 8.36788 196.595 7.73927C196.328 7.03494 188.47 6.22417 187.771 6.8285C187.088 7.41925 87.4021 7.34139 80.6771 6.74492C76.2022 6.34775 71.0935 5.89773 69.3244 5.74486C67.5553 5.59199 62.2895 5.29912 57.6232 5.09553C52.9564 4.89123 47.422 4.52264 45.3244 4.27691C39.259 3.56543 30.6787 3.49471 30.4626 4.15476ZM222.515 3.70401C222.788 3.91046 223.115 3.88474 223.24 3.64758C223.366 3.41042 223.143 3.24184 222.744 3.27256C222.303 3.30685 222.213 3.47614 222.515 3.70401ZM212.298 4.41834C212.571 4.62479 212.897 4.59907 213.023 4.36191C213.148 4.12476 212.925 3.95617 212.526 3.98689C212.085 4.02118 211.996 4.19047 212.298 4.41834ZM215.325 4.41834C215.598 4.62479 215.924 4.59907 216.05 4.36191C216.176 4.12476 215.952 3.95617 215.554 3.98689C215.113 4.02118 215.023 4.19047 215.325 4.41834ZM93.8273 5.86344C94.2958 6.03345 95.0617 6.03345 95.5302 5.86344C95.9987 5.69271 95.6154 5.55342 94.6788 5.55342C93.7422 5.55342 93.3588 5.69271 93.8273 5.86344ZM170.465 8.68504C170.209 8.88077 169.698 8.89291 169.33 8.71147C168.962 8.53003 169.171 8.37002 169.796 8.35574C170.42 8.34145 170.721 8.48932 170.465 8.68504ZM267.516 8.6479C267.39 8.88506 267.063 8.91077 266.791 8.70433C266.489 8.47646 266.578 8.30716 267.019 8.27287C267.418 8.24216 267.641 8.41074 267.516 8.6479ZM211.125 9.91655C211.254 10.1601 210.011 10.3959 208.364 10.4409C206.716 10.4852 201.025 10.6852 195.718 10.8845C190.41 11.0845 171.624 11.4952 153.971 11.7988C136.317 12.1024 120.944 12.5689 119.809 12.8367C117.724 13.3282 115.229 12.761 115.686 11.8988C115.95 11.4024 119.532 11.2695 139.617 11.0145C147.282 10.9166 152.199 10.588 152.199 10.173C152.199 9.79868 152.439 9.66582 152.732 9.87797C153.541 10.4637 166.143 10.3644 175.283 9.70011C184.219 9.05007 210.751 9.21079 211.125 9.91655ZM221.009 9.28865C220.737 9.80226 214.25 9.8644 213.981 9.3558C213.857 9.12222 215.431 8.93077 217.477 8.93077C219.524 8.93077 221.113 9.0915 221.009 9.28865ZM222.483 9.36223C222.358 9.59938 222.031 9.6251 221.758 9.41866C221.456 9.19079 221.546 9.02149 221.987 8.98721C222.386 8.95649 222.609 9.12507 222.483 9.36223ZM193.736 10.1501C194.206 10.3209 194.888 10.3144 195.249 10.1358C195.611 9.95726 195.226 9.81726 194.393 9.82511C193.561 9.83297 193.265 9.97941 193.736 10.1501ZM245.421 10.1809C245.518 10.4752 243.243 10.7166 240.367 10.7166C237.491 10.7166 235.01 10.4752 234.854 10.1809C234.697 9.88655 236.972 9.6451 239.908 9.6451C242.844 9.6451 245.325 9.88655 245.421 10.1809ZM247.373 10.3594C246.339 11.1981 246.048 11.1981 246.048 10.3594C246.048 9.96655 246.516 9.66796 247.089 9.69511C248.011 9.74011 248.043 9.81511 247.373 10.3594ZM178.24 10.8473C178.512 11.0538 178.839 11.028 178.965 10.7909C179.09 10.5537 178.867 10.3852 178.468 10.4159C178.027 10.4502 177.938 10.6195 178.24 10.8473ZM180.493 10.8773C181.173 11.0359 182.195 11.033 182.764 10.8702C183.332 10.7066 182.776 10.5766 181.527 10.5809C180.278 10.5844 179.813 10.718 180.493 10.8773ZM104.103 12.5446C103.831 12.8624 103.454 12.9425 103.266 12.7232C103.077 12.5039 103.146 12.0638 103.418 11.746C103.691 11.4281 104.068 11.3481 104.256 11.5674C104.444 11.7867 104.375 12.2267 104.103 12.5446ZM110.951 11.9431C110.951 12.251 109.717 12.4646 108.207 12.4181C106.171 12.3553 105.756 12.196 106.599 11.8002C108.052 11.1173 110.951 11.2131 110.951 11.9431ZM114.735 11.4488C114.735 12.2117 112.692 13.2582 112.116 12.7903C111.644 12.4074 111.717 12.191 112.465 11.761C113.62 11.0952 114.735 10.9423 114.735 11.4488ZM102.423 12.5431C102.302 12.9132 100.893 13.2118 99.2921 13.206C97.6914 13.1996 96.5807 12.9589 96.824 12.6703C97.4976 11.871 102.682 11.7531 102.423 12.5431ZM223.445 12.2567C223.188 12.4524 222.677 12.4646 222.309 12.2831C221.941 12.1017 222.151 11.9417 222.775 11.9274C223.399 11.9131 223.701 12.061 223.445 12.2567ZM249.927 13.0067C249.459 13.1768 248.692 13.1768 248.224 13.0067C247.756 12.836 248.139 12.6967 249.076 12.6967C250.012 12.6967 250.395 12.836 249.927 13.0067ZM15.2098 22.5031C15.2098 22.8959 15.1349 23.2174 15.043 23.2174C14.951 23.2174 14.7709 22.8959 14.6422 22.5031C14.5135 22.1102 14.5888 21.7887 14.8091 21.7887C15.0293 21.7887 15.2098 22.1102 15.2098 22.5031ZM4.92165 48.7069C5.19449 48.9133 5.52107 48.8876 5.64671 48.6504C5.77234 48.4133 5.54907 48.2447 5.15021 48.2754C4.70935 48.3097 4.61966 48.479 4.92165 48.7069ZM273.949 60.7941C273.823 61.0312 273.497 61.0569 273.224 60.8505C272.922 60.6226 273.012 60.4533 273.452 60.419C273.851 60.3883 274.075 60.5569 273.949 60.7941ZM8.0198 62.5056C8.0198 62.8985 7.83929 63.2199 7.61904 63.2199C7.3988 63.2199 7.3235 62.8985 7.45216 62.5056C7.58083 62.1127 7.76096 61.7913 7.85291 61.7913C7.94487 61.7913 8.0198 62.1127 8.0198 62.5056ZM120.616 73.2684C121.023 74.5121 120.56 74.7757 120.041 73.5949C119.742 72.9162 119.713 72.5062 119.965 72.5062C120.186 72.5062 120.479 72.8491 120.616 73.2684ZM144.613 75.0271C144.838 74.7649 144.924 74.2513 144.804 73.8856C144.679 73.5034 145.548 73.2205 146.847 73.2205C148.153 73.2205 149.167 73.552 149.247 74.0049C149.323 74.4363 150.186 74.9599 151.163 75.1678C153.599 75.6864 153.044 76.7865 150.483 76.5143C148.943 76.3507 148.415 76.5407 148.415 77.2579C148.415 78.4709 147.03 78.5302 146.773 77.3279C146.663 76.8101 146.57 76.9779 146.553 77.7273C146.536 78.438 146.383 78.8566 146.212 78.6566C146.041 78.4573 145.617 78.9202 145.269 79.686C144.528 81.3203 142.739 81.5782 142.739 80.0517C142.739 79.2702 142.41 79.1259 141.363 79.4459C140.284 79.7767 140.028 79.6517 140.174 78.8659C140.277 78.3144 140.602 77.8966 140.897 77.9366C141.193 77.9766 141.667 77.5387 141.951 76.9644C142.401 76.0564 142.3 75.9836 141.184 76.4093C140.478 76.6786 139.617 77.0487 139.27 77.2315C138.923 77.4151 138.54 77.2601 138.418 76.8886C138.296 76.5165 139.058 75.9886 140.11 75.7157C141.162 75.4421 142.227 74.7992 142.476 74.2863C142.846 73.522 143.043 73.5477 143.566 74.4285C143.917 75.0199 144.388 75.2893 144.613 75.0271ZM197.988 74.2113C197.988 74.7978 195.674 75.0928 195.49 74.5299C195.383 74.2027 195.901 73.9349 196.642 73.9349C197.382 73.9349 197.988 74.0592 197.988 74.2113ZM128.887 78.5123C128.562 80.1117 128.086 79.3124 128.2 77.358C128.342 74.9278 128.351 74.9078 128.749 76.195C128.951 76.8486 129.013 77.8916 128.887 78.5123ZM155.707 75.8321C155.451 76.0279 154.94 76.04 154.571 75.8586C154.203 75.6771 154.413 75.5171 155.037 75.5028C155.662 75.4886 155.963 75.6364 155.707 75.8321ZM168.471 76.1143C166.044 76.9294 157.416 76.9029 156.74 76.0779C156.364 75.6186 158.53 75.4121 163.173 75.4635C167.962 75.5178 169.636 75.7228 168.471 76.1143ZM176.324 75.875C175.751 76.0386 174.815 76.0386 174.242 75.875C173.67 75.7114 174.138 75.5778 175.283 75.5778C176.428 75.5778 176.896 75.7114 176.324 75.875ZM179.919 75.8364C179.659 76.035 179.233 76.035 178.973 75.8364C178.713 75.6386 178.925 75.4764 179.446 75.4764C179.966 75.4764 180.179 75.6386 179.919 75.8364ZM183.703 75.8364C183.443 76.035 183.017 76.035 182.757 75.8364C182.497 75.6386 182.71 75.4764 183.23 75.4764C183.75 75.4764 183.963 75.6386 183.703 75.8364ZM119.276 76.4272C119.276 77.4672 117.866 79.646 117.206 79.6259C116.468 79.6031 116.471 79.5495 117.304 78.2394L118.169 76.8772L116.547 76.6022C115.122 76.3607 115.19 76.3122 117.1 76.2029C118.297 76.1343 119.276 76.235 119.276 76.4272ZM121.066 76.5093C120.94 76.7465 120.614 76.7722 120.341 76.5658C120.039 76.3379 120.128 76.1686 120.569 76.1343C120.968 76.1036 121.191 76.2722 121.066 76.5093ZM144.252 76.7922C144.252 77.1851 144.433 77.5065 144.653 77.5065C144.873 77.5065 144.949 77.1851 144.82 76.7922C144.691 76.3993 144.511 76.0779 144.419 76.0779C144.327 76.0779 144.252 76.3993 144.252 76.7922ZM262.596 76.5093C262.471 76.7465 262.144 76.7722 261.871 76.5658C261.569 76.3379 261.659 76.1686 262.1 76.1343C262.499 76.1036 262.722 76.2722 262.596 76.5093ZM265.442 76.5508C265.182 76.7493 264.757 76.7493 264.496 76.5508C264.236 76.3529 264.449 76.1907 264.969 76.1907C265.49 76.1907 265.703 76.3529 265.442 76.5508ZM102.902 77.2237C102.776 77.4608 102.449 77.4865 102.176 77.2801C101.874 77.0522 101.964 76.8829 102.405 76.8486C102.804 76.8179 103.027 76.9865 102.902 77.2237ZM113.513 77.6408C113.431 78.1073 113.138 78.6309 112.861 78.8045C112.579 78.9823 112.468 78.7902 112.607 78.3644C112.746 77.9401 112.479 77.4722 111.997 77.2979C111.387 77.0765 111.503 76.9586 112.401 76.8894C113.225 76.8258 113.611 77.0872 113.513 77.6408ZM125.52 78.2209C125.383 79.0402 125.452 79.6495 125.684 79.6495C125.906 79.6495 126.088 79.9174 126.088 80.2446C126.088 81.1725 124.549 80.7289 124.214 79.7038C123.981 78.9945 123.73 78.973 123.101 79.6088C122.654 80.0603 122.104 80.2153 121.879 79.9524C121.425 79.4224 123.979 76.9422 125.073 76.8501C125.593 76.8065 125.702 77.1401 125.52 78.2209ZM197.042 77.5065C197.171 77.8994 197.096 78.2209 196.875 78.2209C196.655 78.2209 196.475 77.8994 196.475 77.5065C196.475 77.1136 196.55 76.7922 196.642 76.7922C196.733 76.7922 196.914 77.1136 197.042 77.5065ZM200.637 77.1072C200.637 77.2808 200.467 77.6208 200.259 77.8637C200.051 78.1066 199.88 77.9644 199.88 77.5487C199.88 77.1329 200.051 76.7922 200.259 76.7922C200.467 76.7922 200.637 76.9336 200.637 77.1072ZM255.989 77.2608C255.733 77.4565 255.222 77.4687 254.854 77.2872C254.485 77.1058 254.695 76.9458 255.319 76.9315C255.944 76.9172 256.245 77.0651 255.989 77.2608ZM258.055 77.2237C257.929 77.4608 257.603 77.4865 257.33 77.2801C257.028 77.0522 257.118 76.8829 257.559 76.8486C257.957 76.8179 258.181 76.9865 258.055 77.2237ZM108.491 78.2209C108.62 78.6137 108.545 78.9352 108.324 78.9352C108.104 78.9352 107.924 78.6137 107.924 78.2209C107.924 77.828 107.999 77.5065 108.09 77.5065C108.182 77.5065 108.363 77.828 108.491 78.2209ZM153.232 77.938C153.106 78.1751 152.78 78.2009 152.507 77.9944C152.205 77.7665 152.294 77.5972 152.735 77.563C153.134 77.5322 153.357 77.7008 153.232 77.938ZM155.124 77.938C154.998 78.1751 154.672 78.2009 154.399 77.9944C154.097 77.7665 154.187 77.5972 154.627 77.563C155.026 77.5322 155.25 77.7008 155.124 77.938ZM158.632 78.578C158.632 79.1674 158.803 79.6495 159.011 79.6495C159.219 79.6495 159.389 79.2481 159.388 78.7566C159.388 78.0937 160.219 77.9237 162.61 78.0951C164.559 78.2352 165.743 78.5995 165.606 79.0173C165.482 79.3967 165.08 79.5274 164.712 79.3074C164.345 79.0873 163.551 79.3945 162.947 79.9888C161.975 80.946 161.835 80.9475 161.727 80.0024C161.59 78.8095 159.942 78.5387 159.578 79.6495C159.325 80.4246 157.764 80.6303 157.397 79.9367C157.029 79.2416 157.535 77.5065 158.105 77.5065C158.395 77.5065 158.632 77.9887 158.632 78.578ZM193.447 78.578C193.048 79.4852 193.132 79.6495 193.991 79.6495C194.571 79.6495 194.905 79.9553 194.772 80.3639C194.643 80.7567 194.179 81.0782 193.74 81.0782C193.302 81.0782 193.064 81.3082 193.213 81.5889C193.362 81.8697 194.862 82.0004 196.547 81.8804C199.283 81.6847 199.584 81.7889 199.367 82.8583C199.206 83.6455 199.285 83.9426 199.596 83.7276C199.857 83.5469 200.027 83.0383 199.975 82.5961C199.923 82.154 200.316 81.7925 200.849 81.7925C201.398 81.7925 201.716 82.1018 201.583 82.5068C201.455 82.8997 201.53 83.2212 201.75 83.2212C201.97 83.2212 202.151 82.8997 202.151 82.5068C202.151 81.3182 203.566 81.7068 203.822 82.9662C203.953 83.6119 204.004 84.2477 203.935 84.3791C203.865 84.5098 202.13 84.7048 200.079 84.812C197.356 84.9541 196.307 84.7663 196.191 84.1141C196.104 83.6233 195.697 83.2212 195.286 83.2212C194.874 83.2212 194.643 83.5426 194.772 83.9355C194.908 84.352 194.524 84.6498 193.848 84.6498C193.212 84.6498 192.69 84.3284 192.69 83.9355C192.69 83.5426 192.06 83.2212 191.29 83.2212C189.76 83.2212 189.955 82.079 191.555 81.6747C192.267 81.4946 192.531 80.9482 192.621 79.4709C192.694 78.2666 192.969 77.5065 193.33 77.5065C193.81 77.5065 193.832 77.7037 193.447 78.578ZM231.1 79.1538C231.517 79.3588 231.048 79.4938 230.06 79.4545C229.071 79.4152 228.262 79.0995 228.262 78.7538C228.262 78.4073 228.624 78.3416 229.066 78.6066C229.681 78.9745 229.798 78.8602 229.561 78.1187C229.318 77.3565 229.369 77.3237 229.798 77.9651C230.098 78.4144 230.684 78.9488 231.1 79.1538ZM183.797 78.9352C183.669 79.3281 183.404 79.6495 183.208 79.6495C183.011 79.6495 182.851 79.3281 182.851 78.9352C182.851 78.5423 183.117 78.2209 183.441 78.2209C183.766 78.2209 183.926 78.5423 183.797 78.9352ZM143.495 79.6495C144.229 80.5446 144.631 80.5446 144.631 79.6495C144.631 79.2566 144.247 78.9402 143.779 78.9459C143.091 78.9552 143.036 79.0895 143.495 79.6495ZM179.067 79.9595C179.067 80.5396 179.518 81.0925 180.108 81.2346C180.943 81.4361 180.84 81.5532 179.588 81.8282C178.165 82.1404 178.027 82.0275 178.027 80.5532C178.027 79.6567 178.258 78.9352 178.547 78.9352C178.833 78.9352 179.067 79.3959 179.067 79.9595ZM190.798 79.5431C190.798 79.9017 190.114 80.2131 189.277 80.2353C188.44 80.2567 187.832 80.0403 187.926 79.7545C188.18 78.9788 190.798 78.7859 190.798 79.5431ZM72.9194 80.3639C73.0481 80.7567 72.8876 81.0782 72.5633 81.0782C72.239 81.0782 71.9734 80.7567 71.9734 80.3639C71.9734 79.971 72.1334 79.6495 72.3295 79.6495C72.5255 79.6495 72.7907 79.971 72.9194 80.3639ZM148.036 80.406C148.036 80.8217 147.847 80.9417 147.616 80.6717C147.384 80.4017 147.047 80.6239 146.865 81.1653C146.603 81.9439 146.533 81.8882 146.528 80.8996C146.525 80.1224 146.809 79.6495 147.28 79.6495C147.696 79.6495 148.036 79.9903 148.036 80.406ZM153.334 80.1853C153.334 80.4796 152.925 80.721 152.424 80.721C151.924 80.721 151.594 80.4796 151.69 80.1853C151.786 79.891 152.196 79.6495 152.6 79.6495C153.004 79.6495 153.334 79.891 153.334 80.1853ZM225.424 80.3639C225.295 80.7567 224.817 81.0553 224.361 81.0282C223.562 80.9796 223.559 80.956 224.289 80.3639C225.33 79.5188 225.701 79.5188 225.424 80.3639ZM253.238 80.3639C253.238 80.7567 253.622 81.0832 254.09 81.0889C254.558 81.0953 255.197 81.4118 255.509 81.7925C255.927 82.3033 255.629 82.5247 254.373 82.6354C253.437 82.7183 252.075 82.9133 251.346 83.0683C250.618 83.224 244.147 83.4455 236.966 83.5605C229.785 83.6755 224.932 83.5298 226.181 83.2362C227.43 82.9433 229.303 82.5033 230.344 82.259C234.342 81.3211 239.191 81.0768 239.428 81.8004C239.56 82.2018 239.842 82.3261 240.055 82.0768C240.269 81.8282 240.842 82.0261 241.328 82.5176C241.815 83.009 242.522 83.1776 242.901 82.8919C243.279 82.6061 244.812 82.3161 246.308 82.2475C247.803 82.179 249.138 81.9125 249.274 81.6554C249.41 81.3989 250.102 81.3668 250.812 81.5839C251.839 81.8982 252.103 81.7411 252.103 80.8146C252.103 80.1738 252.358 79.6495 252.671 79.6495C252.983 79.6495 253.238 79.971 253.238 80.3639ZM264.37 80.5424C264.547 81.2568 264.635 81.2568 264.811 80.5424C265.049 79.5824 268.208 79.2766 268.506 80.1853C268.602 80.4796 267.931 80.6082 267.015 80.4703C265.974 80.3139 265.348 80.5153 265.348 81.006C265.348 82.1975 263.568 81.9475 263.319 80.721C263.054 79.4181 264.05 79.2488 264.37 80.5424ZM176.607 81.0782C176.479 81.4711 175.915 81.7697 175.355 81.7425C174.446 81.6975 174.418 81.6261 175.094 81.0782C176.145 80.2253 176.887 80.2253 176.607 81.0782ZM212.179 81.0782C212.051 81.4711 212.296 81.7925 212.725 81.7925C213.153 81.7925 213.504 81.4711 213.504 81.0782C213.504 80.2346 214.237 80.4253 214.86 81.4311C215.432 82.3533 213.489 83.9812 212.436 83.4619C212.03 83.2612 211.582 83.4462 211.443 83.8734C211.303 84.3005 210.933 84.6498 210.621 84.6498C210.309 84.6498 210.167 84.3034 210.305 83.8805C210.48 83.3476 210.021 83.2626 208.814 83.6041C207.756 83.9034 207.071 83.8241 207.071 83.4019C207.071 83.0197 208.047 82.5161 209.24 82.284C210.434 82.0518 211.47 81.5246 211.542 81.1125C211.615 80.701 211.841 80.3639 212.044 80.3639C212.247 80.3639 212.308 80.6853 212.179 81.0782ZM222.999 81.0225C222.706 81.3732 221.965 81.5404 221.352 81.3939C220.494 81.1889 220.193 81.4504 220.043 82.5319C219.936 83.304 219.703 83.9355 219.526 83.9355C219.118 83.9355 219.558 81.6096 220.098 80.9103C220.322 80.6217 221.186 80.386 222.018 80.386C223.051 80.386 223.363 80.5882 222.999 81.0225ZM89.7593 81.7089C89.7593 82.5597 88.2963 83.239 88.0545 82.5011C87.9489 82.1783 88.0764 81.7518 88.3379 81.5525C89.1129 80.9625 89.7593 81.0339 89.7593 81.7089ZM94.6788 81.7925C94.6788 82.1854 94.5187 82.5068 94.3227 82.5068C94.1266 82.5068 93.8614 82.1854 93.7327 81.7925C93.604 81.3996 93.7645 81.0782 94.0888 81.0782C94.4131 81.0782 94.6788 81.3996 94.6788 81.7925ZM101.49 81.7147C101.49 82.7947 98.7271 83.0247 97.7164 82.029C96.8309 81.1568 96.9353 81.0868 99.1252 81.0825C100.426 81.0803 101.49 81.3646 101.49 81.7147ZM102.654 81.989C102.607 82.8433 102.088 82.6776 101.926 81.7568C101.842 81.2853 101.979 81.0282 102.228 81.1853C102.478 81.3425 102.67 81.7039 102.654 81.989ZM106.005 84.2391C106.019 84.6027 105.716 84.2812 105.33 83.5248C104.854 82.5926 104.763 81.9854 105.046 81.6404C105.425 81.1775 105.938 82.5669 106.005 84.2391ZM109.217 81.5118C109.987 82.0697 109.993 83.2212 109.226 83.2212C108.901 83.2212 108.735 83.5233 108.856 83.8919C108.976 84.2612 108.732 84.5148 108.312 84.4548C107.527 84.3434 107.405 82.6061 108.113 81.6246C108.576 80.9818 108.497 80.9896 109.217 81.5118ZM257.779 81.7925C257.779 82.1854 257.481 82.5018 257.117 82.4961C256.551 82.4868 256.537 82.384 257.022 81.7925C257.736 80.921 257.779 80.921 257.779 81.7925ZM113.047 82.9047C112.079 83.6548 112.028 83.8212 112.669 84.1284C113.268 84.4163 113.229 84.4998 112.461 84.567C111.913 84.6148 111.328 84.0955 111.078 83.3405C110.681 82.1404 110.793 82.0311 112.406 82.034C114.151 82.0368 114.157 82.0447 113.047 82.9047ZM118.249 83.7284C118.401 85.2342 118.312 85.427 117.621 85.077C117.179 84.8527 116.135 84.6548 115.303 84.6377C114.078 84.6127 113.917 84.4655 114.459 83.8698C114.828 83.4648 115.035 82.8433 114.918 82.4883C114.802 82.134 115.464 81.8725 116.389 81.9075C117.863 81.9632 118.093 82.1883 118.249 83.7284ZM129.368 83.6234C129.762 84.6377 129.976 84.7391 130.328 84.0755C130.958 82.8862 131.764 83.0076 131.764 84.2927C131.764 85.1277 131.284 85.352 129.588 85.3077C128.391 85.277 127.625 85.0891 127.885 84.8913C128.998 84.0434 128.206 83.2212 126.277 83.2212C124.026 83.2212 123.42 84.3777 125.426 84.8477C126.19 85.0263 125.841 85.1784 124.502 85.2499C123.293 85.3142 122.237 85.0234 122.094 84.5877C121.911 84.0284 121.725 84.0284 121.428 84.5877C121.202 85.0149 120.762 85.3642 120.449 85.3642C120.03 85.3642 119.993 85.1549 120.306 84.5627C120.54 84.122 120.637 83.2976 120.521 82.7304C120.344 81.8589 120.973 81.7475 124.587 82.0082C128.175 82.2668 128.944 82.5261 129.368 83.6234ZM137.817 83.3998C137.82 84.1977 135.252 84.0484 134.985 83.2347C134.847 82.8126 135.363 82.5997 136.286 82.699C137.127 82.7897 137.816 83.1055 137.817 83.3998ZM151.442 83.179C151.442 83.549 151.272 84.0491 151.065 84.2912C150.405 85.0613 140.183 84.7077 139.333 83.8855C138.901 83.4676 143.588 82.7319 147.374 82.6233C149.708 82.5568 151.442 82.7933 151.442 83.179ZM168.038 83.5933C168.437 84.3462 167.721 84.6013 164.191 84.9634C160.572 85.3356 156.74 84.4255 156.74 83.194C156.74 82.5661 167.699 82.954 168.038 83.5933ZM181.527 83.9098C179.086 84.3213 177.25 84.0184 177.858 83.304C178.064 83.0619 179.485 83.0133 181.015 83.1955L183.797 83.5269L181.527 83.9098ZM188.149 83.2212C188.149 83.6141 188.074 83.9355 187.982 83.9355C187.891 83.9355 187.71 83.6141 187.582 83.2212C187.453 82.8283 187.528 82.5068 187.749 82.5068C187.969 82.5068 188.149 82.8283 188.149 83.2212ZM196.664 83.2212C196.535 83.6141 196.696 83.9355 197.02 83.9355C197.344 83.9355 197.61 83.6141 197.61 83.2212C197.61 82.8283 197.45 82.5068 197.254 82.5068C197.058 82.5068 196.793 82.8283 196.664 83.2212ZM275.116 82.9947C275.389 83.2012 275.715 83.1755 275.841 82.9383C275.967 82.7011 275.743 82.5326 275.345 82.5633C274.904 82.5976 274.814 82.7669 275.116 82.9947ZM186.468 83.8684C186.352 84.2241 185.916 84.3477 185.5 84.142C184.459 83.6283 184.552 83.2212 185.712 83.2212C186.244 83.2212 186.585 83.5126 186.468 83.8684ZM206.03 83.6941C205.77 83.8926 205.344 83.8926 205.084 83.6941C204.824 83.4962 205.036 83.334 205.557 83.334C206.077 83.334 206.29 83.4962 206.03 83.6941ZM223.437 83.6941C223.177 83.8926 222.752 83.8926 222.491 83.6941C222.231 83.4962 222.444 83.334 222.964 83.334C223.485 83.334 223.698 83.4962 223.437 83.6941ZM272.349 86.7928C272.477 87.1857 272.657 87.5072 272.749 87.5072C272.841 87.5072 272.916 87.1857 272.916 86.7928C272.916 86.3999 272.736 86.0785 272.515 86.0785C272.295 86.0785 272.22 86.3999 272.349 86.7928ZM282.306 86.5664C282.579 86.7728 282.905 86.7471 283.031 86.51C283.157 86.2728 282.933 86.1042 282.535 86.1349C282.094 86.1692 282.004 86.3385 282.306 86.5664ZM127.601 95.5434C127.601 95.8377 124.153 96.0191 119.939 95.9463C114.634 95.8541 113.265 95.6891 115.492 95.4105C120.113 94.8319 127.6 94.9141 127.601 95.5434ZM131.386 95.8055C131.386 95.9556 130.577 96.0413 129.588 95.9948C128.042 95.922 127.95 95.842 128.926 95.4234C129.987 94.9683 131.386 95.1862 131.386 95.8055ZM111.802 95.8377C111.542 96.0363 111.117 96.0363 110.856 95.8377C110.596 95.6398 110.809 95.4777 111.329 95.4777C111.85 95.4777 112.063 95.6398 111.802 95.8377ZM77.554 97.3606C77.8162 97.6864 76.2635 97.9714 74.0581 98.0021C71.8757 98.0328 70.1588 97.8485 70.2428 97.5921C70.4722 96.892 77.0098 96.6856 77.554 97.3606ZM250.518 97.9957C250.791 98.2021 251.118 98.1764 251.243 97.9392C251.369 97.7021 251.146 97.5335 250.747 97.5642C250.306 97.5985 250.216 97.7678 250.518 97.9957ZM222.862 98.6536C222.736 98.8907 222.41 98.9165 222.137 98.71C221.835 98.4821 221.924 98.3128 222.365 98.2785C222.764 98.2478 222.987 98.4164 222.862 98.6536ZM91.3467 100.184C93.5726 100.309 97.319 100.31 99.6721 100.184C102.025 100.059 100.204 99.9558 95.6248 99.9551C91.0459 99.9544 89.1209 100.057 91.3467 100.184ZM125.262 100.521C125.464 100.902 125.945 101.087 126.332 100.932C126.852 100.724 126.757 100.544 125.965 100.24C125.274 99.9737 125.025 100.074 125.262 100.521ZM242.572 100.139C242.844 100.345 243.171 100.319 243.297 100.082C243.422 99.8451 243.199 99.6765 242.8 99.7072C242.359 99.7415 242.27 99.9108 242.572 100.139ZM128.268 100.87C128.739 101.041 129.42 101.034 129.782 100.856C130.144 100.677 129.759 100.537 128.926 100.545C128.094 100.553 127.798 100.699 128.268 100.87ZM133.566 100.87C134.037 101.041 134.718 101.034 135.08 100.856C135.442 100.677 135.057 100.537 134.224 100.545C133.391 100.553 133.096 100.699 133.566 100.87ZM145.3 100.883C145.98 101.042 147.001 101.039 147.57 100.876C148.139 100.712 147.582 100.582 146.334 100.587C145.085 100.59 144.62 100.724 145.3 100.883ZM150.785 100.878C151.361 101.042 152.212 101.037 152.677 100.868C153.143 100.699 152.672 100.564 151.631 100.569C150.591 100.575 150.21 100.714 150.785 100.878ZM200.353 100.857C200.718 101.037 201.314 101.037 201.678 100.857C202.042 100.678 201.744 100.531 201.016 100.531C200.287 100.531 199.989 100.678 200.353 100.857ZM206.597 100.838C206.858 101.037 207.284 101.037 207.544 100.838C207.804 100.64 207.591 100.478 207.071 100.478C206.55 100.478 206.337 100.64 206.597 100.838Z" fill="#0FDBB8"/>
</svg>
