<svg width="201" height="139" viewBox="0 0 201 139" fill="none" xmlns="http://www.w3.org/2000/svg">
<path d="M170.61 54.3309C165.326 61.5035 155.233 63.0386 148.068 57.7597C140.903 52.4809 139.378 42.3871 144.662 35.2145C149.946 28.042 160.038 26.5069 167.203 31.7857C174.369 37.0646 175.894 47.1584 170.61 54.3309Z" fill="#F7F2EE"/>
<path d="M129.071 110.714C123.787 117.886 113.695 119.421 106.53 114.142C99.3644 108.863 97.8394 98.7697 103.124 91.5971C108.408 84.4246 118.5 82.8895 125.665 88.1683C132.831 93.4472 134.356 103.541 129.071 110.714Z" fill="#F7F2EE"/>
<path d="M190.862 69.251C185.578 76.4236 175.485 77.9587 168.32 72.6798C161.155 67.401 159.63 57.3072 164.914 50.1347C170.198 42.9621 180.29 41.427 187.456 46.7058C194.621 51.9847 196.146 62.0785 190.862 69.251Z" fill="#F7F2EE"/>
<path d="M149.324 125.634C144.039 132.806 133.947 134.341 126.782 129.062C119.616 123.784 118.091 113.69 123.376 106.517C128.66 99.3447 138.752 97.8096 145.917 103.088C153.083 108.367 154.608 118.461 149.324 125.634Z" fill="#F7F2EE"/>
<path d="M154.918 49.1237L175.171 64.0438L136.899 115.992L116.647 101.072L154.918 49.1237Z" fill="#F7F2EE"/>
<circle cx="76" cy="29" r="29" fill="#F7F2EE"/>
<path d="M19.865 80.2268C24.7005 70.5764 40.0379 68.4742 54.1222 75.5313C68.2065 82.5884 75.7042 96.1325 70.8687 105.783C66.0333 115.433 50.6958 117.535 36.6116 110.478C22.5273 103.421 15.0296 89.8771 19.865 80.2268Z" fill="#F7F2EE"/>
<path d="M2.86265 92.1854C1.17105 87.1247 5.74421 81.0574 13.0771 78.6338C20.41 76.2101 27.7258 78.3479 29.4174 83.4085C31.109 88.4692 26.5358 94.5365 19.2029 96.9601C11.87 99.3838 4.55425 97.246 2.86265 92.1854Z" fill="#F7F2EE"/>
<path d="M19.2114 59.5572C24.2777 57.8826 30.3696 62.463 32.818 69.7877C35.2664 77.1123 33.144 84.4076 28.0777 86.0821C23.0113 87.7567 16.9195 83.1763 14.4711 75.8516C12.0227 68.527 14.145 61.2317 19.2114 59.5572Z" fill="#F7F2EE"/>
</svg>
